<svg id="Layer_1" data-name="Layer 1" xmlns="http://www.w3.org/2000/svg" width="432" height="256" viewBox="0 0 432 256">
  <title>Artboard 1</title>
  <path d="M19.8662,254.3838l-.0078-55.2608H0v-5.4912H45.7549v5.4912H25.8931v55.2608Zm86.7744-5.501H74.8936V225.4639h28.7265v-5.4727H74.8936V199.1309h30.7495v-5.4873H68.8604v60.7275h37.7802Zm28.1245-2.0058a29.25522,29.25522,0,0,0,9.8072,6.6464,31.58622,31.58622,0,0,0,12.4101,2.4034,27.9507,27.9507,0,0,0,7.4068-.9229,26.28729,26.28729,0,0,0,6.2055-2.4775,23.23009,23.23009,0,0,0,4.9414-3.6358,24.79663,24.79663,0,0,0,3.6421-4.3818l-4.6889-3.0733a18.60954,18.60954,0,0,1-7.7115,6.8555,22.652,22.652,0,0,1-9.7129,2.1543,23.97066,23.97066,0,0,1-10.2753-2.1416,23.34242,23.34242,0,0,1-7.7491-5.7793,25.93857,25.93857,0,0,1-4.9013-8.4189,29.86153,29.86153,0,0,1-1.7198-10.0996,30.18422,30.18422,0,0,1,1.6807-10.0928,25.15441,25.15441,0,0,1,4.8584-8.4141,23.39223,23.39223,0,0,1,7.7466-5.7871,24.283,24.283,0,0,1,10.3598-2.1299,19.69771,19.69771,0,0,1,5.3233.6836,23.55349,23.55349,0,0,1,4.5591,1.8008,16.76318,16.76318,0,0,1,3.6474,2.5752,15.28887,15.28887,0,0,1,2.4698,2.9219l5.0234-3.7803a17.60091,17.60091,0,0,0-3.7681-4.001,24.95236,24.95236,0,0,0-5.0249-3.0342,29.82349,29.82349,0,0,0-12.3125-2.6582,31.02307,31.02307,0,0,0-12.2803,2.4034,29.81279,29.81279,0,0,0-9.809,6.6464,30.64147,30.64147,0,0,0-6.49709,10.0801,33.979,33.979,0,0,0-2.35211,12.7862,34.44576,34.44576,0,0,0,2.3165,12.7851,30.26174,30.26174,0,0,0,6.4047,10.086m103.9361-26.8985h-32.3365V193.6357h-6.0371v60.7442h6.0371V225.6396h32.3365v28.7403h6.042V193.6357h-6.042Zm60.17481.5059a9.50916,9.50916,0,0,0,2.60149-6.9463,10.15706,10.15706,0,0,0-2.47549-6.8223,8.50746,8.50746,0,0,0-6.77741-2.876,9.05887,9.05887,0,0,0-6.8662,2.7041,9.86339,9.86339,0,0,0-2.56739,7.0821,9.61524,9.61524,0,0,0,2.53129,6.8271,8.76816,8.76816,0,0,0,6.7216,2.6914,9.128,9.128,0,0,0,6.83211-2.6601m9.78319-22.6524a20.90261,20.90261,0,0,1,4.9785,6.8662,21.49829,21.49829,0,0,1,1.8369,9.0127,25.27462,25.27462,0,0,1-1.8369,9.8223,57.99662,57.99662,0,0,1-4.7783,8.9766L294.543,254.3838H277.54979l14.7539-20.9385.1768-.2578a10.54084,10.54084,0,0,1-2.0576.5205,14.51,14.51,0,0,1-2.126.1641,19.86649,19.86649,0,0,1-7.4531-1.4063,18.9875,18.9875,0,0,1-6.1944-4.041,19.6845,19.6845,0,0,1-4.2617-6.2617,20.12954,20.12954,0,0,1-1.583-8.1104,22.3632,22.3632,0,0,1,1.8418-9.2724,20.33579,20.33579,0,0,1,5.0137-6.9483,22.11789,22.11789,0,0,1,7.4423-4.3271,28.11557,28.11557,0,0,1,18.1504,0,21.608,21.608,0,0,1,7.4063,4.3271m57.2969,32.3809q.3339-3.46875.3388-6.3789,0-2.8389-.3388-6.2676a31.97738,31.97738,0,0,0-1.2647-6.3906,13.80925,13.80925,0,0,0-2.6318-4.9727,5.62274,5.62274,0,0,0-4.4844-2.0195,5.75,5.75,0,0,0-4.5244,2.0195,13.92068,13.92068,0,0,0-2.71879,4.9727,29.09087,29.09087,0,0,0-1.29491,6.3906q-.34275,3.43215-.3379,6.2676,0,2.9121.3379,6.3789a29.06716,29.06716,0,0,0,1.29491,6.4336,14.044,14.044,0,0,0,2.71879,4.9844,5.74383,5.74383,0,0,0,4.5244,2.0156,5.61671,5.61671,0,0,0,4.4844-2.0156,13.93125,13.93125,0,0,0,2.6318-4.9844,31.91957,31.91957,0,0,0,1.2647-6.4336m9.4707-28.7315a30.76769,30.76769,0,0,1,4.0127,10.1211,57.81935,57.81935,0,0,1,1.2617,12.2315,58.51751,58.51751,0,0,1-1.2617,12.2685,31.69467,31.69467,0,0,1-4.0127,10.2461,21.10964,21.10964,0,0,1-7.169,7.0391A20.5392,20.5392,0,0,1,357.57519,256a20.78658,20.78658,0,0,1-10.7256-2.6123,21.3608,21.3608,0,0,1-7.2461-7.0391,31.07579,31.07579,0,0,1-4.06049-10.2461,58.512,58.512,0,0,1-1.25981-12.2685,57.81443,57.81443,0,0,1,1.25981-12.2315,30.17447,30.17447,0,0,1,4.06049-10.1211A20.22791,20.22791,0,0,1,357.57519,192a19.97009,19.97009,0,0,1,17.8516,9.4814M432,254.3838v-60.752H419.166l-19.51951,14.6827,7.289,10.1972,11.06651-8.751v44.6231ZM198.90869,47.918V30A39.526,39.526,0,0,0,174,66.5361C174,88.2998,191.94189,106,214.002,106,236.05179,106,254,88.2998,254,66.5361A39.5167,39.5167,0,0,0,229.08789,30V47.918a23.71237,23.71237,0,0,1,9.1113,18.6181,24.19658,24.19658,0,0,1-48.3887,0,23.70358,23.70358,0,0,1,9.0982-18.6181m4.3901,83.7798,10.5938-14.857A50.44587,50.44587,0,1,1,254.498,96.3101L197.71289,176h19.2598l50.2011-70.4468A65.96715,65.96715,0,0,0,280,66.292C280,29.7383,250.38669,0,214.002,0a66.30958,66.30958,0,0,0-10.70321,131.6978M222,29H206V81h16Z" fill="#fff"/>
</svg>
