<?xml version="1.0" encoding="utf-8"?>
<!-- Generator: Adobe Illustrator 23.0.1, SVG Export Plug-In . SVG Version: 6.00 Build 0)  -->
<svg version="1.1" id="Layer_1" xmlns="http://www.w3.org/2000/svg" xmlns:xlink="http://www.w3.org/1999/xlink" x="0px" y="0px"
	 viewBox="0 0 159 159" style="enable-background:new 0 0 159 159;" xml:space="preserve">
<style type="text/css">
	.st0{fill:#4C3041;}
	.st1{fill:#FFFFFF;}
</style>
<rect x="1" y="1" class="st0" width="157" height="157"/>
<title>Artboard 1</title>
<title>Artboard 1</title>
<g>
	<path class="st1" d="M0,0v159h159V0H0z M157.4,157.4H1.6V1.6h155.7V157.4z"/>
	<polygon class="st1" points="98.8,143 102.4,143 102.4,141.6 98.8,141.6 98.8,139.5 103,139.5 103,138 97.1,138 97.1,146.9 
		103.1,146.9 103.1,145.4 98.8,145.4 	"/>
	<polygon class="st1" points="124,139.5 127.1,139.5 127.1,146.9 128.8,146.9 128.8,139.5 131.9,139.5 131.9,138 123.9,138 	"/>
	<path class="st1" d="M114.8,145.6L114.8,145.6c-1.8,0.2-3.3-1.1-3.5-2.9c0-0.1,0-0.1,0-0.2c0-1.8,1.5-3.1,3.2-3.1
		c0.1,0,0.1,0,0.2,0c0.9,0,1.8,0.3,2.5,0.7l0.3,0.2v-1.8l-0.1-0.1c-0.9-0.4-1.8-0.6-2.8-0.6c-3,0-5.1,1.9-5.1,4.6
		c0,2.7,2.2,4.5,5.1,4.5c1,0,2-0.2,2.9-0.7l0.1-0.1v-1.8l-0.3,0.2C116.6,145.3,115.7,145.6,114.8,145.6z"/>
	<path class="st1" d="M19.2,138h-1.5l-4.1,8.9h1.7l1.1-2.4h4l1,2.4h1.8l-4-8.8L19.2,138z M17.1,143.1l0.6-1.4
		c0.3-0.6,0.5-1.1,0.7-1.7l0.7,1.6l0.6,1.4H17.1z"/>
	<polygon class="st1" points="82.4,139.4 85.6,139.4 85.6,146.9 87.2,146.9 87.2,139.4 90.4,139.4 90.4,138 82.4,138 	"/>
	<path class="st1" d="M35.3,142.8L35.3,142.8c0.8-0.4,1.3-1.3,1.3-2.2c0-0.9-0.6-1.8-1.4-2.2c-0.9-0.4-1.8-0.5-2.7-0.5h-2.8v8.9h1.7
		v-3.6h1.3l2.9,3.6h2l-3.1-3.8C34.8,143,35,142.9,35.3,142.8z M32.8,141.9L32.8,141.9l-1.4,0v-2.5h1c0.7-0.1,1.3,0,1.9,0.3
		c0.4,0.2,0.6,0.6,0.6,1c0,0.4-0.2,0.7-0.5,0.9C33.9,141.9,33.3,142,32.8,141.9z"/>
	<path class="st1" d="M48.6,145.6L48.6,145.6c-2,0-3.5-1.3-3.5-3.1c0-1.7,1.5-3.1,3.2-3.1c0.1,0,0.1,0,0.2,0c0.9,0,1.8,0.3,2.5,0.7
		l0.3,0.2v-1.8l-0.1-0.1c-0.9-0.4-1.8-0.6-2.8-0.6c-2.9,0-5.1,1.9-5.1,4.6c0,2.7,2.2,4.5,5.1,4.5c1,0,2-0.2,2.9-0.7l0.1-0.1v-1.8
		l-0.3,0.2C50.4,145.3,49.5,145.6,48.6,145.6z"/>
	<rect x="74" y="138" class="st1" width="1.7" height="8.9"/>
	<polygon class="st1" points="64.9,141.5 60.2,141.5 60.2,138 58.5,138 58.5,146.9 60.2,146.9 60.2,143 64.9,143 64.9,146.9 
		66.6,146.9 66.6,138 64.9,138 	"/>
	<path class="st1" d="M141.9,141.7L141.9,141.7l-0.3-0.1c-1.1-0.3-1.8-0.5-1.8-1.2c0-0.9,1-1.1,1.6-1.1c0.9,0,1.8,0.3,2.6,0.8
		l0.3,0.2v-1.7l-0.1-0.1c-0.9-0.4-1.8-0.7-2.8-0.7c-2,0-3.2,1-3.2,2.6c0,1.9,1.8,2.3,2.8,2.6l0.3,0.1c1.2,0.3,1.9,0.5,1.9,1.3
		c0,1-1.2,1.1-1.7,1.1c-1,0-1.9-0.3-2.7-0.8l-0.3-0.2v1.8l0.1,0.1c0.9,0.5,1.9,0.7,2.9,0.7c2,0,3.3-1,3.3-2.7
		C144.7,142.6,143.3,142.1,141.9,141.7z"/>
	<polygon class="st1" points="31.7,89.4 31.7,87.7 13.5,87.7 13.5,117.3 15.3,117.3 15.3,103.3 30,103.3 30,101.6 15.3,101.6 
		15.3,89.4 	"/>
	<rect x="35.9" y="87.7" class="st1" width="1.8" height="29.6"/>
	<path class="st1" d="M11.6,66.2c0,8.8,7.2,15.2,17.1,15.2c3.1,0,6.1-0.6,8.9-1.9l0.2-0.1v-2l-0.6,0.3c-2.6,1.3-5.5,2-8.5,2
		c-8.8,0-15.3-5.7-15.3-13.5c0-7.9,6.4-13.5,15.3-13.5c2.7,0,5.4,0.6,7.8,1.8l0.6,0.3v-2l-0.2-0.1c-2.6-1.1-5.4-1.7-8.2-1.7
		C18.8,50.9,11.6,57.3,11.6,66.2z"/>
	<polygon class="st1" points="40.9,30.3 61.7,30.3 61.7,44.9 63.5,44.9 63.5,15.2 61.7,15.2 61.7,28.7 40.9,28.7 40.9,15.2 39,15.2 
		39,44.9 40.9,44.9 	"/>
	<polygon class="st1" points="151.4,128.4 6.5,128.3 6.5,130 151.4,130 	"/>
	<polygon class="st1" points="22.7,44.9 24.5,44.9 24.5,16.9 35.8,16.9 35.8,15.2 11.3,15.2 11.3,16.9 22.7,16.9 	"/>
	<polygon class="st1" points="68.8,90.9 81.9,108 95.1,90.9 95.1,117.3 97,117.3 97,87.7 95.4,87.7 81.9,105.1 68.6,87.8 68.5,87.7 
		66.9,87.7 66.9,117.3 68.8,117.3 	"/>
	<path class="st1" d="M60,65c1.7-1.4,2.8-3.4,2.7-5.6c0-2.4-1.2-4.6-3.1-5.9c-2-1.4-4.8-2.1-9-2.1h-8.9V81h1.8V67.4h8L62.7,81H65
		L53.7,67.3C56,67.2,58.2,66.4,60,65z M51.4,65.8h-7.8V53h7c3.9,0,6.1,0.5,7.8,1.7c2.6,1.7,3.3,5.3,1.5,7.8
		c-0.3,0.5-0.7,0.9-1.1,1.2h0C57.2,65.1,54.8,65.8,51.4,65.8z"/>
	<path class="st1" d="M72.1,77.5c-2.2-2-3.1-5-3.1-10.8V51.4h-1.8v15.4c0,6.2,1,9.6,3.6,11.9c2,1.8,4.9,2.8,8.6,2.8
		c4.5,0,7.7-1.3,9.8-4c1.8-2.3,2.5-5.3,2.5-10.7V51.4h-1.8v15.4c0,5.1-0.6,7.8-2.2,9.8c-1.7,2.2-4.4,3.2-8.2,3.2
		C76.2,79.7,73.8,79,72.1,77.5z"/>
	<polygon class="st1" points="97.1,54.6 110.3,71.6 123.5,54.6 123.5,81 125.3,81 125.3,51.4 123.7,51.4 110.3,68.8 96.9,51.4 
		95.3,51.4 95.3,81 97.1,81 	"/>
	<polygon class="st1" points="85.2,43.2 68.9,43.2 68.9,30.3 83.1,30.3 83.1,28.7 68.9,28.7 68.9,16.9 84.9,16.9 84.9,15.2 
		67.1,15.2 67.1,44.9 85.2,44.9 	"/>
	<path class="st1" d="M130.3,68.2h6.9c4.4,0,7.4-0.7,9.5-2.2c3.4-2.4,4.3-7.2,1.8-10.6c-0.5-0.7-1.1-1.3-1.8-1.8
		c-2.1-1.5-5-2.2-9.5-2.2h-8.8V81h1.8L130.3,68.2z M130.3,53.1h6.9c5.1,0,7,0.9,8.3,1.9c2.7,1.9,3.3,5.7,1.4,8.4
		c-0.4,0.5-0.9,1-1.4,1.4c-1.3,1-3.2,1.9-8.3,1.9h-6.9V53.1z"/>
	<path class="st1" d="M63.3,95.7c0-2.4-1.2-4.6-3.1-5.9c-2-1.4-4.9-2.1-9-2.1h-8.9v29.6H44v-13.5h8l11.1,13.5h2.3l-11.2-13.7
		c2.3-0.1,4.5-0.9,6.3-2.2C62.3,100,63.3,97.9,63.3,95.7z M51.8,102.1h-7.8l0-12.7h7c3.9,0,6.1,0.5,7.8,1.7c0.4,0.3,0.8,0.7,1.2,1.1
		c2,2.4,1.7,6-0.8,8C57.7,101.4,55.3,102.1,51.8,102.1z"/>
</g>
</svg>
