<svg xmlns="http://www.w3.org/2000/svg" viewBox="0 0 97.6 38.6">
  <title>Artboard 1</title>
  <path d="M24.5,19.6H14.2v7.5l-.5-.5V12l.5-.5v7.6H24.5V11.5l.5.5V26.6l-.5.5ZM19.8,24a.5.5,0,0,0-1,0,.55.55,0,0,0,.3.5V35l-1.2-1.2V25.4l-.1-.1a2.05,2.05,0,0,1,0-2.9.21.21,0,0,0-.3-.3,2.46,2.46,0,0,0-.1,3.3v7.8l-1.1-1.1V27.6l.5-1.2-.7-1.2a.31.31,0,0,0-.2-.1,2.14,2.14,0,0,1,.1.6l.6,1-.5,1.1V32L7,22.9H9.9v1.6L12,26.8V24h-.4v1.8l-1.4-1.5V22.5H6.6L5.2,21.1h3a2.27,2.27,0,0,0,3.3-.1.21.21,0,0,0-.3-.3h0a2.05,2.05,0,0,1-2.9,0h0l-.1-.1H4.8L3.6,19.4H9.4a.54.54,0,1,0,.3-.7l-.3.3H3.6l1.2-1.2H8.3l.1-.1a2.05,2.05,0,0,1,2.9,0h0a.21.21,0,0,0,.3-.3h0a2.46,2.46,0,0,0-3.3-.1h-3l1.4-1.4h3.6V14.1l1.4-1.5v1.8H12V11.6L9.9,13.9v1.6h-3l9.2-9.2v4.2l.5,1.1-.6,1c-.1.1,0,.2.1.2h.1c.1,0,.1,0,.2-.1l.7-1.2-.5-1.2V6.2l1-1V13a2.27,2.27,0,0,0,.1,3.3.19.19,0,0,0,.3,0h0a.19.19,0,0,0,0-.3,2.05,2.05,0,0,1,0-2.9l.1-.1V4.8l1.2-1.2V14.2a.54.54,0,1,0,.7.3l-.3-.3V3.6l1.2,1.2v8.4l.1.1a2.05,2.05,0,0,1,0,2.9.21.21,0,1,0,.3.3h0a2.46,2.46,0,0,0,.1-3.3v-8l1.1,1.1v4.5L22,12l.7,1.2a.31.31,0,0,0,.2.1.31.31,0,0,0,.1-.2l-.6-1,.5-1.1V6.6l9.2,9.2h-3V14.2L27,11.9v2.8h0V12.9l1.4,1.5v1.8h3.7l1.4,1.4H30.4a2.27,2.27,0,0,0-3.3.1.19.19,0,0,0,0,.3h0a.19.19,0,0,0,.3,0,2.05,2.05,0,0,1,2.9,0h0l.1.1H34l1.2,1.2H29.3a.54.54,0,1,0-.3.7c.1-.1.3-.2.3-.3H35l-1.2,1.2H30.2l-.1.1a2.05,2.05,0,0,1-2.9,0h0a.19.19,0,0,0-.3,0c-.1.1.1,0,.1,0a2.46,2.46,0,0,0,3.3.1h3.1L32,22.5H28.3v1.8L27,25.8V24h-.4v2.8l2.1-2.3V22.9h3l-9.2,9.2V27.9L22,26.7l.6-1c0-.1,0-.2-.1-.2s-.2,0-.2.1l-.7,1.2.5,1.2v4.5l-1,1V25.7a2.27,2.27,0,0,0-.1-3.3.21.21,0,0,0-.3.3,2.05,2.05,0,0,1,0,2.9l-.1.1v8.4l-1.1.9V24.5A.55.55,0,0,0,19.8,24Zm3.7-3.5v8.8l2.4-2.4V11.6L23.5,9.2v8.9H15.1V9.2l-2.4,2.4V27l2.4,2.4V20.6h8.4ZM19.3,0,38.6,19.3,19.3,38.6,0,19.3Zm0,36.6.7-.7L35.9,20l.7-.7-.7-.7L20,2.7,19.3,2l-.7.7L2.7,18.6l-.7.7.7.7L18.6,35.9Zm29-16.7a8.36,8.36,0,0,0-3.1.8,1.29,1.29,0,0,0-1.4-.8,7.41,7.41,0,0,0-3,.8l-.1-.7H39.6v7.6h1.3V21.9a7.32,7.32,0,0,1,2.5-.8c.5,0,.7.2.7.7v5.8h1.3V21.9a7.32,7.32,0,0,1,2.5-.8c.5,0,.7.2.7.7v5.8H50V21.8C50,20.7,49.5,19.9,48.3,19.9Zm9.5,2.9v1.6H53.3V25c0,1.2.3,1.7,1.8,1.7a6.72,6.72,0,0,0,2.4-.4l.2,1a8.42,8.42,0,0,1-2.7.4c-2.2,0-3-1.1-3-2.8V22.6c0-1.6.7-2.8,3-2.8S57.8,21.2,57.8,22.8Zm-1.3-.1c0-1.1-.4-1.6-1.6-1.6s-1.7.6-1.7,1.6v.6h3.2Zm12.1-2.8a8.36,8.36,0,0,0-3.1.8,1.29,1.29,0,0,0-1.4-.8,8.51,8.51,0,0,0-3.1.9l-.1-.7H59.8v7.6h1.3V22a7.32,7.32,0,0,1,2.5-.8c.5,0,.7.2.7.7v5.8h1.3V22a7.32,7.32,0,0,1,2.5-.8c.5,0,.7.2.7.7v5.8h1.3V21.9C70.3,20.7,69.9,19.9,68.6,19.9Zm10,2.4v3.1a2.24,2.24,0,0,1-1.8,2.5h-.6a18,18,0,0,1-2.2-.2v3.1l-1.3.2V20.1h1.1l.1.7a3.75,3.75,0,0,1,2.5-.8C77.9,19.9,78.6,20.7,78.6,22.3Zm-1.3,0c0-.8-.2-1.2-1.2-1.2A3.12,3.12,0,0,0,74,22v4.4a14.92,14.92,0,0,0,2.1.2c.9,0,1.2-.4,1.2-1.3Zm7.8-2.4a7.4,7.4,0,0,0-2.9.8V16.8l-1.4.2V27.7h1.3V22a7.32,7.32,0,0,1,2.5-.8c.5,0,.7.2.7.7v5.8h1.3V21.9C86.7,20.7,86.3,19.9,85.1,19.9Zm4-1h1.3V17H89.1Zm0,8.8h1.3V20.1H89.1Zm6.2-4.4C94,23,94,22.8,94,22s.2-.9,1.3-.9a14.92,14.92,0,0,1,2.1.2l.1-1.1a7.61,7.61,0,0,0-2.1-.3c-2,0-2.6.6-2.6,2,0,1.6.2,2,2.1,2.4,1.5.4,1.6.5,1.6,1.3s-.2,1-1.4,1a8.33,8.33,0,0,1-2.2-.3l-.2,1a6.72,6.72,0,0,0,2.4.4c2.2,0,2.6-.7,2.6-2.2S97.4,23.9,95.3,23.3ZM40.5,15H44v3.6h1V10.7H44v3.4H40.5V10.7h-1v7.9h1ZM52,18.5l-.6-1.9H48l-.6,1.9h-1l2.7-7.9h1.4l2.7,7.9Zm-.9-2.7-1.4-4.4-1.4,4.4Zm5.8-4.3a11,11,0,0,1,1.8.2l.1-.9a13.55,13.55,0,0,0-2-.2c-1.9,0-2.7.8-2.7,2.3v3.5c0,1.5.8,2.3,2.7,2.3a13.55,13.55,0,0,0,2-.2l-.1-.9a11,11,0,0,1-1.8.2c-1.3,0-1.7-.4-1.7-1.5V12.9C55.1,11.8,55.6,11.5,56.9,11.5Zm9,7-3.1-4,2.9-3.9H64.5l-2.8,3.9,3,4Zm-4.5-7.8h-1v7.9h1Z" fill="#fff"/>
</svg>
