<svg xmlns="http://www.w3.org/2000/svg" viewBox="0 0 512 128">
  <title>rocketfuel-color</title>
  <path d="M512,56a8,8,0,1,1-8-8h.08A7.93,7.93,0,0,1,512,55.94h0Zm-14,0a6.15,6.15,0,0,0,5.93,6.37h.16A6,6,0,0,0,510,56.29a1.41,1.41,0,0,0,0-.29,6,6,0,0,0-12,0Zm4.8,4.13H501v-8a21.54,21.54,0,0,1,3-.24,4,4,0,0,1,2.66.63,2,2,0,0,1,.81,1.71,2.06,2.06,0,0,1-1.61,1.9v.09c.76.24,1.14.88,1.38,1.94a7.36,7.36,0,0,0,.56,2h-1.89a6.12,6.12,0,0,1-.62-2c-.14-.82-.62-1.21-1.62-1.21h-.85Zm0-4.48h.86c1,0,1.81-.34,1.81-1.16s-.52-1.21-1.67-1.21a4.19,4.19,0,0,0-1,.09Z" fill="#127abe"/>
  <path d="M1.6,118.47h9.48l11.4-58.32H13L14.7,52H47.83c4.9,0,9.69.42,13.42,2.32C66.36,57,70.1,62.16,70.1,70.09A24.78,24.78,0,0,1,50.39,94.44v.32a18.6,18.6,0,0,1,2.55,4l5.86,15c1.17,3,2.13,4.88,6.07,4.88,1.28,0,3.09-.22,3.09-.22l-1.6,8.26c-.85.11-3.41.21-5,.21-8.53,0-11-4.65-13-10L42.29,100.8c-1.28-3.5-3.09-4.24-6.71-4.24H26.1l-4.37,21.91h9.16l-1.6,8.26H0ZM42.5,87.88c8.84,0,16.73-6.56,16.73-16.41,0-4.34-1.49-7.19-4-8.78-2.24-1.49-5.75-2-9.59-2H33L27.7,87.88Z" fill="#58595b"/>
  <path d="M99.18,71.89c14.6,0,24.82,9.53,24.82,23.4C124,113.92,107.49,128,90,128c-14.59,0-24.82-9.63-24.82-23.61C65.2,86,81.61,71.89,99.18,71.89Zm-8.31,47.22c11.19,0,22.59-10.06,22.59-23.29,0-8.9-6.18-15-15.13-15-11.29,0-22.58,10-22.58,23.18C75.75,113,81.92,119.11,90.87,119.11Z" fill="#58595b"/>
  <path d="M159.48,71.89c7.78,0,20.67,3.08,19,12.6l-1.27,6.14H168l.75-3.59c.74-4.35-5.22-6.25-10.34-6.25-11.71,0-22.68,10.58-22.68,23,0,9.32,6.07,15.35,16.08,15.35,10.76,0,18.43-7,18.43-7l3,7.94S165,128,150.85,128c-15.76,0-25.67-9.53-25.67-23.5C125.18,87.14,140.42,71.89,159.48,71.89Z" fill="#58595b"/>
  <path d="M187.76,59.94h-8.94L180.31,52h19.38l-8.2,41.81h6.82l13.74-12.7h-6.71l1.49-7.94h24.08l-1.6,7.94H223L205.66,97.2v.21a11.71,11.71,0,0,1,2.88,4.23l5.86,12.81c1.06,2.54,2.24,4.44,6,4.44.75,0,3-.1,3-.1l-1.49,7.94a45.86,45.86,0,0,1-4.69.21c-8.62,0-10.22-4.24-12.57-9.52l-6-13.24c-.85-1.9-1.92-2.54-4.37-2.54H190l-5.11,25.09H174.66Z" fill="#58595b"/>
  <path d="M253.71,71.89c13.84,0,20.45,8.26,20.45,19.8a32.8,32.8,0,0,1-1.71,9.21H233.26a18.09,18.09,0,0,0-.43,3.81c0,8.26,5.43,14.4,15.34,14.4,9.27,0,17.25-6.14,17.25-6.14l2.88,8s-9.05,7-20.67,7c-15.76,0-25.35-9.53-25.35-22.87C222.28,87.35,235.6,71.89,253.71,71.89Zm9.8,22.45a22.89,22.89,0,0,0,.32-3.5c0-7.19-4.27-10.79-10.44-10.79-7.89,0-15.34,5.19-18.64,14.29Z" fill="#58595b"/>
  <path d="M277.36,106.09l4.9-25h-9.05l1.6-7.94h9.26L287,58.46h10l-2.88,14.71h13l-1.6,7.94h-13l-4.79,25a20.43,20.43,0,0,0-.42,4.12c0,7.31,4.9,8.48,9,8.48a20.09,20.09,0,0,0,3-.22L297.6,127a32.34,32.34,0,0,1-3.41.21c-8.31,0-17.36-3-17.36-15.67A26.93,26.93,0,0,1,277.36,106.09Z" fill="#58595b"/>
  <path d="M302.08,118.47h9.37l11.4-58.32h-9.48l1.7-8.15h52.1l-3.52,17.67h-9.27l1.7-8.57H333.29L328.5,85.87H355l-1.81,8.68H326.68l-4.57,23.92h10.11l-1.6,8.26H300.48Z" fill="#127abe"/>
  <path d="M360.3,107.15l5-26h-8.95l1.6-7.94h19.28L371.06,105a27.71,27.71,0,0,0-.86,6.14c0,4.66,2,7.52,8.1,7.52,10.76,0,19.49-11,21.41-21.18l3.2-16.4h-9l1.6-7.94h19.27L407.33,111a19,19,0,0,0-.32,3.28c0,3.81,2.13,4.66,4.8,4.66a13.64,13.64,0,0,0,2.55-.21l-1.6,7.94s-2.34.21-4.9.21c-7.24,0-11.5-3.71-10.76-11.75h-.21C393.43,120.7,386,128,374.68,128c-8.2,0-15.13-4-15.13-14.08A31.42,31.42,0,0,1,360.3,107.15Z" fill="#127abe"/>
  <path d="M446.24,71.89c13.84,0,20.45,8.26,20.45,19.8A32.78,32.78,0,0,1,465,100.9H425.79a18.09,18.09,0,0,0-.43,3.81c0,8.26,5.43,14.4,15.33,14.4C450,119.11,458,113,458,113l2.88,8s-9.06,7-20.67,7c-15.76,0-25.35-9.53-25.35-22.87C414.81,87.35,428.12,71.89,446.24,71.89ZM456,94.34a22.9,22.9,0,0,0,.33-3.5c0-7.19-4.27-10.79-10.45-10.79-7.88,0-15.33,5.19-18.64,14.29Z" fill="#127abe"/>
  <path d="M468.05,111.48l10.12-51.54h-9.05l1.6-7.94H490l-11.3,58.53a17.48,17.48,0,0,0-.53,3.6c0,3.92,2.13,4.44,4.9,4.44a13.74,13.74,0,0,0,2.56-.2l-1.71,8.47s-2.13.2-4.25.2c-5.22,0-12.15-1.27-12.15-10.69A29.5,29.5,0,0,1,468.05,111.48Z" fill="#127abe"/>
  <path d="M497.09,24.65A130.27,130.27,0,0,0,439.23,11.2c-4.16,0-8.27.21-12.33.59C416.5,4.41,405.77.05,392,0c5.79,4.46,8.78,9.9,12.72,16.05a61.71,61.71,0,0,0,0,23.92c-3.94,6.15-6.93,11.56-12.72,16,13.76,0,24.49-4.41,34.89-11.79,4.06.38,8.17.59,12.34.59a130.27,130.27,0,0,0,57.86-13.45A110.28,110.28,0,0,1,512,28,107.09,107.09,0,0,1,497.09,24.65ZM448,36a8,8,0,1,1,8-8A8,8,0,0,1,448,36Z" fill="#127abe"/>
  <path d="M399.19,31.66c-.07-1.21-.12-2.43-.12-3.66s.05-2.45.12-3.66A64.6,64.6,0,0,1,400,17c-2.5.81-5,1.7-7.4,2.65q-3.32,1.29-6.54,2.75a8.63,8.63,0,0,0,0,11.2c2.15,1,4.32,1.88,6.53,2.75C395,37.3,397.5,38.19,400,39A64.6,64.6,0,0,1,399.19,31.66Z" fill="#127abe"/>
  <path d="M374,22,4,28l370,6a6,6,0,0,0,0-12Z" fill="#127abe"/>
</svg>
