<svg xmlns="http://www.w3.org/2000/svg" viewBox="0 0 432 102.32">
  <title>tech901-logo-color</title>
  <polygon points="104.46 66.4 104.46 22.48 88.67 22.48 88.67 18.12 125.04 18.12 125.04 22.48 109.25 22.48 109.25 66.4 104.46 66.4" fill="#0c3b60"/>
  <polygon points="173.43 62.03 148.19 62.03 148.19 43.42 171.02 43.42 171.02 39.07 148.19 39.07 148.19 22.49 172.63 22.49 172.63 18.13 143.4 18.13 143.4 66.39 173.43 66.39 173.43 62.03" fill="#0c3b60"/>
  <path d="M195.78,60.44a23.28,23.28,0,0,0,7.79,5.28,25.28,25.28,0,0,0,9.86,1.91,22.48,22.48,0,0,0,5.89-.73,21.25,21.25,0,0,0,4.93-2A18.88,18.88,0,0,0,228.18,62a19.72,19.72,0,0,0,2.89-3.49l-3.72-2.44a14.81,14.81,0,0,1-6.13,5.45,17.93,17.93,0,0,1-7.72,1.71,19,19,0,0,1-8.17-1.7A18.55,18.55,0,0,1,199.17,57a20.63,20.63,0,0,1-3.89-6.69,23.66,23.66,0,0,1-1.37-8,24.07,24.07,0,0,1,1.34-8,20,20,0,0,1,3.86-6.69,18.72,18.72,0,0,1,6.16-4.6,19.24,19.24,0,0,1,8.23-1.69,15.89,15.89,0,0,1,4.23.54,18.81,18.81,0,0,1,3.62,1.43,13.12,13.12,0,0,1,2.9,2.05,12.06,12.06,0,0,1,2,2.32l4-3a14.16,14.16,0,0,0-3-3.18,19.53,19.53,0,0,0-4-2.41,23.78,23.78,0,0,0-9.79-2.11,24.41,24.41,0,0,0-9.76,1.91,23.63,23.63,0,0,0-7.79,5.28,24.35,24.35,0,0,0-5.17,8,26.92,26.92,0,0,0-1.86,10.16,27.17,27.17,0,0,0,1.84,10.16,23.9,23.9,0,0,0,5.09,8" fill="#0c3b60"/>
  <polygon points="278.38 39.06 252.68 39.06 252.68 18.12 247.88 18.12 247.88 66.4 252.68 66.4 252.68 43.56 278.38 43.56 278.38 66.4 283.18 66.4 283.18 18.12 278.38 18.12 278.38 39.06" fill="#0c3b60"/>
  <path d="M334,21.46h0A17.23,17.23,0,0,0,328.09,18a22.39,22.39,0,0,0-14.42,0,17.69,17.69,0,0,0-5.92,3.44,16.26,16.26,0,0,0-4,5.52,17.81,17.81,0,0,0-1.47,7.37,16.06,16.06,0,0,0,1.26,6.45,15.68,15.68,0,0,0,3.39,5A14.85,14.85,0,0,0,311.87,49a15.8,15.8,0,0,0,5.92,1.12,10.6,10.6,0,0,0,1.69-.13,8.38,8.38,0,0,0,1.64-.41l-.14.2L309.25,66.4h13.51L334.14,49a45.58,45.58,0,0,0,3.79-7.14,20,20,0,0,0,1.46-7.8,16.94,16.94,0,0,0-1.46-7.16A16.7,16.7,0,0,0,334,21.46Zm-7.78,18a7.28,7.28,0,0,1-5.43,2.12,7,7,0,0,1-5.34-2.14,7.63,7.63,0,0,1-2-5.43,7.85,7.85,0,0,1,2-5.63,7.19,7.19,0,0,1,5.46-2.15,6.77,6.77,0,0,1,5.38,2.29,8.09,8.09,0,0,1,2,5.42A7.52,7.52,0,0,1,326.2,39.46Z" fill="#81bd41"/>
  <path d="M390.23,32.4a24.57,24.57,0,0,0-3.19-8,15.88,15.88,0,0,0-14.19-7.54,16.09,16.09,0,0,0-14.28,7.54,23.92,23.92,0,0,0-3.23,8,46.09,46.09,0,0,0-1,9.72,46.9,46.9,0,0,0,1,9.75A24.7,24.7,0,0,0,358.57,60a16.93,16.93,0,0,0,5.76,5.59,18.43,18.43,0,0,0,17,0A16.84,16.84,0,0,0,387,60a25.24,25.24,0,0,0,3.19-8.15,47.89,47.89,0,0,0,0-19.47ZM379.51,47.19a25.48,25.48,0,0,1-1,5.12,11.1,11.1,0,0,1-2.09,4,4.81,4.81,0,0,1-7.16,0,11,11,0,0,1-2.16-4,22.91,22.91,0,0,1-1-5.12q-.27-2.74-.27-5.07a48,48,0,0,1,.27-5,22.68,22.68,0,0,1,1-5.08,11,11,0,0,1,2.16-4,4.81,4.81,0,0,1,7.16,0,11.06,11.06,0,0,1,2.09,4,26,26,0,0,1,1,5.08q.27,2.73.27,5T379.51,47.19Z" fill="#81bd41"/>
  <polygon points="432 66.4 432 18.12 421.8 18.12 406.29 29.79 412.08 37.89 420.88 30.94 420.88 66.4 432 66.4" fill="#81bd41"/>
  <path d="M29.6,27.86V17.44a22.89,22.89,0,0,0,8.77,44.18,22.89,22.89,0,0,0,8.77-44.18V27.86a13.81,13.81,0,0,1,5.3,10.82,14.07,14.07,0,0,1-28.13,0A13.74,13.74,0,0,1,29.6,27.86" fill="#81bd41"/>
  <path d="M32.15,76.56l6.16-8.64A29.31,29.31,0,1,1,61.91,56l-33,46.33H40.1l29.18-41a38.34,38.34,0,1,0-37.13,15.2" fill="#0c3b60"/>
  <rect x="33.72" y="16.86" width="9.3" height="30.23" fill="#81bd41"/>
</svg>
