<svg xmlns="http://www.w3.org/2000/svg" viewBox="0 0 97.6 38.6">
  <title>Artboard 2</title>
  <g>
    <g>
      <polygon points="15.1 19.1 14.2 19.1 14.2 18.1 14.2 11.5 13.7 12 13.7 26.6 14.2 27.1 14.2 20.5 14.2 19.6 15.1 19.6 23.5 19.6 24.5 19.6 24.5 20.5 24.5 27.1 24.9 26.6 24.9 12 24.5 11.5 24.5 18.1 24.5 19.1 23.5 19.1 15.1 19.1" fill="#f26522"/>
      <path d="M28.7,18.8a.55.55,0,0,1,.5.3h5.9l-1.2-1.2H30.3l-.1-.1a1.93,1.93,0,0,0-2.8,0,.21.21,0,0,1-.3-.3,2.19,2.19,0,0,1,1.7-.7,2.27,2.27,0,0,1,1.6.6h3.1L32.1,16H28.4V14.2L27,12.8v1.8h-.4V11.8l2.1,2.3v1.6h3L22.5,6.5v4.2L22,11.9l.6,1c0,.1,0,.2-.1.2h-.1c-.1,0-.1,0-.2-.1l-.7-1.2.5-1.2V6.2L20.9,5.1V13a2.27,2.27,0,0,1-.1,3.3l-.1.1a.1.1,0,0,1-.1-.1.19.19,0,0,1,0-.3,2.05,2.05,0,0,0,0-2.9l-.1-.1V4.8L19.3,3.6V14.2a.55.55,0,0,1,.3.5.5.5,0,0,1-1,0,.55.55,0,0,1,.3-.5V3.6L17.7,4.8v8.3l-.1.1a2.05,2.05,0,0,0,0,2.9.19.19,0,0,1,0,.3l-.1.1a.1.1,0,0,1-.1-.1,2.46,2.46,0,0,1-.1-3.3V5.2l-1,1v4.5l.5,1.2-.7,1.2c0,.1-.1.1-.2.1h-.1c.2-.1.2-.2.2-.3l.6-1-.5-1.1V6.6L6.9,15.8H9.8V14.2l2.1-2.3v2.8h-.4V12.9l-1.4,1.5v1.8H6.6L5.2,17.6h3A2.27,2.27,0,0,1,9.8,17h0a2.34,2.34,0,0,1,1.7.7.21.21,0,1,1-.3.3,1.93,1.93,0,0,0-2.8,0l-.1.1H4.8L3.6,19.3H9.4a.55.55,0,0,1,.5-.3.5.5,0,0,1,0,1,.55.55,0,0,1-.5-.3H3.6l1.2,1.2H8.3l.1.1a1.93,1.93,0,0,0,2.8,0,.21.21,0,1,1,.3.3,2.34,2.34,0,0,1-1.7.7,2.27,2.27,0,0,1-1.6-.6h-3l1.4,1.4h3.6v1.8l1.4,1.5V24H12v2.8L9.9,24.5V22.9H7l9.2,9.2V27.9l.5-1.1-.6-1c-.1-.1,0-.2.1-.2s.2,0,.2.1l.7,1.2-.5,1.2v4.5l1.1,1.1V25.9a2.27,2.27,0,0,1,.1-3.3.21.21,0,1,1,.3.3,2.05,2.05,0,0,0,0,2.9l.1.1v8.4l1.2,1.2v-11a.55.55,0,0,1-.3-.5.5.5,0,0,1,1,0,.55.55,0,0,1-.3.5V35L21,33.8V25.4l.1-.1a2.05,2.05,0,0,0,0-2.9.21.21,0,0,1,.3-.3,2.46,2.46,0,0,1,.1,3.3v7.8l1-1V27.7L22,26.5l.7-1.2c0-.1.2-.1.2-.1a.31.31,0,0,1,.1.2l-.6,1,.5,1.1v4.2l9.2-9.2h-3v1.6L27,26.4V24h0v1.8l1.4-1.5V22.5H32l1.4-1.4H30.3a2.27,2.27,0,0,1-1.6.6h0A2.34,2.34,0,0,1,27,21v-.2a.19.19,0,0,1,.3,0,1.93,1.93,0,0,0,2.8,0l.1-.1h3.6L35,19.5H29.2a.55.55,0,0,1-.5.3.47.47,0,0,1-.5-.5A.54.54,0,0,1,28.7,18.8ZM25.9,27l-2.4,2.4V20.6H15.1v8.8L12.7,27V11.6l2.4-2.4v8.9h8.4V9.2l2.4,2.4Z" fill="#fff"/>
      <path d="M19.3,1.4l-18,18,18,18,18-18ZM20,35.9l-.7.7-.7-.7L2.7,20,2,19.3l.7-.7L18.6,2.7l.7-.7.7.7L35.9,18.6l.7.7-.7.7Z" fill="#f26522"/>
      <path d="M19.3,0,0,19.3,19.3,38.6,38.6,19.3ZM1.4,19.3l18-18,18,18-18,18Z"/>
      <path d="M35.9,18.6,20,2.7,19.3,2l-.7.7L2.7,18.6l-.7.7.7.7L18.6,35.9l.7.7.7-.7L35.9,20l.7-.7Zm-7.2,1.2a.55.55,0,0,0,.5-.3H35l-1.2,1.2H30.2l-.1.1a1.93,1.93,0,0,1-2.8,0,.19.19,0,0,0-.3,0V21a2.19,2.19,0,0,0,1.7.7h0a2.27,2.27,0,0,0,1.6-.6h3.1L32,22.5H28.3v1.8L27,25.8V24h-.4v2.8l2.1-2.3V22.9h3l-9.2,9.2V27.9L22,26.7l.6-1c0-.1,0-.2-.1-.2s-.2,0-.2.1l-.7,1.2.5,1.2v4.5l-1,1V25.7a2.27,2.27,0,0,0-.1-3.3.21.21,0,0,0-.3.3,2.05,2.05,0,0,1,0,2.9l-.1.1v8.4l-1.1.9V24.5a.55.55,0,0,0,.3-.5.5.5,0,0,0-1,0,.55.55,0,0,0,.3.5V35l-1.2-1.2V25.4l-.1-.1a2.05,2.05,0,0,1,0-2.9.21.21,0,0,0-.3-.3,2.46,2.46,0,0,0-.1,3.3v7.8l-1.1-1.1V27.6l.5-1.2-.7-1.2c0-.1-.2-.1-.2-.1a2.14,2.14,0,0,1,.1.6l.6,1-.5,1.1V32L7,22.9H9.9v1.6L12,26.8V24h-.4v1.8l-1.4-1.5V22.5H6.6L5.2,21.1h3a2.27,2.27,0,0,0,1.6.6,2.34,2.34,0,0,0,1.7-.7.21.21,0,0,0-.3-.3,1.93,1.93,0,0,1-2.8,0l-.1-.1H4.8L3.6,19.4H9.4a.55.55,0,0,0,.5.3.5.5,0,1,0,0-1,.55.55,0,0,0-.5.3H3.6l1.2-1.2H8.3l.1-.1a1.93,1.93,0,0,1,2.8,0,.21.21,0,0,0,.3-.3,2.34,2.34,0,0,0-1.7-.7h0a2.27,2.27,0,0,0-1.6.6h-3l1.4-1.4h3.6V14.1l1.4-1.5v1.8H12V11.6L9.9,13.9v1.6h-3l9.2-9.2v4.2l.5,1.1-.6,1c-.1.1,0,.2.1.2h.1c.1,0,.1,0,.2-.1l.7-1.2-.5-1.2V6.2l1-1V13a2.27,2.27,0,0,0,.1,3.3l.1.1a.1.1,0,0,0,.1-.1.19.19,0,0,0,0-.3,2.05,2.05,0,0,1,0-2.9L18,13V4.8l1.2-1.2V14.2a.55.55,0,0,0-.3.5.5.5,0,0,0,1,0,.55.55,0,0,0-.3-.5V3.6l1.2,1.2v8.4l.1.1a2.05,2.05,0,0,1,0,2.9.19.19,0,0,0,0,.3l.1.1a.1.1,0,0,0,.1-.1,2.46,2.46,0,0,0,.1-3.3v-8l1.1,1.1v4.5L21.8,12l.7,1.2c0,.1.1.1.2.1h.1c.1,0,.1-.2.1-.2l-.6-1,.5-1.1V6.6L32,15.8H29V14.2l-2.1-2.3v2.8H27V12.9l1.4,1.5v1.8h3.7l1.4,1.4H30.4a2.27,2.27,0,0,0-1.6-.6,2.34,2.34,0,0,0-1.7.7.21.21,0,1,0,.3.3,1.93,1.93,0,0,1,2.8,0l.1.1h3.6l1.2,1.2H29.2a.55.55,0,0,0-.5-.3.47.47,0,0,0-.5.5C28.2,19.8,28.4,19.8,28.7,19.8Z"/>
      <path d="M23.5,18.1H15.1V9.2l-2.4,2.4V27l2.4,2.4V20.6h8.4v8.8L25.9,27V11.6L23.5,9.2Zm1,0V11.5l.5.5V26.6l-.5.4V19.5H14.1V27l-.5-.5V12l.5-.5v7.6H24.5Z"/>
    </g>
    <g>
      <path d="M48.7,27.7V21.9c0-.5-.2-.7-.7-.7a5.56,5.56,0,0,0-2.5.8v5.7H44.2V21.9c0-.5-.2-.7-.7-.7A5.56,5.56,0,0,0,41,22v5.7H39.7V20.1h1.1l.1.7a7.87,7.87,0,0,1,3-.8,1.31,1.31,0,0,1,1.4.8,8.89,8.89,0,0,1,3.1-.8c1.2,0,1.6.8,1.6,1.9v5.8Z"/>
      <path d="M55.1,26.7a7.1,7.1,0,0,0,2.4-.4l.2,1a7.32,7.32,0,0,1-2.7.4c-2.2,0-3-1.1-3-2.8V22.6c0-1.6.7-2.8,3-2.8s2.8,1.3,2.8,2.9v1.6H53.3V25C53.3,26.2,53.6,26.7,55.1,26.7Zm-1.8-3.4h3.2v-.6c0-1.1-.4-1.6-1.6-1.6s-1.7.6-1.7,1.6C53.3,22.7,53.3,23.3,53.3,23.3Z"/>
      <path d="M69,27.7V21.9c0-.5-.2-.7-.7-.7a5.56,5.56,0,0,0-2.5.8v5.7H64.5V21.9c0-.5-.2-.7-.7-.7a5.56,5.56,0,0,0-2.5.8v5.7H60V20.1h1.1l.1.7a7.87,7.87,0,0,1,3-.8,1.31,1.31,0,0,1,1.4.8,8.89,8.89,0,0,1,3.1-.8c1.2,0,1.6.8,1.6,1.9v5.8Z"/>
      <path d="M78.6,25.3a2.22,2.22,0,0,1-2.5,2.5,15,15,0,0,1-2.2-.2v3.1l-1.3.2V20.1h1.1l.1.7a3.94,3.94,0,0,1,2.5-.8c1.5,0,2.2.8,2.2,2.3l.1,3ZM74,26.4a18.32,18.32,0,0,0,2.1.2c.9,0,1.2-.4,1.2-1.3V22.2c0-.8-.2-1.2-1.2-1.2a3.33,3.33,0,0,0-2.1.9v4.5Z"/>
      <path d="M85.4,27.7V21.9c0-.5-.2-.7-.7-.7a7.18,7.18,0,0,0-2.5.8v5.7H80.9V17l1.3-.2v3.9a7.4,7.4,0,0,1,2.9-.8c1.2,0,1.6.8,1.6,1.9v5.8l-1.3.1Z"/>
      <path d="M89.1,18.9V17h1.3v1.9Zm0,8.8V20.1h1.3v7.6Z"/>
      <path d="M95,27.8a8.6,8.6,0,0,1-2.4-.4l.2-1a8.33,8.33,0,0,0,2.2.3c1.2,0,1.4-.2,1.4-1s-.1-.9-1.6-1.3c-1.9-.5-2.1-.9-2.1-2.4s.6-2,2.6-2a7.11,7.11,0,0,1,2.1.3l-.1,1.1a14.92,14.92,0,0,0-2.1-.2c-1.1,0-1.3.3-1.3.9,0,.8,0,1,1.3,1.3,2.2.5,2.3.8,2.3,2.3S97.2,27.8,95,27.8Z"/>
    </g>
    <g>
      <path d="M44,18.5V15H40.5v3.6h-1V10.7h1v3.4H44V10.7h1v7.9H44Z"/>
      <path d="M53,18.5H52l-.6-1.9H48l-.6,1.9h-1l2.7-7.9h1.4Zm-3.3-7.1-1.4,4.4h2.8Z"/>
      <path d="M55.1,16.3c0,1.1.4,1.5,1.7,1.5a12.37,12.37,0,0,0,1.8-.2l.1.9a13.55,13.55,0,0,1-2,.2c-1.9,0-2.7-.8-2.7-2.3V12.9c0-1.5.8-2.3,2.7-2.3a13.55,13.55,0,0,1,2,.2l-.1.9a14.05,14.05,0,0,0-1.8-.2c-1.3,0-1.7.4-1.7,1.5Z"/>
      <path d="M61.4,18.5h-1V10.6h1Zm1.4-4,3.1,4H64.7l-3-4,2.8-3.9h1.2Z"/>
    </g>
  </g>
</svg>
