<?xml version="1.0" encoding="utf-8"?>
<!-- Generator: Adobe Illustrator 22.0.1, SVG Export Plug-In . SVG Version: 6.00 Build 0)  -->
<svg version="1.1" id="Layer_1" xmlns="http://www.w3.org/2000/svg" xmlns:xlink="http://www.w3.org/1999/xlink" x="0px" y="0px"
	 viewBox="0 0 97.6 38.6" style="enable-background:new 0 0 97.6 38.6;" xml:space="preserve">
<style type="text/css">
	.st0{fill:#FFFFFF;}
</style>
<title>Artboard 1</title>
<path class="st0" d="M24.5,19.6H14.2v7.5l-0.5-0.5V12l0.5-0.5v7.6h10.3v-7.6l0.5,0.5v14.6l-0.5,0.5V19.6z M19.8,24
	c0-0.3-0.2-0.5-0.5-0.5c-0.3,0-0.5,0.2-0.5,0.5c0,0.2,0.1,0.4,0.3,0.5V35l-1.2-1.2v-8.4l-0.1-0.1c-0.8-0.8-0.8-2.1,0-2.9
	c0.1-0.1,0.1-0.2,0-0.3c-0.1-0.1-0.2-0.1-0.3,0c-0.9,0.9-0.9,2.4-0.1,3.3v7.8l-1.1-1.1v-4.5l0.5-1.2l-0.7-1.2
	c-0.1-0.1-0.2-0.1-0.2-0.1C16,25.5,16,25.6,16,25.7l0.6,1l-0.5,1.1V32L7,22.9h2.9v1.6l2.1,2.3V24h-0.4v1.8l-1.4-1.5v-1.8H6.6
	l-1.4-1.4h3c0.9,0.9,2.4,0.9,3.3-0.1c0.1-0.1,0.1-0.2,0-0.3c-0.1-0.1-0.2-0.1-0.3,0l0,0c-0.8,0.8-2.1,0.8-2.9,0c0,0,0,0,0,0
	l-0.1-0.1H4.8l-1.2-1.2h5.8c0.1,0.3,0.4,0.4,0.7,0.3c0.3-0.1,0.4-0.4,0.3-0.7c-0.1-0.3-0.4-0.4-0.7-0.3c-0.1,0.1-0.2,0.2-0.3,0.3
	H3.6l1.2-1.2h3.5l0.1-0.1c0.8-0.8,2.1-0.8,2.9,0c0,0,0,0,0,0c0.1,0.1,0.2,0.1,0.3,0c0.1-0.1,0.1-0.2,0-0.3c0,0,0,0,0,0
	c-0.9-0.9-2.4-0.9-3.3-0.1h-3l1.4-1.4h3.6v-1.8l1.4-1.5v1.8H12v-2.8l-2.1,2.3v1.6H6.9l9.2-9.2v4.2l0.5,1.1l-0.6,1
	c-0.1,0.1,0,0.2,0.1,0.2c0,0,0,0,0,0c0,0,0.1,0,0.1,0c0.1,0,0.1,0,0.2-0.1l0.7-1.2l-0.5-1.2V6.2l1-1V13c-0.9,0.9-0.9,2.4,0.1,3.3
	c0.1,0.1,0.2,0.1,0.3,0c0,0,0,0,0,0c0.1-0.1,0.1-0.2,0-0.3c-0.8-0.8-0.8-2.1,0-2.9l0.1-0.1V4.8l1.2-1.2v10.6
	c-0.3,0.1-0.4,0.4-0.3,0.7c0.1,0.3,0.4,0.4,0.7,0.3c0.3-0.1,0.4-0.4,0.3-0.7c-0.1-0.1-0.2-0.2-0.3-0.3V3.6l1.2,1.2v8.4l0.1,0.1
	c0.8,0.8,0.8,2.1,0,2.9c-0.1,0.1-0.1,0.2,0,0.3s0.2,0.1,0.3,0c0,0,0,0,0,0c0.9-0.9,0.9-2.4,0.1-3.3V5.2l1.1,1.1v4.5l-0.5,1.2
	l0.7,1.2c0.1,0.1,0.2,0.1,0.2,0.1c0.1-0.1,0.1-0.2,0.1-0.2l-0.6-1l0.5-1.1V6.6l9.2,9.2h-3v-1.6l-2.1-2.3v2.8H27v-1.8l1.4,1.5v1.8
	h3.7l1.4,1.4h-3.1c-0.9-0.9-2.4-0.9-3.3,0.1c-0.1,0.1-0.1,0.2,0,0.3c0,0,0,0,0,0c0.1,0.1,0.2,0.1,0.3,0c0.8-0.8,2.1-0.8,2.9,0
	c0,0,0,0,0,0l0.1,0.1h3.6l1.2,1.2h-5.9c-0.1-0.3-0.4-0.4-0.7-0.3c-0.3,0.1-0.4,0.4-0.3,0.7c0.1,0.3,0.4,0.4,0.7,0.3
	c0.1-0.1,0.3-0.2,0.3-0.3H35l-1.2,1.2h-3.6l-0.1,0.1c-0.8,0.8-2.1,0.8-2.9,0c0,0,0,0,0,0c-0.1-0.1-0.2-0.1-0.3,0S27,21,27,21
	c0.9,0.9,2.4,0.9,3.3,0.1h3.1L32,22.5h-3.7v1.8L27,25.8V24h-0.4v2.8l2.1-2.3v-1.6h3l-9.2,9.2v-4.2L22,26.7l0.6-1
	c0-0.1,0-0.2-0.1-0.2c-0.1,0-0.2,0-0.2,0.1l-0.7,1.2l0.5,1.2v4.5l-1,1v-7.8c0.9-0.9,0.9-2.4-0.1-3.3c-0.1-0.1-0.2-0.1-0.3,0
	c-0.1,0.1-0.1,0.2,0,0.3c0.8,0.8,0.8,2.1,0,2.9l-0.1,0.1v8.4L19.5,35V24.5C19.7,24.4,19.8,24.2,19.8,24z M23.5,20.5v8.8l2.4-2.4
	V11.6l-2.4-2.4v8.9h-8.4V9.2l-2.4,2.4V27l2.4,2.4v-8.8H23.5z M19.3,0l19.3,19.3L19.3,38.6L0,19.3L19.3,0z M19.3,36.6l0.7-0.7
	L35.9,20l0.7-0.7l-0.7-0.7L20,2.7l-0.7-0.7l-0.7,0.7L2.7,18.6l-0.7,0.7L2.7,20l15.9,15.9L19.3,36.6z M48.3,19.9
	c-1.1,0.1-2.1,0.3-3.1,0.8c-0.3-0.6-0.8-0.9-1.4-0.8c-1.1,0.1-2.1,0.3-3,0.8l-0.1-0.7h-1.1v7.6h1.3v-5.7c0.8-0.4,1.6-0.7,2.5-0.8
	c0.5,0,0.7,0.2,0.7,0.7v5.8h1.3v-5.7c0.8-0.4,1.6-0.7,2.5-0.8c0.5,0,0.7,0.2,0.7,0.7v5.8H50v-5.8C50,20.7,49.5,19.9,48.3,19.9z
	 M57.8,22.8v1.6h-4.5V25c0,1.2,0.3,1.7,1.8,1.7c0.8,0,1.6-0.1,2.4-0.4l0.2,1c-0.9,0.3-1.8,0.4-2.7,0.4c-2.2,0-3-1.1-3-2.8v-2.3
	c0-1.6,0.7-2.8,3-2.8C57.2,19.9,57.8,21.2,57.8,22.8z M56.5,22.7c0-1.1-0.4-1.6-1.6-1.6c-1.2,0-1.7,0.6-1.7,1.6v0.6h3.2L56.5,22.7z
	 M68.6,19.9c-1.1,0.1-2.1,0.3-3.1,0.8c-0.3-0.6-0.8-0.9-1.4-0.8C63,20,62,20.3,61,20.8l-0.1-0.7h-1.1v7.6h1.3v-5.7
	c0.8-0.4,1.6-0.7,2.5-0.8c0.5,0,0.7,0.2,0.7,0.7v5.8h1.3v-5.7c0.8-0.4,1.6-0.7,2.5-0.8c0.5,0,0.7,0.2,0.7,0.7v5.8h1.3v-5.8
	C70.3,20.7,69.9,19.9,68.6,19.9z M78.6,22.3v3.1c0.2,1.2-0.7,2.3-1.8,2.5c-0.2,0-0.4,0-0.6,0c-0.7,0-1.4-0.1-2.2-0.2v3.1l-1.3,0.2
	V20.1h1.1l0.1,0.7c0.7-0.6,1.6-0.8,2.5-0.8C77.9,19.9,78.6,20.7,78.6,22.3z M77.3,22.3c0-0.8-0.2-1.2-1.2-1.2
	c-0.8,0-1.6,0.4-2.1,0.9v4.4c0.7,0.1,1.4,0.2,2.1,0.2c0.9,0,1.2-0.4,1.2-1.3V22.3z M85.1,19.9c-1,0.1-2,0.3-2.9,0.8v-3.9L80.8,17
	v10.7h1.3V22c0.8-0.4,1.6-0.7,2.5-0.8c0.5,0,0.7,0.2,0.7,0.7v5.8h1.3v-5.8C86.7,20.7,86.3,19.9,85.1,19.9z M89.1,18.9h1.3V17h-1.3
	L89.1,18.9z M89.1,27.7h1.3v-7.6h-1.3L89.1,27.7z M95.3,23.3C94,23,94,22.8,94,22c0-0.7,0.2-0.9,1.3-0.9c0.7,0,1.4,0.1,2.1,0.2
	l0.1-1.1c-0.7-0.2-1.4-0.3-2.1-0.3c-2,0-2.6,0.6-2.6,2c0,1.6,0.2,2,2.1,2.4c1.5,0.4,1.6,0.5,1.6,1.3s-0.2,1-1.4,1
	c-0.7,0-1.5-0.1-2.2-0.3l-0.2,1c0.8,0.3,1.6,0.4,2.4,0.4c2.2,0,2.6-0.7,2.6-2.2C97.6,24.1,97.4,23.9,95.3,23.3z M40.5,15H44v3.6h1
	v-7.9h-1v3.4h-3.5v-3.4h-1v7.9h1V15z M52,18.5l-0.6-1.9H48l-0.6,1.9h-1l2.7-7.9h1.4l2.7,7.9H52z M51.1,15.8l-1.4-4.4l-1.4,4.4
	L51.1,15.8z M56.9,11.5c0.6,0,1.2,0.1,1.8,0.2l0.1-0.9c-0.7-0.1-1.3-0.2-2-0.2c-1.9,0-2.7,0.8-2.7,2.3v3.5c0,1.5,0.8,2.3,2.7,2.3
	c0.7,0,1.3-0.1,2-0.2l-0.1-0.9c-0.6,0.1-1.2,0.2-1.8,0.2c-1.3,0-1.7-0.4-1.7-1.5v-3.4C55.1,11.8,55.6,11.5,56.9,11.5z M65.9,18.5
	l-3.1-4l2.9-3.9h-1.2l-2.8,3.9l3,4L65.9,18.5z M61.4,10.7h-1v7.9h1L61.4,10.7z"/>
</svg>
