<?xml version="1.0" encoding="utf-8"?>
<!-- Generator: Adobe Illustrator 22.0.1, SVG Export Plug-In . SVG Version: 6.00 Build 0)  -->
<svg version="1.1" id="Layer_1" xmlns="http://www.w3.org/2000/svg" xmlns:xlink="http://www.w3.org/1999/xlink" x="0px" y="0px"
	 viewBox="0 0 97.6 38.6" style="enable-background:new 0 0 97.6 38.6;" xml:space="preserve">
<style type="text/css">
	.st0{fill:#F26522;}
	.st1{fill:#FFFFFF;}
</style>
<g>
	<g>
		<polygon class="st0" points="15.1,19.1 14.2,19.1 14.2,18.1 14.2,11.5 13.7,12 13.7,26.6 14.2,27.1 14.2,20.5 14.2,19.6 
			15.1,19.6 23.5,19.6 24.5,19.6 24.5,20.5 24.5,27.1 24.9,26.6 24.9,12 24.5,11.5 24.5,18.1 24.5,19.1 23.5,19.1 		"/>
		<path class="st1" d="M28.7,18.8c0.2,0,0.4,0.1,0.5,0.3h5.9l-1.2-1.2h-3.6l-0.1-0.1c-0.4-0.4-0.9-0.6-1.4-0.6c-0.5,0-1,0.2-1.4,0.6
			c-0.1,0.1-0.2,0.1-0.3,0c-0.1-0.1-0.1-0.2,0-0.3c0.5-0.5,1-0.7,1.7-0.7c0.6,0,1.2,0.2,1.6,0.6h3.1l-1.4-1.4h-3.7v-1.8L27,12.8v1.8
			h-0.4v-2.8l2.1,2.3v1.6h3l-9.2-9.2v4.2L22,11.9l0.6,1c0,0.1,0,0.2-0.1,0.2c0,0-0.1,0-0.1,0c-0.1,0-0.1,0-0.2-0.1l-0.7-1.2l0.5-1.2
			V6.2l-1.1-1.1V13c0.9,0.9,0.9,2.4-0.1,3.3c0,0-0.1,0.1-0.1,0.1c0,0-0.1,0-0.1-0.1c-0.1-0.1-0.1-0.2,0-0.3c0.8-0.8,0.8-2.1,0-2.9
			l-0.1-0.1V4.8l-1.2-1.2v10.6c0.2,0.1,0.3,0.3,0.3,0.5c0,0.3-0.2,0.5-0.5,0.5s-0.5-0.2-0.5-0.5c0-0.2,0.1-0.4,0.3-0.5V3.6l-1.2,1.2
			v8.3l-0.1,0.1c-0.8,0.8-0.8,2.1,0,2.9c0.1,0.1,0.1,0.2,0,0.3c0,0-0.1,0.1-0.1,0.1c0,0-0.1,0-0.1-0.1c-0.9-0.9-0.9-2.4-0.1-3.3V5.2
			l-1,1v4.5l0.5,1.2l-0.7,1.2c0,0.1-0.1,0.1-0.2,0.1c0,0-0.1,0-0.1,0C16,13.1,16,13,16,12.9l0.6-1l-0.5-1.1V6.6l-9.2,9.2h2.9v-1.6
			l2.1-2.3v2.8h-0.4v-1.8l-1.4,1.5v1.8H6.6l-1.4,1.4h3c0.4-0.4,1-0.6,1.6-0.6l0,0c0.6,0,1.2,0.2,1.7,0.7c0.1,0.1,0.1,0.2,0,0.3
			c-0.1,0.1-0.2,0.1-0.3,0c-0.4-0.4-0.9-0.6-1.4-0.6s-1,0.2-1.4,0.6l-0.1,0.1H4.8l-1.2,1.2h5.8c0.1-0.2,0.3-0.3,0.5-0.3
			c0.3,0,0.5,0.2,0.5,0.5s-0.2,0.5-0.5,0.5c-0.2,0-0.4-0.1-0.5-0.3H3.6l1.2,1.2h3.5l0.1,0.1c0.4,0.4,0.9,0.6,1.4,0.6s1-0.2,1.4-0.6
			c0.1-0.1,0.2-0.1,0.3,0c0.1,0.1,0.1,0.2,0,0.3c-0.5,0.5-1.1,0.7-1.7,0.7c-0.6,0-1.2-0.2-1.6-0.6h-3l1.4,1.4h3.6v1.8l1.4,1.5V24H12
			v2.8l-2.1-2.3v-1.6H7l9.2,9.2v-4.2l0.5-1.1l-0.6-1c-0.1-0.1,0-0.2,0.1-0.2c0.1-0.1,0.2,0,0.2,0.1l0.7,1.2l-0.5,1.2v4.5l1.1,1.1
			v-7.8c-0.9-0.9-0.9-2.4,0.1-3.3c0.1-0.1,0.2-0.1,0.3,0c0.1,0.1,0.1,0.2,0,0.3c-0.8,0.8-0.8,2.1,0,2.9l0.1,0.1v8.4l1.2,1.2V24.5
			c-0.2-0.1-0.3-0.3-0.3-0.5c0-0.3,0.2-0.5,0.5-0.5s0.5,0.2,0.5,0.5c0,0.2-0.1,0.4-0.3,0.5V35l1.2-1.2v-8.4l0.1-0.1
			c0.8-0.8,0.8-2.1,0-2.9c-0.1-0.1-0.1-0.2,0-0.3c0.1-0.1,0.2-0.1,0.3,0c0.9,0.9,0.9,2.4,0.1,3.3v7.8l1-1v-4.5l-0.5-1.2l0.7-1.2
			c0-0.1,0.2-0.1,0.2-0.1c0.1,0.1,0.1,0.2,0.1,0.2l-0.6,1l0.5,1.1v4.2l9.2-9.2h-3v1.6l-2.1,2.3V24H27v1.8l1.4-1.5v-1.8H32l1.4-1.4
			h-3.1c-0.4,0.4-1,0.6-1.6,0.6l0,0c-0.6,0-1.2-0.2-1.7-0.7C27,21,27,20.9,27,20.8c0.1-0.1,0.2-0.1,0.3,0c0.4,0.4,0.9,0.6,1.4,0.6
			c0.5,0,1-0.2,1.4-0.6l0.1-0.1h3.6l1.2-1.2h-5.8c-0.1,0.2-0.3,0.3-0.5,0.3c-0.3,0-0.5-0.2-0.5-0.5C28.2,19.1,28.4,18.8,28.7,18.8z
			 M25.9,27l-2.4,2.4v-8.8h-8.4v8.8L12.7,27V11.6l2.4-2.4v8.9h8.4V9.2l2.4,2.4V27z"/>
		<path class="st0" d="M19.3,1.4l-18,18l18,18l18-18L19.3,1.4z M20,35.9l-0.7,0.7l-0.7-0.7L2.7,20l-0.7-0.7l0.7-0.7L18.6,2.7
			l0.7-0.7L20,2.7l15.9,15.9l0.7,0.7L35.9,20L20,35.9z"/>
		<path d="M19.3,0L0,19.3l19.3,19.3l19.3-19.3L19.3,0z M1.4,19.3l18-18l18,18l-18,18L1.4,19.3z"/>
		<path d="M35.9,18.6L20,2.7l-0.7-0.7l-0.7,0.7L2.7,18.6l-0.7,0.7L2.7,20l15.9,15.9l0.7,0.7l0.7-0.7L35.9,20l0.7-0.7L35.9,18.6z
			 M28.7,19.8c0.2,0,0.4-0.1,0.5-0.3H35l-1.2,1.2h-3.6l-0.1,0.1c-0.4,0.4-0.9,0.6-1.4,0.6c-0.5,0-1-0.2-1.4-0.6
			c-0.1-0.1-0.2-0.1-0.3,0C27,20.9,27,21,27,21c0.5,0.5,1,0.7,1.7,0.7l0,0c0.6,0,1.2-0.2,1.6-0.6h3.1l-1.4,1.4h-3.7v1.8L27,25.8V24
			h-0.4v2.8l2.1-2.3v-1.6h3l-9.2,9.2v-4.2L22,26.7l0.6-1c0-0.1,0-0.2-0.1-0.2c-0.1,0-0.2,0-0.2,0.1l-0.7,1.2l0.5,1.2v4.5l-1,1v-7.8
			c0.9-0.9,0.9-2.4-0.1-3.3c-0.1-0.1-0.2-0.1-0.3,0c-0.1,0.1-0.1,0.2,0,0.3c0.8,0.8,0.8,2.1,0,2.9l-0.1,0.1v8.4L19.5,35V24.5
			c0.2-0.1,0.3-0.3,0.3-0.5c0-0.3-0.2-0.5-0.5-0.5s-0.5,0.2-0.5,0.5c0,0.2,0.1,0.4,0.3,0.5V35l-1.2-1.2v-8.4l-0.1-0.1
			c-0.8-0.8-0.8-2.1,0-2.9c0.1-0.1,0.1-0.2,0-0.3c-0.1-0.1-0.2-0.1-0.3,0c-0.9,0.9-0.9,2.4-0.1,3.3v7.8l-1.1-1.1v-4.5l0.5-1.2
			l-0.7-1.2c0-0.1-0.2-0.1-0.2-0.1C16,25.5,16,25.6,16,25.7l0.6,1l-0.5,1.1V32L7,22.9h2.9v1.6l2.1,2.3V24h-0.4v1.8l-1.4-1.5v-1.8
			H6.6l-1.4-1.4h3c0.4,0.4,1,0.6,1.6,0.6c0.6,0,1.2-0.2,1.7-0.7c0.1-0.1,0.1-0.2,0-0.3c-0.1-0.1-0.2-0.1-0.3,0
			c-0.4,0.4-0.9,0.6-1.4,0.6s-1-0.2-1.4-0.6l-0.1-0.1H4.8l-1.2-1.2h5.8c0.1,0.2,0.3,0.3,0.5,0.3c0.3,0,0.5-0.2,0.5-0.5
			s-0.2-0.5-0.5-0.5c-0.2,0-0.4,0.1-0.5,0.3H3.6l1.2-1.2h3.5l0.1-0.1c0.4-0.4,0.9-0.6,1.4-0.6s1,0.2,1.4,0.6c0.1,0.1,0.2,0.1,0.3,0
			c0.1-0.1,0.1-0.2,0-0.3c-0.5-0.5-1.1-0.7-1.7-0.7l0,0c-0.6,0-1.2,0.2-1.6,0.6h-3l1.4-1.4h3.6v-1.8l1.4-1.5v1.8H12v-2.8l-2.1,2.3
			v1.6H6.9l9.2-9.2v4.2l0.5,1.1l-0.6,1c-0.1,0.1,0,0.2,0.1,0.2c0,0,0.1,0,0.1,0c0.1,0,0.1,0,0.2-0.1l0.7-1.2l-0.5-1.2V6.2l1-1V13
			c-0.9,0.9-0.9,2.4,0.1,3.3c0,0,0.1,0.1,0.1,0.1c0,0,0.1,0,0.1-0.1c0.1-0.1,0.1-0.2,0-0.3c-0.8-0.8-0.8-2.1,0-2.9l0.1-0.1V4.8
			l1.2-1.2v10.6c-0.2,0.1-0.3,0.3-0.3,0.5c0,0.3,0.2,0.5,0.5,0.5s0.5-0.2,0.5-0.5c0-0.2-0.1-0.4-0.3-0.5V3.6l1.2,1.2v8.4l0.1,0.1
			c0.8,0.8,0.8,2.1,0,2.9c-0.1,0.1-0.1,0.2,0,0.3c0,0,0.1,0.1,0.1,0.1s0.1,0,0.1-0.1c0.9-0.9,0.9-2.4,0.1-3.3V5.2l1.1,1.1v4.5
			l-0.5,1.2l0.7,1.2c0,0.1,0.1,0.1,0.2,0.1c0,0,0.1,0,0.1,0c0.1,0,0.1-0.2,0.1-0.2l-0.6-1l0.5-1.1V6.6l9.2,9.2h-3v-1.6l-2.1-2.3v2.8
			H27v-1.8l1.4,1.5v1.8h3.7l1.4,1.4h-3.1c-0.4-0.4-1-0.6-1.6-0.6c-0.6,0-1.2,0.2-1.7,0.7c-0.1,0.1-0.1,0.2,0,0.3
			c0.1,0.1,0.2,0.1,0.3,0c0.4-0.4,0.9-0.6,1.4-0.6c0.5,0,1,0.2,1.4,0.6l0.1,0.1h3.6l1.2,1.2h-5.9c-0.1-0.2-0.3-0.3-0.5-0.3
			c-0.3,0-0.5,0.2-0.5,0.5S28.4,19.8,28.7,19.8z"/>
		<path d="M23.5,18.1h-8.4V9.2l-2.4,2.4V27l2.4,2.4v-8.8h8.4v8.8l2.4-2.4V11.6l-2.4-2.4V18.1z M24.5,18.1v-6.6l0.5,0.5v14.6L24.5,27
			v-6.5v-1h-1h-8.4h-1v1V27l-0.5-0.5V12l0.5-0.5v6.6v1h1h8.4h1V18.1z"/>
	</g>
	<g>
		<path d="M48.7,27.7v-5.8c0-0.5-0.2-0.7-0.7-0.7c-0.6,0-1.7,0.3-2.5,0.8v5.7h-1.3v-5.8c0-0.5-0.2-0.7-0.7-0.7
			c-0.6,0-1.7,0.3-2.5,0.8v5.7h-1.3v-7.6h1.1l0.1,0.7c0.8-0.4,2.1-0.8,3-0.8c0.8,0,1.2,0.3,1.4,0.8c0.9-0.4,2.2-0.8,3.1-0.8
			c1.2,0,1.6,0.8,1.6,1.9v5.8L48.7,27.7L48.7,27.7z"/>
		<path d="M55.1,26.7c0.7,0,1.6-0.1,2.4-0.4l0.2,1c-0.7,0.3-1.7,0.4-2.7,0.4c-2.2,0-3-1.1-3-2.8v-2.3c0-1.6,0.7-2.8,3-2.8
			c2.2,0,2.8,1.3,2.8,2.9v1.6h-4.5V25C53.3,26.2,53.6,26.7,55.1,26.7z M53.3,23.3h3.2v-0.6c0-1.1-0.4-1.6-1.6-1.6
			c-1.2,0-1.7,0.6-1.7,1.6C53.3,22.7,53.3,23.3,53.3,23.3z"/>
		<path d="M69,27.7v-5.8c0-0.5-0.2-0.7-0.7-0.7c-0.6,0-1.7,0.3-2.5,0.8v5.7h-1.3v-5.8c0-0.5-0.2-0.7-0.7-0.7c-0.6,0-1.7,0.3-2.5,0.8
			v5.7h-1.3v-7.6h1.1l0.1,0.7c0.8-0.4,2.1-0.8,3-0.8c0.8,0,1.2,0.3,1.4,0.8c0.9-0.4,2.2-0.8,3.1-0.8c1.2,0,1.6,0.8,1.6,1.9v5.8
			L69,27.7L69,27.7z"/>
		<path d="M78.6,25.3c0,1.5-0.7,2.5-2.5,2.5c-0.7,0-1.6-0.1-2.2-0.2v3.1l-1.3,0.2V20.1h1.1l0.1,0.7c0.6-0.5,1.5-0.8,2.5-0.8
			c1.5,0,2.2,0.8,2.2,2.3L78.6,25.3L78.6,25.3z M74,26.4c0.7,0.1,1.6,0.2,2.1,0.2c0.9,0,1.2-0.4,1.2-1.3v-3.1c0-0.8-0.2-1.2-1.2-1.2
			c-0.7,0-1.6,0.4-2.1,0.9V26.4L74,26.4z"/>
		<path d="M85.4,27.7v-5.8c0-0.5-0.2-0.7-0.7-0.7c-0.6,0-1.7,0.4-2.5,0.8v5.7h-1.3V17l1.3-0.2v3.9c0.8-0.4,2-0.8,2.9-0.8
			c1.2,0,1.6,0.8,1.6,1.9v5.8L85.4,27.7L85.4,27.7z"/>
		<path d="M89.1,18.9V17h1.3v1.9H89.1z M89.1,27.7v-7.6h1.3v7.6H89.1z"/>
		<path d="M95,27.8c-0.8,0-1.8-0.2-2.4-0.4l0.2-1c0.7,0.2,1.5,0.3,2.2,0.3c1.2,0,1.4-0.2,1.4-1s-0.1-0.9-1.6-1.3
			c-1.9-0.5-2.1-0.9-2.1-2.4c0-1.4,0.6-2,2.6-2c0.7,0,1.5,0.1,2.1,0.3l-0.1,1.1c-0.6-0.1-1.5-0.2-2.1-0.2c-1.1,0-1.3,0.3-1.3,0.9
			c0,0.8,0,1,1.3,1.3c2.2,0.5,2.3,0.8,2.3,2.3C97.6,27.1,97.2,27.8,95,27.8z"/>
	</g>
	<g>
		<path d="M44,18.5V15h-3.5v3.6h-1v-7.9h1v3.4H44v-3.4h1v7.9H44z"/>
		<path d="M53,18.5h-1l-0.6-1.9H48l-0.6,1.9h-1l2.7-7.9h1.4L53,18.5z M49.7,11.4l-1.4,4.4h2.8L49.7,11.4z"/>
		<path d="M55.1,16.3c0,1.1,0.4,1.5,1.7,1.5c0.5,0,1.2-0.1,1.8-0.2l0.1,0.9c-0.6,0.1-1.4,0.2-2,0.2c-1.9,0-2.7-0.8-2.7-2.3v-3.5
			c0-1.5,0.8-2.3,2.7-2.3c0.6,0,1.4,0.1,2,0.2l-0.1,0.9c-0.6-0.1-1.4-0.2-1.8-0.2c-1.3,0-1.7,0.4-1.7,1.5V16.3z"/>
		<path d="M61.4,18.5h-1v-7.9h1V18.5z M62.8,14.5l3.1,4h-1.2l-3-4l2.8-3.9h1.2L62.8,14.5z"/>
	</g>
</g>
</svg>
