<svg xmlns="http://www.w3.org/2000/svg" width="59.71" height="42.6" viewBox="0 0 59.71 42.6">
  <title>logo</title>
  <path d="M26.16,26.76a13,13,0,0,0,5.1-5.1,14.83,14.83,0,0,0,1.38-3.45,15,15,0,0,0,.48-3.81,13.75,13.75,0,0,0-1.05-5.22,15.47,15.47,0,0,0-2.91-4.62,14.76,14.76,0,0,0-4.41-3.3A12.35,12.35,0,0,0,19.2,0H0V42.6H9.84V28.86h6.42L24.84,42.6h11.1Zm-4.32-8.13a3.69,3.69,0,0,1-3,1.65h-9V8.64h8.7a4.22,4.22,0,0,1,3.12,1.56,6,6,0,0,1,1.44,4.2A6.77,6.77,0,0,1,21.84,18.63ZM59.71,0V42.6H49.87V28.86h-18l.22-.22A17.43,17.43,0,0,0,35,24.78a21.91,21.91,0,0,0,1.53-4.5H49.87V8.64H36.46c-.12-.36-.24-.73-.38-1.09a19.85,19.85,0,0,0-3.72-5.9A18.87,18.87,0,0,0,30.62,0Z"/>
</svg>
