<svg xmlns="http://www.w3.org/2000/svg" viewBox="0 0 17.64 215.14">
  <title>gradient</title>
  <path d="M11.8,212.16a3,3,0,1,1-3-3A3,3,0,0,1,11.8,212.16Zm-3-41a6.89,6.89,0,1,0,6.89,6.89A6.89,6.89,0,0,0,8.82,171.19Zm0-17.17a7,7,0,1,0,7,7A7,7,0,0,0,8.82,154Zm0-16.83a7,7,0,1,0,7,7A7,7,0,0,0,8.82,137.19Zm0-18A8.17,8.17,0,1,0,17,127.38,8.17,8.17,0,0,0,8.82,119.21ZM17,94.32a8.17,8.17,0,1,0-10.44,7.84,8.17,8.17,0,1,0,4.54,0A8.17,8.17,0,0,0,17,94.32Zm.65-68.44A8.82,8.82,0,0,0,11,17.35a8.82,8.82,0,1,0-4.39,0,8.81,8.81,0,0,0,0,17.06,8.81,8.81,0,0,0,0,17.06,8.81,8.81,0,0,0-.12,17,8.82,8.82,0,1,0,4.64,0,8.81,8.81,0,0,0-.13-17,8.8,8.8,0,0,0,0-17.06A8.82,8.82,0,0,0,17.64,25.88ZM8.82,189.15a6,6,0,1,0,6,6A6,6,0,0,0,8.82,189.15Z" 
  fill="#1e2223"/>
</svg>
