<svg xmlns="http://www.w3.org/2000/svg" viewBox="0 0 29.48 8.52">
  <title>iller</title>
  <path d="M0,8.52V0H2.32V8.52Zm3.8,0V0H6.12V6.48H8.55v2Zm5.59,0V0h2.34V6.48h2.43v2ZM21,6.48v2H15V0h6V2H17.3v1.2h3.09v1.9H17.3V6.48Zm1.09,2V0H26a2.59,2.59,0,0,1,1.15.26,2.8,2.8,0,0,1,.91.67,3.1,3.1,0,0,1,.59.95A2.7,2.7,0,0,1,28.9,3a3.12,3.12,0,0,1-.32,1.39,2.87,2.87,0,0,1-.9,1l1.8,3.13H26.84L25.34,5.9h-.88V8.52Zm2.34-4.66h1.48a.53.53,0,0,0,.4-.24A1.09,1.09,0,0,0,26.52,3a1,1,0,0,0-.21-.68A.64.64,0,0,0,25.88,2H24.46Z"/>
</svg>
