<svg xmlns="http://www.w3.org/2000/svg" viewBox="0 0 28.85 8.52">
  <title>iller</title>
  <path d="M0,8.52V0H2V8.52Zm3.6,0V0h2V6.79H8.14V8.52Zm5.51,0V0h2V6.79h2.57V8.52Zm11.5-1.73V8.52h-6V0H20.5V1.73H16.59V3.38H20V5H16.59V6.79Zm1.22,1.73V0h3.84a2.44,2.44,0,0,1,1.11.25,3,3,0,0,1,.88.66,3,3,0,0,1,.58.93,2.72,2.72,0,0,1,.21,1,3.16,3.16,0,0,1-.09.76,3,3,0,0,1-.28.69,2.28,2.28,0,0,1-.44.58,2.28,2.28,0,0,1-.58.44l2,3.17H26.8L25.08,5.77H23.8V8.52Zm2-4.46h1.8a.74.74,0,0,0,.6-.33,1.36,1.36,0,0,0,.25-.85A1.21,1.21,0,0,0,26.16,2a.83.83,0,0,0-.62-.31H23.8Z"/>
</svg>
