<?xml version="1.0" encoding="utf-8"?>
<svg version="1.1"
	 xmlns="http://www.w3.org/2000/svg" 
	 xmlns:xlink="http://www.w3.org/1999/xlink"
	 x="0px" y="0px"
	 viewBox="0 0 283.5 33.7"
	 xml:space="preserve"
	 preserveAspectRatio="xMinYMid slice"
	 >
<title>ryan filler logo</title>
	<defs>
		<mask id="mask" maskUnits="userSpaceOnUse" x="0" y="0" width="23" height="33.7">
			<path d="M17,21L9.1,33.7H0V0h23c-1.6,0-3.2,0.4-4.8,0.8c-1.2,0.8-2.4,1.6-3.6,2.8c-0.8,1.2-1.6,2.4-2.4,3.6c-0.4,1.2-0.8,2.8-0.8,4 s0,2,0.4,3.2c0.4,0.8,0.8,2,1.2,2.8c0.4,0.8,1.2,1.6,1.6,2.4C15.5,19.8,16.3,20.6,17,21z"/>
		</mask>
	</defs>
	<path class="r" d="M23.4,19.4c0.4-0.8,1.2-1.6,1.6-2.4c0.4-0.8,0.8-2,1.2-2.8c0.4-1.2,0.4-2,0.4-3.2s-0.4-2.8-0.8-4c-0.8-1.2-1.6-2.4-2.4-3.6 c-1.2-1.2-2.4-2-3.6-2.8C18.2,0.4,16.7,0,15.1,0H0v33.7h7.9V23h4.8l7.1,10.7h9.1L21,21C21.8,20.6,22.6,19.8,23.4,19.4z M17.4,15.1 c-0.4,0.8-1.6,1.2-2.4,1.2H7.9V6.7h6.7c1.2,0,2,0.4,2.4,1.6c0.8,1.2,1.2,2.4,1.2,3.6C18.6,13.1,18.2,14.3,17.4,15.1z"/>
	<path class="yan" d="M40.8,0L27.8,33.7h8.7l2.4-7.5h10.3l2.8,7.5h8.3L47.2,0H40.8z M39.6,21l4-12.7l4,12.7H39.6z M31.7,0L19.8,22.2v11.5h-7.9 V22.2L0,0h8.3l7.5,15.5L23,0H31.7z M93.2,0v33.7h-6.3L71,14.3v19.4h-7.5V0h5.9l15.9,19.8V0H93.2z"/>
	<path class="f" d="M20.2,22.6v-6.3H7.9V6.7H23V0H0v33.7h7.9V22.6H20.2z"/>
	<path class="iller" d="M109.4,19.4c0.4-0.8,1.2-1.6,1.6-2.4c0.4-0.8,0.8-2,1.2-2.8c0.4-1.2,0.4-2,0.4-3.2s-0.4-2.8-0.8-4c-0.8-1.2-1.6-2.4-2.4-3.6 c-1.2-1.2-2.4-2-3.6-2.8c-1.2-0.4-2.8-0.8-4.4-0.8H86.4v33.7H94V23h5.2l6.7,10.7h9.1L107,21C107.8,20.6,108.6,20.2,109.4,19.4z M103.9,15.1c-0.4,0.8-1.6,1.2-2.4,1.2h-7.1V7.1h6.7c0.8,0,1.6,0.4,2.4,1.2c0.8,1.2,1.2,2.4,1.2,3.6 C105.1,13.1,104.7,14.3,103.9,15.1z M65.8,27v-7.1h13.5v-6.3H65.8V6.7h15.5V0H57.9v33.7h23.8V27H65.8z M44,27V0h-7.9v33.7h18.2V27 H44z M22.2,27V0h-7.9v33.7h17.8V27H22.2z M0,0h7.9v33.7H0V0z"/>
</svg>