<svg id="Layer_1" data-name="Layer 1" xmlns="http://www.w3.org/2000/svg" width="175.15729" height="88.713" viewBox="0 0 175.15729 88.713">
  <title>Artboard 1</title>
  <path d="M129.2917,55.4576v8.9323h-5.3632V60.2464h-5.1807V84.0288h3.2792v4.1435H108.7417V84.0288h3.2301V60.2464h-5.1817v4.1435h-5.3632V55.4576Zm42.5275,28.4515-7.5718-10.9829,5.4156-4.3511h2.4088V64.4326H166.59l-10.559,8.697V55.4576h-8.6934v4.1441h2.6247V84.0288h-2.6247v4.1435h11.317V84.0288H156.031V79.5274l3.5754-2.8727,7.795,11.5176h6.5901V84.0288h-2.0928ZM13.9061,68.8275c-5.1919-.4756-7.0547-1.1359-7.0547-3.765,0-2.2356,2.869-3.9191,6.3384-3.9191a9.20873,9.20873,0,0,1,8.5008,4.7296h4.6471V56.9088H21.9604v2.4451s-2.2182-2.9406-8.9423-2.9406c-7.6228,0-12.5906,4.3567-12.5906,9.3,0,6.1709,4.8417,8.6817,12.4199,9.4385,4.5245.4518,8.2018.7766,8.2018,4.46,0,2.6526-2.5352,4.3152-6.5865,4.3152a10.08471,10.08471,0,0,1-9.5423-5.7559H0V88.1723H4.63V85.5985s3.0184,3.1128,10.7994,3.1128c6.8933,0,12.2428-4.2748,12.2428-9.9083C27.6722,71.932,21.4164,69.5156,13.9061,68.8275ZM35.308,56.9088H29.2403V84.0739c0,3.9314,2.6563,4.6374,7.5483,4.6374a28.217,28.217,0,0,0,3.8178-.2797V83.9775H38.7579c-2.3206,0-3.4499-.6004-3.4499-2.4799V69.0831h5.2984V64.4323H35.308Zm63.7818-1.4512H90.3974v4.1436h2.6247V84.0288H90.3974v4.1435h11.317V84.0288H99.0898ZM83.9876,80.785h6.4903c-1.307,4.9005-5.9909,7.928-12.3175,7.928-6.7327,0-11.7947-4.2608-12.7023-10.3841H46.5705c.5627,4.7104,3.9197,5.8351,6.2752,5.8351,2.7608,0,4.6722-1.0249,5.6752-3.379h6.4905c-1.3069,4.9005-5.9911,7.928-12.3178,7.928-7.4452,0-12.8486-5.2101-12.8486-12.388,0-7.2048,5.426-12.4336,12.8987-12.4336a12.46711,12.46711,0,0,1,10.1759,4.8,14.25013,14.25013,0,0,1,2.4154,6.8578c.3755-6.8009,5.674-11.6578,12.8754-11.6578a12.46612,12.46612,0,0,1,10.1756,4.8c2.3313,3.1859,2.5089,7.2198,2.6109,9.6375H72.0372c.5628,4.7104,3.9196,5.8351,6.2752,5.8351C81.0732,84.164,82.9846,83.1391,83.9876,80.785ZM58.7584,73.6665a5.77127,5.77127,0,0,0-6.1646-5.2694,6.16812,6.16812,0,0,0-6.2631,5.2694Zm13.0389,0H84.225a5.77111,5.77111,0,0,0-6.1645-5.2694A6.16829,6.16829,0,0,0,71.7973,73.6665Zm57.1804,4.6624c.5622,4.7104,3.9193,5.8351,6.2746,5.8351,2.7611,0,4.6725-1.0249,5.6752-3.379h6.4906c-1.3069,4.9005-5.9911,7.928-12.3178,7.928-7.4453,0-12.8487-5.2101-12.8487-12.388,0-7.2048,5.426-12.4336,12.8987-12.4336a12.467,12.467,0,0,1,10.1759,4.8c2.3313,3.1859,2.5089,7.2198,2.6109,9.6375Zm12.1873-4.6624a5.77093,5.77093,0,0,0-6.1643-5.2694,6.16863,6.16863,0,0,0-6.2634,5.2694ZM88.0926,7.2177,86.3169,6.1928,84.542,7.2177v12.146l3.5506,2.0498ZM84.542,42.398l1.7749,1.0254,1.7748-1.0254V30.253L84.542,28.2022ZM80.7143,25.9926,68.4201,33.0905l3.5509,2.0502,12.2933-7.0974ZM100.6626,14.475,88.3693,21.5734l3.5509,2.0497,12.2933-7.0984ZM104.5,16.6777V30.8868l3.5519,2.0507V16.6625a3.76064,3.76064,0,0,1-3.5519.0152M68.1434,32.9429V18.7348l-3.5509-2.0507V32.9478a3.76026,3.76026,0,0,1,3.5509-.0049m39.6583,4.2696c.0098-.0172.0137-.0353.0226-.0525a1.61676,1.61676,0,0,0,.0755-.1648c.0206-.0521.0422-.1045.0579-.1575a1.37274,1.37274,0,0,0,.0383-.1658,1.59638,1.59638,0,0,0,.0284-.1668,1.71985,1.71985,0,0,0,.0059-.1889,1.44974,1.44974,0,0,0-.0039-.1457,1.78922,1.78922,0,0,0-.0353-.2139c-.0059-.0305-.0069-.0604-.0147-.0908-.003-.0128-.0108-.024-.0138-.0358a1.99968,1.99968,0,0,0-.0706-.1894c-.0216-.051-.0422-.102-.0677-.1506-.0089-.0171-.0138-.0338-.0226-.051-.0324-.0564-.0706-.1075-.1079-.16-.0147-.02-.0304-.0411-.0461-.0612a1.85531,1.85531,0,0,0-.1747-.1879c-.0304-.028-.0618-.054-.0942-.08-.05-.0402-.102-.0766-.155-.1119-.0255-.0162-.0461-.0363-.0726-.051L69.9194,13.2907l16.3975-9.468,19.0593,11.004a1.77548,1.77548,0,0,0,1.775-3.0755L87.2076.237c-.0334-.0191-.0687-.0338-.103-.0501L87.1006.184A1.75289,1.75289,0,0,0,86.3258,0l-.0089.001L86.3071,0a1.74973,1.74973,0,0,0-.7761.185V.186c-.0343.0172-.0706.0309-.104.051L65.4834,11.7512a1.50969,1.50969,0,0,0-.1315.0947c-.0313.0211-.0628.0422-.0922.0652a1.949,1.949,0,0,0-.1609.1506c-.0294.0314-.0608.0614-.0893.0957a1.95162,1.95162,0,0,0-.1168.1624c-.0186.0294-.0431.0535-.0598.0844-.0088.0162-.0138.0334-.0226.0495a1.60037,1.60037,0,0,0-.0667.1467,1.91947,1.91947,0,0,0-.0707.1889c-.0039.0142-.0117.027-.0147.0412-.0078.0289-.0088.0594-.0147.0883a1.51128,1.51128,0,0,0-.0344.2071,2.83147,2.83147,0,0,0,0,.3296,1.53,1.53,0,0,0,.0344.2066c.0059.0294.0069.0593.0147.0887.003.0138.0108.027.0147.0413a1.91145,1.91145,0,0,0,.0707.1879,1.38248,1.38248,0,0,0,.0677.1476c.0078.0162.0128.0329.0216.0491.0167.0304.0412.0554.0598.0844a1.7416,1.7416,0,0,0,.1178.1638c.0275.0334.0579.0633.0873.0933a1.85238,1.85238,0,0,0,.1629.153c.0284.0221.0588.0422.0873.0623.0451.0319.0863.0682.1354.0962L102.7143,36.325,86.3169,45.793,67.2584,34.789a1.77591,1.77591,0,1,0-1.775,3.0765L85.427,49.3797c.0255.0152.052.0221.0775.0353.0373.0186.0746.0339.1128.05a1.67221,1.67221,0,0,0,.2081.0786c.0392.0108.0824.0191.1236.0269a1.6016,1.6016,0,0,0,.2041.0354c.0539.0049.1059.0039.1589.0039a1.65131,1.65131,0,0,0,.1708-.0049,1.62539,1.62539,0,0,0,.1942-.0324c.0451-.0088.0903-.0172.1345-.0299a1.69337,1.69337,0,0,0,.1991-.0746c.0413-.0172.0812-.0344.1205-.0544.0245-.0128.051-.0197.0765-.0339l19.9436-11.5142c.0422-.025.0775-.0574.1168-.0844.0353-.024.0686-.0486.103-.0746a1.68184,1.68184,0,0,0,.1599-.1477c.0324-.0328.0628-.0642.0922-.0995a1.84171,1.84171,0,0,0,.1237-.1717c.0177-.0261.0383-.0481.0549-.0751m-5.868,36.6012a3.57661,3.57661,0,1,0,3.5421-3.5421A3.5764,3.5764,0,0,0,101.9337,73.8137Zm68.43062-2.01186h-2.91016V72.379h1.15137v3.748h.60742V72.379h1.15137Zm4.793,0h-.92773L173.14947,75.088l-1.09863-3.28613h-.93652V76.127h.60645V72.51571h.01758l1.20508,3.61133h.38477l1.20508-3.61133h.01758V76.127h.60645Z" fill="#fff"/>
</svg>
