<svg id="Layer_1" data-name="Layer 1" xmlns="http://www.w3.org/2000/svg" width="97.61499" height="38.64801" viewBox="0 0 97.61499 38.64801">
  <title>Artboard 1</title>
  <path d="M24.463,19.565H14.185v7.486l-.481-.47894V11.96l.481-.471v7.594H24.463V11.489l.482.471V26.572l-.482.47894V19.565Zm-4.626,4.419a.513.513,0,1,0-.694.479V35.044l-1.221-1.22V25.473l-.053-.053a2.02731,2.02731,0,0,1,0-2.863.18032.18032,0,0,0-.255-.255,2.3893,2.3893,0,0,0-.053,3.319v7.842l-1.053-1.054V27.9l.511-1.183-.688-1.183a.18061.18061,0,0,0-.312.182l.596,1.026-.469,1.086v4.221L6.958,22.861H9.843v1.62l2.116,2.292V24.022h-.362v1.827l-1.393-1.51v-1.84H6.597L5.186,21.087H8.207a2.38479,2.38479,0,0,0,3.319-.053.181.181,0,0,0-.256-.256,2.02072,2.02072,0,0,1-2.862,0l-.053-.053H4.824l-1.22-1.22H9.366a.513.513,0,1,0,0-.362H3.604l1.22-1.22H8.356l.053-.053a2.02425,2.02425,0,0,1,2.863,0,.18032.18032,0,1,0,.255-.255,2.38487,2.38487,0,0,0-3.319-.053H5.186l1.4-1.4h3.618v-1.84l1.394-1.509V14.64h.362V11.889L9.844,14.181v1.621H6.948l9.2-9.2v4.222l.469,1.086-.597,1.026a.18006.18006,0,0,0,.065.247.18774.18774,0,0,0,.091.024.18046.18046,0,0,0,.156-.09l.688-1.183-.512-1.186V6.24L17.54,5.208v7.82a2.38737,2.38737,0,0,0,.052,3.319.17992.17992,0,0,0,.255,0,.18225.18225,0,0,0,0-.256,2.02561,2.02561,0,0,1,0-2.863l.053-.053V4.846l1.22-1.22V14.184a.513.513,0,1,0,.362,0V3.581l1.221,1.22v8.373l.053.053a2.02731,2.02731,0,0,1,0,2.863.18068.18068,0,1,0,.255.256,2.38937,2.38937,0,0,0,.053-3.319V5.164l1.053,1.053v4.53l-.512,1.186.688,1.183a.1815.1815,0,0,0,.24695.066.18092.18092,0,0,0,.065-.247l-.597-1.026.47-1.086V6.58L31.7,15.801H28.71v-1.62l-2.116-2.292V14.64h.361V12.813l1.394,1.509v1.841h3.713l1.412,1.411H30.346a2.38487,2.38487,0,0,0-3.319.053.1793.1793,0,0,0,0,.255.18118.18118,0,0,0,.255,0,2.02432,2.02432,0,0,1,2.863,0l.053.053h3.637l1.22,1.22H29.188a.51425.51425,0,1,0-.002.359h5.845l-1.22,1.22H30.196l-.053.053a2.022,2.022,0,0,1-2.863,0,.18064.18064,0,0,0-.25494.256,2.38479,2.38479,0,0,0,3.319.053h3.105l-1.4,1.4H28.347v1.84l-1.394,1.51V24.018h-.361V26.77L28.709,24.478v-1.62h2.979l-9.21,9.21V27.825L22.009,26.739l.597-1.026a.18061.18061,0,0,0-.312-.182l-.688,1.183.512,1.186v4.53l-1.031,1.032V25.62a2.38839,2.38839,0,0,0-.053-3.319.18066.18066,0,0,0-.256.255,2.02739,2.02739,0,0,1,0,2.863l-.053.053v8.352l-1.22,1.219V24.463A.51116.51116,0,0,0,19.837,23.984ZM23.5,20.529v8.836l2.409-2.393V11.555L23.5,9.197V18.119H15.15V9.197l-2.41,2.358V26.972l2.41,2.393V20.529ZM19.324,0,38.648,19.324,19.324,38.648,0,19.324Zm0,36.588.682-.682,15.9-15.9.681-.682-.681-.682L20.005,2.742l-.681-.682-.68195.682-15.9,15.9-.682.682.682.682,15.9,15.9ZM48.316,19.942a8.0808,8.0808,0,0,0-3.124.809,1.391,1.391,0,0,0-1.445-.809,8.22272,8.22272,0,0,0-3.046.809l-.125-.653H39.519v7.569h1.306v-5.72a7.04171,7.04171,0,0,1,2.533-.762c.481,0,.73.202.73.699v5.782h1.306v-5.72a6.70891,6.70891,0,0,1,2.533-.762c.482,0,.731.202.731.699v5.784h1.305V21.87C49.963,20.704,49.529,19.942,48.316,19.942ZM57.797,22.801v1.584H53.29v.638c-.001,1.196.326,1.678,1.803,1.678a9.64859,9.64859,0,0,0,2.393-.357l.171,1.041a8.21564,8.21564,0,0,1-2.673.436c-2.238,0-3-1.072-3-2.782V22.77c0-1.57.715-2.829,2.969-2.829C57.191,19.941,57.797,21.231,57.797,22.801Zm-1.26-.125c0-1.05695-.356-1.647-1.585-1.647-1.228,0-1.663.591-1.663,1.647v.621h3.248ZM68.645,19.942a8.08108,8.08108,0,0,0-3.124.809,1.39088,1.39088,0,0,0-1.445-.809,8.22242,8.22242,0,0,0-3.046.809l-.124-.653H59.848v7.569H61.155v-5.72a7.04232,7.04232,0,0,1,2.533-.762c.482,0,.73.202.73.699v5.782h1.306v-5.72a6.70359,6.70359,0,0,1,2.533-.762c.481,0,.731.202.731.699v5.784h1.304V21.87C70.292,20.704,69.857,19.942,68.645,19.942Zm9.977,2.313v3.094a2.17753,2.17753,0,0,1-2.455,2.471,12.11693,12.11693,0,0,1-2.16-.233v3.14l-1.306.187V20.095h1.104l.108.684a4.03678,4.03678,0,0,1,2.502-.839C77.907,19.94,78.622,20.732,78.622,22.255Zm-1.304,0c0-.776-.249-1.165-1.166-1.165a3.49626,3.49626,0,0,0-2.145.901v4.446a12.25267,12.25267,0,0,0,2.082.232c.871,0,1.229-.404,1.229-1.32Zm7.741-2.315a7.671,7.671,0,0,0-2.922.793V16.816l-1.306.187V27.665h1.306V21.961a7.1,7.1,0,0,1,2.533-.777c.481,0,.73.202.73.699v5.782h1.306V21.868C86.706,20.702,86.271,19.94,85.059,19.94Zm4.056-1.056H90.42V17.003H89.115Zm0,8.781H90.42V20.096H89.115Zm6.153-4.351c-1.275-.311-1.29-.46594-1.29-1.305,0-.683.155-.948,1.274-.948a12.11026,12.11026,0,0,1,2.098.218l.09406-1.072a8.49847,8.49847,0,0,0-2.145-.265c-1.99,0-2.611.638-2.611,2.03595,0,1.571.17,1.958,2.051,2.425,1.524.37195,1.586.46594,1.586,1.274s-.202,1.025-1.398,1.025a8.65055,8.65055,0,0,1-2.16-.311l-.172,1.025a7.74311,7.74311,0,0,0,2.409.404c2.16,0,2.612-.715,2.611-2.19C97.615,24.123,97.444,23.859,95.268,23.314ZM40.535,14.981h3.483v3.566h1.016V10.683H44.018v3.389H40.535V10.683H39.519v7.864h1.016Zm11.488,3.566-.648-1.89H48.033l-.638,1.89H46.368l2.657-7.864h1.37l2.655,7.864Zm-.909-2.776-1.405-4.357-1.406,4.357Zm5.739-4.287a12.13014,12.13014,0,0,1,1.842.166l.105-.874a10.14573,10.14573,0,0,0-1.982-.212c-1.925,0-2.693.826-2.693,2.314V16.35c0,1.487.767,2.314,2.693,2.314a10.07978,10.07978,0,0,0,1.982-.212l-.105-.874a12.006,12.006,0,0,1-1.842.166c-1.287,0-1.713-.354-1.713-1.453V12.937C55.14,11.838,55.566,11.484,56.853,11.484Zm9.067,7.062L62.803,14.543l2.881-3.861H64.491l-2.834,3.861L64.704,18.546Zm-4.51-7.863H60.394v7.864H61.41Z" fill="#fff"/>
</svg>
