<svg id="Layer_1" data-name="Layer 1" xmlns="http://www.w3.org/2000/svg" width="1410.76646" height="166.57691" viewBox="0 0 1410.76646 166.57691">
  <title>logo</title>
  <path d="M543.68992,95.89V1.501H582.2476V165.94357H569.55589c1.18445-1.70839,2.07282-2.9897,3.02509-4.36317-1.56854-1.1714-3.12653-2.33492-4.81238-3.59395-1.32959,1.4922-2.52606,2.8351-3.95483,4.4386,1.08649.98848,2.11725,1.92628,3.73969,3.4024H551.34971c-24.56927-30.25719-49.24811-60.64928-74.5556-91.8156v91.84644h-38.835v-8.11305l4.80768-3.508c-8.31693-3.72377-4.27338-10.4834-5.04849-15.92474-.43015-3.01979-.07712-6.15112-.077-9.23219q.00211-60.72743.01114-121.45486c.00015-.65009.10458-1.30017.285-3.40429,3.19254,2.682,5.6937,4.7832,8.3158,6.986,1.33771-4.20056,4.06155-7.73482,9.453-8.22863,5.40012-.49461,8.66925,2.559,11.16724,6.89492L470.48384,2.836c4.344,6.48419,7.91507,12.28,11.97336,17.71188,2.79254,3.73767,6.42755,6.834,9.39258,10.4571,6.63867,8.11233,13.79962,15.93984,19.26031,24.80012a52.90873,52.90873,0,0,0,6.71307,8.562C526.69059,73.95729,534.512,84.51464,543.68992,95.89Zm-90.264-72.01471-6.98575-6.54593c-1.7869,2.46767-3.72568,5.14509-5.58939,7.71881l6.80194,4.93816C449.6663,27.85491,451.6728,25.731,453.42591,23.87528Zm20.97046-1.96306c-2.37793-2.23428-4.92307-4.62573-6.94937-6.52964l-5.61722,7.64518c2.2413,1.62926,4.58728,3.33463,6.8186,4.95665Zm84.01822-9.00358c-2.35016-2.1-4.87927-4.35978-7.00354-6.25788-1.74615,2.3506-3.65137,4.9153-5.52173,7.433l6.76923,5.00433C554.65837,16.94123,556.65831,14.79414,558.41459,12.90865Zm20.98376-1.994c-2.456-2.18092-4.884-4.337-7.00812-6.22316-1.7179,2.32446-3.60223,4.874-5.45813,7.38516l6.73547,5.089C575.61686,15.0394,577.58488,12.89273,579.39836,10.9146ZM553.65178,29.15051c-1.41022,1.77921-2.88269,3.63705-4.31653,5.44605,2.03656,1.64349,3.94574,3.18417,5.86383,4.72243,1.40515-1.82213,2.8103-3.64425,4.10931-5.32864C557.43773,32.38983,555.68644,30.8914,553.65178,29.15051ZM453.83293,44.70823c-1.87436-1.59775-3.58762-3.05814-5.23108-4.459l-4.91348,6.05231c1.954,1.31443,3.78055,2.54308,5.55746,3.73837ZM574.54411,27.09062c-1.28912,1.771-2.49945,3.43373-3.8316,5.26379l5.99353,4.17425c1.40784-1.70433,2.61548-3.16634,3.73694-4.524ZM491.44181,45.46183c1.43671-1.54111,2.918-3.13,4.40649-4.72673-1.89783-1.63428-3.5835-3.08584-5.28882-4.55427-1.52277,2.01435-2.86255,3.78666-4.19482,5.549C488.0684,42.98221,489.64494,44.141,491.44181,45.46183Zm-21.84378-7.324c-1.57361,2.0639-2.85406,3.74332-4.26578,5.59486l5.24908,3.6969,4.24847-4.65742C473.14637,41.28095,471.47126,39.79715,469.598,38.13782ZM557.08769,58.567c1.203-1.50074,2.08459-2.60052,3.03394-3.78481-1.43756-1.349-2.70154-2.53519-4.03174-3.78352l-3.3194,4.74654C554.16349,56.65568,555.46922,57.50913,557.08769,58.567Zm-15.98053,85.09225c1.52679,1.415,2.78723,2.58319,4.139,3.83606.9411-1.45386,1.72229-2.66071,2.62769-4.05943-1.36273-1.05283-2.57434-1.98892-3.83044-2.95935C542.97294,141.63685,542.20622,142.468,541.10716,143.65925Zm758.85779-15.65646c-4.9425-.3096-9.103-1.99269-10.90637-6.28294q-4.53809,4.56866-8.50073,8.55808c6.927,2.84288,9.59351,6.3569,8.45862,11.79958-1.06714,5.1174-4.56128,7.58429-10.939,7.48723V1.239h5.19885q34.749,0,69.49817-.00587c20.089-.02179,34.303,9.87473,44.94189,26.17122a53.08455,53.08455,0,0,1,8.736,27.145,56.33878,56.33878,0,0,1-10.38574,35.59407c-1.36023,1.91164-4.01343,2.84846-5.7196,4.58035-3.32153,3.37166-6.39514,6.98764-9.83923,10.79872,1.49829,3.80844,5.72107,7.56671,7.01025,14.00249,3.62769,1.98845,8.3009,8.91788,7.31934,12.39992a8.96306,8.96306,0,0,1-8.76855,6.93991c-4.58167.19635-7.97315-2.0997-9.53613-6.58922-1.73511-4.98395.05469-8.58339,5.89185-12.607-3.00366-2.15872-6.1427-4.41464-8.89062-6.38954-2.40649,2.47353-5.14392,5.28723-7.67676,7.89059,1.50317.93846,4.44568,1.9203,5.96057,3.96161a12.572,12.572,0,0,1,2.16284,7.77347,8.93788,8.93788,0,0,1-8.85693,7.99564c-4.6029.04727-7.98914-2.09955-9.57581-6.57533-1.77515-5.00769.08521-8.73976,5.94092-12.64621-3.03271-2.13512-6.193-4.36011-9.203-6.47923-1.50183,1.94856-3.26025,4.23015-5.55493,7.20737-2.25513-3.21768-3.53857-6.65662-5.99695-8.11346-2.56018-1.5172-6.25391-1.12169-10.61511-1.72281,1.91895-3.62344,3.62512-6.845,5.33008-10.06415-1.78772-1.2164-4.18591-2.84827-6.79089-4.62083-1.62842,1.73729-3.52026,3.75546-5.09985,5.44063l6.99976,8.42377q-.44348.685-.88672,1.37006h-12.88855v11.94841c-3.05261-2.45233-5.20825-4.18414-7.64624-6.14279-1.05237,5.14485-4.70154,7.695-9.32031,9.20541ZM1368.47947,56.508a43.70718,43.70718,0,0,1-1.97363-4.74193c-3.42615-11.1353-9.37781-16.4986-18.525-16.524-5.82617-.01622-11.65234-.00308-17.47852-.0031h-13.60718V79.32531h8.65735c-1.24585,1.59842-1.97754,2.53709-2.68762,3.448,1.69177,1.44962,3.176,2.72152,5.30518,4.546,1.16858-2.69081,2.15759-4.96809,3.46729-7.98392,5.18213-.1193,12.41248-1.93312,16.31775,5.16594C1357.29454,76.90086,1366.57335,69.72584,1368.47947,56.508Zm9.49646,42.20074c-2.4082-2.05945-4.74817-4.06058-6.94165-5.93646-1.77527,2.22035-3.71326,4.64433-5.33948,6.67824,2.4718,2.11105,5.01123,4.27985,7.18848,6.13924C1374.60655,103.26136,1376.34813,100.90814,1377.97593,98.70875Zm-28.4303-2.8952c-1.72925,1.97473-3.46509,3.957-4.829,5.51459,2.66858,2.34627,5.09009,4.4754,7.175,6.30856,1.6322-2.26,3.34521-4.63193,4.96191-6.87053C1354.66441,99.28256,1352.2628,97.65493,1349.54564,95.81355Zm-41.00073,16.42311q2.81653-3.99161,5.47522-7.75948c-1.93579-1.395-4.02734-2.90224-6.02-4.33821-2.00684,2.28372-3.99756,4.54907-5.80481,6.60567C1304.29246,108.55857,1306.391,110.37368,1308.5449,112.23666Zm-27.437-3.55885c2.37586,2.13969,4.7334,4.26288,6.70508,6.03845,1.79236-2.41655,3.59045-4.84081,5.35559-7.2206-2.14429-1.543-4.46228-3.21092-6.58191-4.73614C1284.6295,104.87367,1282.85887,106.78637,1281.10789,108.67781ZM1386.399,76.39336l5.21521,4.41149c1.50586-1.90694,2.84753-3.60581,4.196-5.31333-2.05115-1.347-3.8269-2.51308-5.70227-3.74458C1388.91429,73.24241,1387.71531,74.74434,1386.399,76.39336Zm-15.81079,7.25c1.03638-1.7506,2.17627-3.67581,3.29626-5.56756-1.84106-1.34178-3.41162-2.48653-5.15662-3.75834-1.37952,1.505-2.694,2.93888-3.476,3.792C1367.07359,79.99861,1368.78392,81.7723,1370.58824,83.6434Zm-84.99646,8.444c1.45947-1.92783,2.71826-3.59068,4.00183-5.28615-1.65588-1.19757-3.19751-2.31249-4.80847-3.47761-1.43909,1.57665-2.73108,2.99221-4.02332,4.40805C1282.32567,89.14208,1283.77964,90.45325,1285.59178,92.08744Zm20.59168-11.48737c-1.46216,1.72835-2.906,3.43515-4.3728,5.169,1.52234,1.30791,2.97888,2.55939,4.53235,3.89407,1.42834-2.06057,2.77759-4.00723,4.12353-5.94892ZM386.5482,74.27275c6.1055,2.61955,5.99747,10.13528,8.352,15.9269,7.77945,19.136,14.78394,38.58625,22.182,57.879,1.19092,3.10571,2.323,5.93237-2.22565,7.94342l.5354,1.12933,5.99481,1.927c.48428,1.46948,1.32394,4.01729,2.35522,7.1465-13.33945,0-26.27118.05791-39.19989-.11493-.98486-.01317-2.42331-1.47971-2.84183-2.57875-2.25772-5.9288-5.08878-11.82066-6.08777-17.98991-.79788-4.92743-3.31085-8.82173-5.0379-13.16168-.538-1.35173-2.5553-2.98482-3.91724-3.00485-14.66-.21582-29.32471-.0818-43.98718-.18254-2.67642-.01837-3.55505,1.0583-4.34113,3.52663-3.54865,11.143-7.41,22.18639-11.19659,33.3777H265.51121c16.26633-42.29271,32.41516-84.28,48.76355-126.78606l6.05295,4.27452,6.3338-7.03418c-3.44559-2.25291-8.16449-4.38771-7.23532-9.75045.7608-4.39109,1.90131-9.24666,7.51059-10.57359,5.17386-1.22392,8.67834.47813,13.075,6.73331,1.58081-4.95872,4.30743-8.50062,9.70349-8.97964,5.39978-.47935,8.69473,2.527,11.04611,6.77271,1.35016-2.28962,2.62405-4.44993,4.497-7.626,2.549,6.39186,4.6922,11.62691,6.72934,16.90294,4.57224,11.84164,9.19351,23.66648,13.54712,35.58862C386.40654,68.00581,386.17677,70.79513,386.5482,74.27275Zm-60.55984,27.58294h36.85837c-5.99969-19.208-11.85471-37.95281-17.83725-57.1059-2.428,4.64811-4.44745,8.51411-6.32733,12.11291,0,1.92842.43478,3.8387-.06866,5.45715C334.51323,75.50135,330.23756,88.62828,325.98835,101.85569Zm21.43039-66.95413-7.06812-6.56022-5.44446,7.71951c2.03134,1.48747,4.49512,3.2916,6.70407,4.90914C343.74516,38.73956,345.74794,36.64715,347.41874,34.90156Zm13.9299-8.56036L355.907,34.06455c2.03391,1.4873,4.49933,3.29019,6.70566,4.90359L368.41725,32.9Zm-39.41,27.15374L317.584,59.798l4.1969,3.01469,5.34039-4.9206Zm37.79581.87325,5.84152,4.08076c1.348-1.64152,2.55453-3.11082,3.711-4.5191l-5.83261-4.69742C362.17207,51.00271,361.10426,52.47692,359.73442,54.36819ZM766.41929,69.03187v31.76155H705.67942v65.02728c-6.74457.14717-12.95435.3376-19.16547.403-6.45337.068-12.908.01518-19.614.01518V0c4.80951,1.91689,8.85486,3.5292,13.28186,5.29362C685.02263.091,694.56059-.85186,700.234,3.73881c1.82825-.89733,3.45361-2.384,5.088-2.39394,24.54987-.14876,49.101-.103,73.98474-.103v33.7349H772.0623c-1.74005-2.44637-3.12958-4.4-5.15906-7.25337-1.01648,3.016-1.70538,5.06011-2.5285,7.50236-5.42914-1.0275-12.24274,2.36126-17.07562-2.08186-3.2569.8046-5.85718,1.94546-8.48248,2.00637-9.64032.22368-19.30188-.19264-28.92688.2519-3.08142.14232-6.07416,2.20551-9.36627,4.33046,6.4848,2.6468,5.0824,7.56842,5.10889,11.93015.03412,5.61443.00836,11.22923.00836,17.36913ZM722.83708,21.10178c1.96832-1.784,3.73975-3.38959,5.5625-5.04166q-2.65256-2.17933-5.509-4.52628c-1.51984,2.07818-3.03064,4.144-4.56055,6.236C720.04435,19.0372,721.72117,20.27684,722.83708,21.10178Zm41.69214-13.786c-1.5592,2.03416-2.89392,3.77539-4.13812,5.39853,2.043,1.732,3.9101,3.31494,5.81934,4.93356,1.35211-1.85023,2.74811-3.76057,4.05713-5.55191Zm-20.923,1.91415c-1.82422,2.27-3.42322,4.25983-4.99951,6.22135l5.64642,3.82344c1.557-1.86,3.09943-3.70251,4.59387-5.4878C747.07206,12.24354,745.45793,10.84,743.60618,9.22989ZM689.499,149.75656c1.897,1.5964,3.58978,3.02086,5.19366,4.37057,1.73993-2.14714,3.25037-4.011,4.84253-5.97578-1.95728-1.32687-3.75714-2.547-5.5058-3.73245C692.46287,146.26451,691.08848,147.88386,689.499,149.75656ZM676.22715,21.71145c1.79315,1.29979,3.5741,2.59071,5.35883,3.88433,1.59473-1.78728,2.9776-3.33706,4.33936-4.86322-1.83594-1.57975-3.54706-3.05205-5.32239-4.57966C679.10319,18.058,677.70646,19.83226,676.22715,21.71145Zm30.70538-2.91077c-1.851-1.60015-3.55475-3.073-5.34351-4.61932-1.48718,1.87889-2.88019,3.63872-4.358,5.50574q2.65613,1.95783,5.29547,3.90321Zm-29.0506,131.96655c-1.65131-1.22232-3.29449-2.43863-5.10236-3.77689-1.46118,1.6207-2.8407,3.1508-4.24622,4.70981,1.83862,1.57533,3.5271,3.022,5.20648,4.46091C675.2136,154.242,676.49839,152.56886,677.88194,150.76724ZM94.45677,61.41948c-5.73365-2.00911-7.62684-7.13256-6.4838-12.5164.617-2.906,3.93381-6.28726,6.83223-7.43542,5.51337-2.184,9.94989.71459,12.18068,4.83108,3.28632-2.46918,6.177-5.55183,9.735-7.05627a7.43728,7.43728,0,0,1,9.55289,3.39668,13.52791,13.52791,0,0,1-2.60687,16.103c4.679,3.20057,4.87131,5.05864,2.44449,13.62021-3.67271,12.957-10.57018,23.935-24.32364,32.41079,12.436,20.19508,24.87691,40.39813,37.84584,61.45868-15.16728,0-29.02783.07065-42.88455-.1268-1.17795-.0168-2.66658-1.60907-3.44162-2.83064q-9.4322-14.86654-18.60689-29.89587c-1.41927-2.31735-3.458-4.77289-.7474-7.89047l-3.06291,1.39874c-2.07722-3.15656-4.67438-6.06631-6.04716-9.46989-1.48522-3.68237-3.71377-4.3723-7.21895-4.24158-6.12344.22841-12.26156.06366-18.93208.06366v52.75873H0V73.28989l4.56182,3.51028,5.81736-6.17393C5.38055,67.90334,2.05777,63.957,3.54543,57.68651A9.60094,9.60094,0,0,1,11.288,50.098c5.47414-1.20852,9.30842,1.27866,12.08194,5.72282,1.85532-2.48128,3.19431-5.54063,5.53344-7.04854,2.40656-1.55138,5.78865-1.58949,9.52238-2.47424V79.13218c12.13843,0,23.76114.46248,35.30508-.28756,3.37389-.2192,6.83137-3.54072,9.70106-6.065C87.37233,69.31356,90.78952,65.25257,94.45677,61.41948Zm20.8595-1.56809-6.87383-6.16273c-1.84868,2.46523-3.71713,4.95682-5.44917,7.26649l6.59639,4.9352ZM31.25734,67.69074l-6.5605-5.61131-5.543,7.90024,6.07849,4.52748Zm16.387,14.93958L42.8849,88.28854l5.37431,3.57111,4.165-5.06786Zm63.945,2.71906,4.17165-4.53181c-1.76814-1.5269-3.45865-2.98675-5.18811-4.48022-1.45238,1.94785-2.70937,3.63364-3.98727,5.3475ZM32.42022,89.2407l-5.554-4.45638-4.1654,5.88609,4.651,3.40485Zm53.26736-5.48994L90.489,87.28489l4.13069-4.63323-4.98523-4.171ZM73.54372,84.8026l-4.89936-4.15813L64.70718,85.808l4.85317,3.42867ZM6.38976,96.18989l4.1745-4.48151-4.96114-4.2677L1.743,92.67569ZM1174.317,140.95395c-5.18713-.03188-9.20508-2.18838-11.101-5.59605-3.42761,2.6109-6.74365,5.13693-10.05981,7.663l.16077-.06691a12.70249,12.70249,0,0,1-11.91895-7.10782c-.72961,1.45032-1.29065,2.5656-2.37927,4.72969V129.03837c.58447.331,1.25928.71323,1.7063.96643,1.80432-2.51657,3.58765-5.00392,5.31018-7.4064-9.354-2.18677-9.37659-14.55089-5.05933-20.22714-.8634-1.93927-2.23413-3.58838-2.2395-5.24194-.10254-31.49442-.04529-62.98936-.00476-94.48418a4.289,4.289,0,0,1,.44141-1.1407h113.08508V35.14918h-74.35937V66.39483h64.61l.022.83189c-1.5603.64223-3.12061,1.28447-6.26965,2.58068,6.06384,2.271,7.157,6.02118,6.369,10.53292-.67187,3.84767-1.43579,7.67925-3.25818,11.04984,1.24976,1.99364,2.49951,3.98726,4.198,6.69682h-20.67554c1.345-2.04379,2.37488-3.6088,3.49658-5.31348-1.365-1.06876-2.76062-2.16155-4.65015-3.641-1.2367,1.374-2.52368,2.80379-4.13965,4.59906,1.55566,1.09752,2.9801,2.1024,4.40454,3.10728q-.27576.49571-.55139.99142h-17.51746q.63373-1.43349,1.39184-3.14784c-1.50623-1.15623-3.0675-2.35472-5.00915-3.84511-1.42481,2.28674-2.72778,4.37787-4.52588,7.26347-4.89331-.2567-11.60535,2.0746-16.80542-3.96835-1.3241,1.45216-2.42139,2.65562-3.0188,3.31085.64722,2.5956,1.66968,4.6738,1.571,6.6973-.25147,5.156-1.45557,10.29221-1.40332,15.42743.0376,3.69266,1.48462,7.371,2.4093,11.53413.88342.06822,2.31848.179,4.05017.31271.01209,5.87265-4.20215,7.74965-8.44043,9.606Zm-7.23718-20.27608c-2.44373-2.11264-4.85144-4.19414-7.0448-6.0903-1.85876,2.35756-3.78479,4.80054-5.44348,6.90436,2.44983,2.08081,5.02869,4.27121,7.30139,6.20168C1163.542,125.46312,1165.35936,123.005,1167.07982,120.67787Zm-9.30017-24.42465c-1.509,1.7222-2.75415,3.14325-3.67749,4.197,2.05811,1.91159,3.87122,3.59561,5.59558,5.1973.83655-1.38107,2.09448-3.45813,3.35913-5.54614ZM1198.863,78.664c1.03284-1.60009,1.87671-2.90759,2.78906-4.32109l-3.595-2.62447c-1.07642,1.15913-2.0575,2.21572-3.22949,3.47791C1196.23082,76.40213,1197.43834,77.43979,1198.863,78.664ZM870.17369,150.95237c-3.39239-.93916-3.612-4.62514-3.60138-8.91624q.16644-66.9714.06842-133.94347V2.44037c1.95673,1.27293,3.26434,2.12357,4.60248,2.99409C877.13023.4,886.8159-.513,890.47618,2.24787l14.932-1.32378V102.87721c-2.01837.91893-3.832,1.74469-5.64569,2.57043q.03717.78969.0744,1.57941c1.63538.50621,3.27069,1.01241,5.63782,1.74515-.4342,5.69411,2.82172,13.39371-6.4566,19.5573,3.9754,1.24528,6.63269,2.78323,9.3017,2.80385,24.82.19177,49.64215.12073,74.46362.14313a8.06266,8.06266,0,0,1,1.60754.37961v28.5574c-5.73419,1.285-9.07733-1.86009-12.0423-6.49728-1.7655,4.95016-4.50879,8.37024-9.7345,8.84528-5.12421.46579-8.47345-2.22742-11.18579-6.86635-1.86029,4.91479-4.53748,8.42375-9.723,8.91727-5.05438.481-8.47247-2.151-11.11761-6.48621-2.24774,10.55026-16.64264,10.98424-21.516,2.62933-.67737,4.94226-3.66425,6.0354-7.75214,5.51366-1.47528-.18829-3.007.09218-4.49139-.0567-2.76117-.277-6.21527,1.368-7.71423-2.65617-1.51428-4.06552-1.17334-7.847,1.70007-11.21872a32.301,32.301,0,0,1,2.5235-2.40619c-2.53076-1.743-5.03143-3.46521-7.73041-5.324-1.74231,1.86343-3.73181,3.99123-5.90125,6.31145,4.63507,2.17984,7.76434,5.63455,7.33911,11.3564-.20264,2.72658-1.17944,4.23047-4.32617,4.02553a107.59422,107.59422,0,0,0-11.9881-.01657c-2.95813.13812-4.73267-.85428-4.02264-3.91452C867.58451,158.592,868.9431,154.92613,870.17369,150.95237Zm58.23853-10.9109c-3.59155,2.28981-6.78467,5.79051-10.31659,6.17455-3.69385.4016-7.71344-2.19345-11.87366-3.57242-1.27,1.55267-3.17572,3.88248-4.69684,5.74216,2.684,2.35931,5.23053,4.59789,7.72681,6.79218,4.10913-10.29718,12.33942-11.29474,20.30322-2.55261,1.8291-2.70248,3.69757-5.46306,5.42517-8.01556C932.7122,143.03224,930.1735,141.26652,928.41221,140.04147Zm20.60315-3.87177c-1.87048,2.46277-3.87207,5.09811-5.5047,7.24765,2.63977,2.27928,5.19537,4.4859,7.40692,6.39549,1.74316-2.36815,3.67188-4.98848,5.3501-7.26843C953.80992,140.38409,951.382,138.25,949.01536,136.1697Zm21.62158-.87489c-2.0495,2.21317-4.09747,4.42465-5.82642,6.29172,2.43909,2.1909,4.94513,4.44191,6.99707,6.285,1.84357-2.45976,3.75366-5.0083,5.61157-7.48717C975.25767,138.76236,972.92607,137.01266,970.63694,135.29481Zm-91.0816-5.56667,5.15228,4.50017c1.45941-1.93088,2.73206-3.6147,4.11084-5.43889-1.72711-1.24658-3.38037-2.4399-5.06433-3.65535C882.23057,126.80108,880.91,128.246,879.55534,129.72815ZM187.64071,165.916c0-17.92975.06389-35.41678-.0759-52.90218a16.08127,16.08127,0,0,0-1.70831-6.99669c-5.23491-10.1478-10.72032-20.16636-15.53523-31.04931l5.276,3.20736,3.9707-4.19051-5.46953-5.753-4.841,6.71783c-4.45279-8.3873-8.54134-16.09376-12.6355-23.79723-1.30273-2.45119-2.29379-5.159-4.01007-7.27747-2.3927-2.95336-1.39615-5.04067.85973-7.18842,5.09384-4.84968,11.76308-3.4797,17.52388,3.83917,1.99432-5.50955,5.42133-8.9034,11.59892-8.63961,4.69243.20037,6.36179,3.52235,7.91679,7.0736,2.24216,5.12055,1.24658,9.3653-3.75468,12.39851l8.00778,5.50475c.59349-.65319,1.42873-1.57246,2.43137-2.676,3.3858,6.96749,6.65283,13.69054,9.871,20.31314,6.392-7.97908,6.8748-19.66812,15.56042-26.52883-1.67877-1.63309,1.87573-11.55241,7.59241-19.72157l4.83582,5.18065c1.67-4.50116,4.31546-7.99261,9.55124-8.47575,5.3941-.49774,8.7269,2.43723,10.73178,5.97675,2.52512-2.46271,4.70856-5.72241,7.75668-7.20827,2.45056-1.19457,5.94788-.24171,10.06549-.24171-3.79279,7.1497-6.90692,13.02013-11.11426,20.95132-2.28717-3.10738-3.98129-5.409-5.46179-7.42043-1.82788,2.62648-3.648,5.24187-5.67865,8.15968-.16177-.35731-.11932.00639.07.11572,7.84113,4.528,7.97623,4.59582,3.895,12.296-8.73386,16.47853-17.674,32.84787-26.37558,49.34316a16.011,16.011,0,0,0-1.77359,6.97139c-.17847,11.49492-.081,22.99411-.081,34.49179V165.916ZM228.7899,47.72765l7.62152,4.68865,5.90164-6.63158c-2.36615-2.13842-4.78491-4.32439-6.71384-6.06769C233.37135,42.33792,230.99186,45.13723,228.7899,47.72765ZM173.26121,59.98434l5.4478-6.96983-7.28052-6.39081-5.31876,7.18594Zm64.971,12.06794c1.52957-1.80038,3.01138-3.54453,4.51379-5.31289l-4.83054-4.16346c-1.50876,2.17139-2.88495,4.152-4.28116,6.16147ZM195.595,67.31157l-4.058,5.4689,4.98822,3.5271,4.07706-4.59809Zm21.00769-2.01988-4.00688,5.43561,4.95135,3.53252c1.48792-1.66628,2.765-3.09646,4.05377-4.53967C219.91273,68.22437,218.34686,66.837,216.60272,65.29168Zm860.73454,77.9277c-3.62158,9.685-14.0509,12.07381-21.09924,1.81064-1.67383,4.74728-4.46741,8.13248-9.71789,8.57283-5.11841.42928-8.439-2.33083-11.12769-6.87181-1.838,4.9859-4.652,9.14258-9.791,8.63139-4.01453-.39932-7.81946-2.906-11.74268-4.48636-2.18945,5.65167-4.807,7.62621-10.87744,7.26048V1.47413h37.34009c2.06958,13.86165,1.212,27.86107,1.29895,41.842.09107,14.66053.02039,29.32207.02039,43.98318v43.86332c7.16773-1.27484,10.33447,3.83,14.32165,8.23412,1.92261-4.34428,4.16174-7.9904,9.69653-8.26056,5.1781-.25275,8.56055,1.90384,11.41431,7.0332,1.189-6.1149,4.67395-7.65378,9.76086-6.987,4.09656.537,9.05762-1.63113,11.12134,4.84068.73987-4.50125,3.28076-5.08536,6.60242-4.832a51.50976,51.50976,0,0,0,8.98694-.01128c3.76489-.37547,5.07385,1.51941,5.35376,4.80783.41211,4.8387-1.4187,8.58121-5.8407,10.59229a9.86581,9.86581,0,0,1-11.90869-2.19226,43.80645,43.80645,0,0,1-2.82385-3.52072C1093.65391,151.78378,1085.37791,152.62181,1077.33726,143.21939Zm-70.40369-5.53348c2.18079,1.90125,4.58887,4.0007,6.69653,5.83832,1.79858-2.64313,3.66663-5.38831,5.52039-8.11258-1.90613-1.37563-4.11609-2.9705-6.18836-4.466C1010.87437,133.27984,1008.81541,135.582,1006.93358,137.68591Zm33.352-4.24229-6.58435-4.77c-2.02466,2.14578-3.93347,4.16891-5.62061,5.957,2.25208,2.06877,4.64258,4.26457,6.79346,6.24028C1036.593,138.51182,1038.45469,135.95663,1040.28563,133.44362ZM1015.6638,114.7243l-4.90832-3.45819c-1.78442,1.89664-3.3302,3.53973-4.83777,5.14206,1.9751,1.59706,3.70935,2.99948,5.441,4.39975C1012.79979,118.7715,1014.13328,116.88708,1015.6638,114.7243Zm16.11169-5.57594c-1.55676,1.7686-2.80444,3.18617-4.05859,4.611,1.75452,1.52524,3.32092,2.887,4.97961,4.32907,1.4137-1.83916,2.68237-3.48956,4.02234-5.2328C1035.08714,111.63188,1033.5543,110.4824,1031.77549,109.14836ZM798.05894,141.59008c.92554.54735,1.806,1.068,2.66345,1.57507,1.6488-2.01341,3.19067-3.89626,5.07086-6.19225-2.88055-.42694-4.0816-5.06-8.32007-1.59843,1.01691-6.53459-2.00519-13.07349,2.75317-18.08368-.952-2.1355-2.47253-3.96275-2.47949-5.79581-.13947-36.47946-.10406-72.95957-.10406-109.84771h30.50726C826.84623,3.54,825.79216,5.07015,824.59,6.81519q2.09326,1.62809,4.5639,3.54976c1.51941-1.81951,2.97852-3.56677,4.48737-5.37363-1.10309-1.03982-2.12274-2.001-3.6947-3.48292h6.35553V165.87812H802.61686c2.22858-2.96841,3.91913-5.22029,5.59961-7.45866-2.04114-1.559-4.25092-3.24675-6.657-5.08452-.94434,1.14838-1.95386,2.37607-3.50049,4.25684Zm18.94153,16.064c2.15161,1.79056,4.48328,3.731,6.58234,5.47781,1.87439-2.61818,3.71844-5.194,5.5636-7.77124l-6.20209-4.5582C820.85264,153.21359,818.82707,155.54849,817.00047,157.65409ZM802.90355,8.51719c1.85681,1.34375,3.662,2.65022,5.64819,4.08758,1.40448-1.60823,2.775-3.17756,3.23065-3.69931-1.80481-2.21822-3.42841-4.21363-5.01935-6.16893ZM825.802,134.73945c-1.74127-1.22733-3.41785-2.409-5.09442-3.5907q.41418.66424.82831,1.32849c-1.853,1.315-3.70605,2.62994-5.59955,3.97365,1.83618,1.50018,3.64233,2.97586,5.45276,4.455C822.83018,138.89227,824.15385,137.04257,825.802,134.73945Zm2.08362-107.2311c1.41449.99659,2.43225,1.71369,3.56769,2.51368,1.23395-1.398,2.28479-2.58856,3.49316-3.95767-1.41382-1.12224-2.54541-2.02042-3.82819-3.03862C830.09782,24.44086,829.1522,25.7521,827.88566,27.50835ZM1299.9586,128.00795c-1.10046.68317-2.20251,1.34857-3.28711,2.0415a9.51459,9.51459,0,0,0-3.94287,11.75009,9.61839,9.61839,0,0,0,18.53552-3.03375,9.55543,9.55543,0,0,0-7.0614-9.69991c-1.4325-.41443-2.92285-.62883-4.38672-.93474C1299.816,128.13115,1299.96495,128.00279,1299.9586,128.00795Zm-72.00452,15.98964a9.68941,9.68941,0,1,0,19.37329.46283,10.06349,10.06349,0,0,0-9.71265-9.99C1232.68553,134.43142,1228.1035,138.95018,1227.95408,143.99759ZM1121.28343,158.3043a9.64314,9.64314,0,1,0-19.28564-.0304c.02319,5.42793,3.00745,7.9621,9.37952,7.965C1118.254,166.24211,1121.23912,163.85109,1121.28343,158.3043Zm74.42444-18.70694a9.62246,9.62246,0,1,0,.11145,19.24341,9.62294,9.62294,0,0,0-.11145-19.24341Zm11.33093,7.62355a9.6034,9.6034,0,1,0,19.20386-.21933,9.603,9.603,0,0,0-19.20386.21933Zm-32.73889-6.25975c-1.07532.46373-2.14124.903-3.19006,1.37979-4.55127,2.06929-6.77783,6.27081-5.77307,10.869a9.53087,9.53087,0,0,0,9.69214,7.62874,9.64778,9.64778,0,0,0,9.092-8.38516c.64038-4.59216-2.01648-8.689-6.69751-10.31938-1.08655-.37845-2.178-.74254-3.26721-1.11325C1174.15623,141.02084,1174.317,140.95395,1174.29991,140.96116Zm-21,2c-1.07532.46371-2.14111.903-3.19006,1.37982-4.55127,2.06931-6.77783,6.2708-5.77295,10.8689a9.53045,9.53045,0,0,0,9.692,7.6288,9.64811,9.64811,0,0,0,9.09216-8.38513c.64038-4.59221-2.0166-8.689-6.69763-10.31946-1.08655-.37845-2.178-.74252-3.26721-1.11324C1153.15623,143.02084,1153.317,142.95395,1153.29991,142.96113ZM264.3068,2.889a9.17314,9.17314,0,0,0-9.016,9.31146A9.35129,9.35129,0,1,0,273.991,12.029,9.19408,9.19408,0,0,0,264.3068,2.889ZM167.99061,23.20729a9.3511,9.3511,0,0,0-18.69978-.18451,9.3512,9.3512,0,1,0,18.69978.18451ZM20.02558,38.20694a9.21943,9.21943,0,0,0-9.04324-9.35287,9.38838,9.38838,0,1,0-.43424,18.77011A9.22545,9.22545,0,0,0,20.02558,38.20694Zm75.245-17.40268a9.43612,9.43612,0,1,0,9.80554,9.18914A9.33675,9.33675,0,0,0,95.27061,20.80426Zm-56.623,17.94695c.04073-.98185-.21263-2.47355.31079-2.85861,4.01054-2.95045.61789-4.98576-1.0468-6.57284-3.37032-3.2132-7.50845-3.39495-11.41776-.93745-4.01981,2.52694-5.08316,6.49194-3.73835,10.85875,1.31724,4.27728,4.60345,6.2711,8.6802,6.38736C36.484,45.54839,38.44783,43.568,38.64764,38.75121Zm1055.7957,127.5149c5.11914.72066,5.84778-2.74251,5.85315-6.40019.00757-5.09163-4.66882-9.39594-9.74475-9.386a10.02757,10.02757,0,0,0-9.62939,10.04582c.175,4.93867,1.47,5.71318,9.55164,5.7131A28.7169,28.7169,0,0,1,1094.44334,166.26611ZM251.667,11.75875a8.96876,8.96876,0,0,0-7.748-6.78949c-4.35159-.71435-4.42316,3.14271-5.83133,5.45922-.916,1.50678-1.1174,3.4635-2.08932,4.91761-2.51358,3.76066-.63754,5.8171,2.5943,7.36494,6.29681,3.01577,13.40643-1.51981,13.39746-8.92356A12.92992,12.92992,0,0,0,251.667,11.75875Zm822.83667,142.76553a8.939,8.939,0,0,0-11.79822.04588c-3.62293,3.06419-5.00085,6.84019-2.80261,11.5183h17.48987C1079.58165,161.34271,1078.15367,157.55929,1074.50364,154.52429ZM81.6939,25.98921A9.59287,9.59287,0,0,0,69.92568,24.1177c-4.05209,2.32035-5.28506,5.97664-3.92425,10.08781l15.79142,3.91232C84.7163,33.927,84.80011,29.50441,81.6939,25.98921Zm970.70257,129.71141a8.55267,8.55267,0,0,0-10.19385.42137c-3.27454,2.45369-4.8949,5.56146-4.15186,9.84265h19.19275C1057.90354,161.2471,1056.11717,157.923,1052.39647,155.70062ZM348.86784,13.02067c5.598-.1129,9.42142-4.8171,9.05078-11.46946H339.41337C338.9076,8.298,343.0055,13.1389,348.86784,13.02067ZM170.54092,20.55383a14.9914,14.9914,0,0,0,4.54962,8.63149c2.835,2.51024,6.68893,1.89518,10.24242-.48361-2.32339-5.02078-4.49341-9.76-6.72145-14.47174a14.11,14.11,0,0,0-1.52866-2.08964C173.01184,13.61388,170.00416,16.3786,170.54092,20.55383ZM108.20256,31.4469a9.36136,9.36136,0,0,0,11.34924,4.73443c1.83389-.626,4.18556-1.30428,2.44838-4.09954-2.79742-4.50129-5.69165-8.94242-8.75069-13.731C107.45356,22.45928,106.01335,26.96211,108.20256,31.4469ZM1311.03514,159.14427a7.3948,7.3948,0,0,0-14.78894.12625c.01782,4.23244,2.79712,6.91821,7.20984,6.9673C1308.1649,166.2902,1311.08946,163.553,1311.03514,159.14427Zm76.41321-16.15268a7.24994,7.24994,0,1,0,7.43957,7.05487A7.02455,7.02455,0,0,0,1387.44835,142.99159ZM52.844,25.00056c-5.46819.406-8.63943,4.46764-7.76085,10.08028H62.6347C62.47332,28.24574,58.7193,24.56427,52.844,25.00056ZM71.53259,4.25422A7.0451,7.0451,0,0,0,64.65616,11.347a6.98537,6.98537,0,1,0,13.96907-.21613A7.04617,7.04617,0,0,0,71.53259,4.25422ZM8.36786,10.366c-3.99926.37478-6.3487,2.75109-6.60167,6.779a6.93511,6.93511,0,0,0,6.90259,7.006,7.08486,7.08486,0,0,0,6.8849-7.06427C15.4643,13.35086,12.06192,10.01981,8.36786,10.366Zm14.39872,5.02436c.29116,4.0195,2.65,6.38669,6.65851,6.72245,3.70073.31,7.0714-3.04452,7.12776-6.7793A7.07845,7.07845,0,0,0,29.6109,8.32682C25.87273,8.34509,22.49751,11.67588,22.76657,15.39035Zm34.81516-2.49486A6.94553,6.94553,0,0,0,43.7,13.33244a6.94541,6.94541,0,1,0,13.88175-.43695Zm43.29337-2.33215c.0609-2.14889-7.28931-7.55164-10.6934-6.88767-1.5917.31046-3.43029,3.26646-3.77219,5.26082-.7169,4.18181,2.87465,7.64611,7.14156,7.69691C97.22107,16.67709,100.78559,13.72287,100.8751,10.56334ZM1290.20042,161.87216c.39368-4.26369-3.1814-8.61391-7.4292-8.11313-5.26111.62025-5.59729-.361-4.90247,12.04831C1287.83409,166.985,1289.78807,166.3377,1290.20042,161.87216Zm-254.18347,4.16292c-1.00049-5.3381-4.02576-8.31-8.66907-8.6824-4.84436-.38857-8.50354,2.512-10.37524,8.6824ZM334.34019,12.02116a8.672,8.672,0,0,0,2.04114-10.38167C324.99672-1.6424,327.81245,9.41322,323.57655,13.775,328.17332,15.77879,331.55146,14.77367,334.34019,12.02116ZM1372.55491,147.84483c-2.56128-3.48415-6.64734-3.76224-10.92187-.57166q3.7619,5.8784,7.5437,11.788C1374.07078,156.00453,1375.33677,151.62886,1372.55491,147.84483Zm-188.78027-16.34625c2.15515,4.80688,5.34595,7.13242,10.1438,7.01585,4.56519-.11089,7.61279-2.3858,9.49622-7.01585ZM156.709,9.63326c4.53271-.04026,7.08948-3.087,6.74907-8.19938H149.68895C149.621,6.7501,152.18574,9.67344,156.709,9.63326ZM1238.92125,158.40693c-4.17908.64241-6.76038,3.01967-6.96082,7.69774h15.43848C1246.00132,160.4333,1243.078,157.768,1238.92125,158.40693ZM133.621,8.14122c1.92191,3.82214,4.84369,4.41143,7.2789.96356,1.39412-1.97385,1.55136-4.82129,2.39528-7.7216H130.28875C131.63,4.10626,132.61041,6.13134,133.621,8.14122ZM1255.37877,133.30572c-4.36182,1.78592-6.29675,4.88934-6.30127,8.92375-.00452,4.03777,1.92383,7.14946,6.30127,8.93649Zm-29.14807,32.64919c-1.42908-3.9146-3.92175-5.65775-7.527-5.69658-3.62927-.03914-6.15039,1.6929-7.67761,5.69658Zm-223.233-6.41351v6.4122h11.4762C1012.23631,160.56215,1009.31968,158.92894,1002.99766,159.54139Zm203.07446-27.87567c5.3916,6.51176,11.84985,6.49641,17.08386,0Zm204.69434,22.87634q-3.59289-5.54235-7.18555-11.08467-.95728.25454-1.91443.50909c.335,2.84554-.13806,6.20508,1.24719,8.38249,1.22375,1.92334,4.51892,2.52888,6.89941,3.71628Q1410.28971,155.30365,1410.76646,154.54206ZM145.642,30.48924c2.413-8.63877.344-12.46868-7.77878-14.6087C140.6343,21.08471,142.856,25.25714,145.642,30.48924ZM278.00044,14.623c2.38589-4.36062,4.59766-8.403,7.15878-13.08385C277.53846,2.2243,274.562,7.88463,278.00044,14.623Zm913.30435,151.42374h12.91931C1199.83445,160.59024,1194.89732,160.67451,1191.30479,166.04672Zm125.06409-23.4906V129.65205C1311.75657,134.25836,1311.82982,138.80964,1316.36888,142.55612Zm-177.29919,20.52c4.14343-5.37686,4.101-8.66925,0-13.38663Zm-161.98535,2.93951H984.324v-5.97179l-7.73578,4.79189Q976.83635,165.42566,977.08433,166.01562Zm-19.95685.0045h13.5614C965.45073,162.61326,961.57475,161.84893,957.12748,166.02012Z"/>
</svg>
