<svg id="Layer_1" data-name="Layer 1" xmlns="http://www.w3.org/2000/svg" width="334.92118" height="304.64984" viewBox="0 0 334.92118 304.64984">
  <title>indie-memphis-white</title>
  <path d="M114.73749,118.69672a6.4218,6.4218,0,0,0,.70239.05579c4.16327,0,4.16327-1.66406,8.322-1.65942,4.16327,0,4.16327,1.6687,8.31262,1.6734,4.14465,0,4.14465-1.65479,8.31726-1.65479,4.16327,0,4.14935,1.6687,8.308,1.6687,4.154.00928,4.154-1.65942,8.32654-1.65942,4.15863.01862,4.14935,1.6687,8.30756,1.68268,4.15906,0,4.15906-1.66406,8.31769-1.65942,4.17261.00928,4.16333,1.6687,8.33594,1.6687a9.772,9.772,0,0,0,1.40015-.093,11.867,11.867,0,0,0,.27448-2.73779,1.24008,1.24008,0,0,0-.107-.0744l-.05585-.02783c-.00928-.06976-.014-.14874-.03723-.28821a1.97274,1.97274,0,0,0-.26978-.84131l-.09772-.11157c-.24188-.26032-.50238-.50665-.75354-.767a6.0449,6.0449,0,0,1-.29773-.69257,2.16915,2.16915,0,0,0-.73029-1.05054l-.014-.01392-.093-.079-.12561-.04645-.047-.03253h-.04138a.8355.8355,0,0,0-.25122-.04187.66428.66428,0,0,0-.47449.18591c-.04181.03723-.09766.06976-.17676.13019a3.06968,3.06968,0,0,0-.17676-.34863c-.09766-.21844-.17676-.40906-.23724-.56244a.72122.72122,0,0,0-.62329-.36719H178.908a1.76692,1.76692,0,0,0-.08838-.52063,3.90129,3.90129,0,0,0-.42328-.92035.71126.71126,0,0,0-.61871-.34857H177.759a1.724,1.724,0,0,1-.2605.01392.33423.33423,0,0,1-.107-.01392,1.37737,1.37737,0,0,0-.28839-.06512h-.00928a1.25315,1.25315,0,0,1-.1535-.33929,5.09148,5.09148,0,0,0-.34888-.82275,2.68205,2.68205,0,0,0-.43262-.50665,2.4096,2.4096,0,0,1-.2605-.265c-.13025-.19983-.24658-.41833-.36749-.6228a2.776,2.776,0,0,0-.85126-.97614,2.653,2.653,0,0,0-.963-.35791,3.50236,3.50236,0,0,0-.5675-1.57111,2.33163,2.33163,0,0,0-.87915-.74371,2.51973,2.51973,0,0,0-.828-.2417.33516.33516,0,0,0-.03259-.02789l-.06042-.13019-.03259-.03717a2.75606,2.75606,0,0,1-.03253-.60425,3.70692,3.70692,0,0,0-.04657-.50665,1.414,1.414,0,0,0-.13489-.45557,1.566,1.566,0,0,0-.34888-.71582,1.28085,1.28085,0,0,0-.46979-.34857c-.214-.10229-.37683-.12555-.46057-.16736,0-.00928-.02789-.01392-.02789-.01392-.079-.29749-.1814-.59033-.2605-.87854l-.00928-.08368a7.78475,7.78475,0,0,0-.77686-1.37585,4.54021,4.54021,0,0,0-1.09778-1.20392,6.42364,6.42364,0,0,0-1.34436-.77155l-.13025-.02325c-.19537-.04651-.37677-.08368-.57214-.11621-.06982-.0976-.20471-.27893-.36749-.47412a1.66167,1.66167,0,0,0-.414-.3858,1.27507,1.27507,0,0,0-.66986-.22778h-.04236a1.45855,1.45855,0,0,0-.38562.06042c-.15814.04187-.307.093-.44189.12085l-.05115.01862-.01862-.00928a1.104,1.104,0,0,0-.32562-.251,7.17537,7.17537,0,0,0-.935-.3858,2.59291,2.59291,0,0,1-.47449-.20917.5732.5732,0,0,0-.04187-.11157.8359.8359,0,0,0-.321-.43225,2.80164,2.80164,0,0,0-.56287-.32074c-.04651-.02789-.093-.06506-.1488-.093a.62514.62514,0,0,0-.03259-.50665c-.02325-.04181-.04651-.0976-.0791-.172a.59135.59135,0,0,0,.14423-.19989.74807.74807,0,0,0,.06976-.40436,1.26636,1.26636,0,0,0,.307-.26959,7.67084,7.67084,0,0,0,.66522-1.14349,7.28477,7.28477,0,0,0,.414-1.162,3.917,3.917,0,0,1,.32562-.92035c.25116-.53918.85126-1.16669,1.31134-1.88251.73541-1.16669,1.35876-2.28693,2.07513-3.40717.50238-.81805,1.18616-1.62219,1.83276-2.49139a3.6895,3.6895,0,0,1,.34888-.38116c.05115-.05579.11163-.13947.17676-.21381a10.13319,10.13319,0,0,1,1.37225.502c.69312.28351,1.38623.6275,1.9491.85059,2.71149,1.12488,5.38666,1.97083,8.10327,2.98419a12.11321,12.11321,0,0,0,3.90747.87848,4.11443,4.11443,0,0,0,2.04675-.4834A5.14385,5.14385,0,0,0,187.002,82.1897a5.84849,5.84849,0,0,0,.814-2.79358,3.22207,3.22207,0,0,0-.45587-1.73383,3.7847,3.7847,0,0,0-.8233-.88312c-.50238-.39044-1.10248-.78558-1.67462-1.15741-.549-.34863-1.0885-.69257-1.41412-.90643-1.17224-.82733-2.2887-1.84534-3.49811-2.78424-.46515-.46484-.921-.92035-1.38623-1.38055,0-.20917.02325-.45551.02325-.71118v-.02319a113.888,113.888,0,0,1,14.49475,7.4046c1.47925.91565,2.93524,1.79419,4.37732,2.67267.36279.22778.75354.3858,1.06525.5578a3.326,3.326,0,0,1,.74426.46021.64956.64956,0,0,0,.493.19983h.0791a.69219.69219,0,0,0,.55823-.28351.82941.82941,0,0,0,.13953-.35327.661.661,0,0,0,.16748-.2417.692.692,0,0,0-.16284-.767c-.307-.32074-.628-.63214-.93964-.9668a.08085.08085,0,0,0,.01862-.04187.71574.71574,0,0,0-.09766-.85529q-2.27472-2.24506-4.53595-4.52271l-.07861-.06042a7.83386,7.83386,0,0,1-.99078-.95288,8.916,8.916,0,0,0-1.15826-1.12488,5.88828,5.88828,0,0,1-.51172-.37183,2.37035,2.37035,0,0,1-.24652-.20453c-.08838-.26959-.16748-.52527-.27448-.79022l-.01392-.06506c-.29309-.65076-.59546-1.25964-.88385-1.93829a17.75821,17.75821,0,0,0-.97687-1.72913,9.81282,9.81282,0,0,1-.89313-1.51532,10.69594,10.69594,0,0,1-.38147-1.46417,6.09449,6.09449,0,0,0-.28375-.88782,4.88065,4.88065,0,0,0,.66522-.20917c.51172-.22314.98151-.51129,1.35828-.66467a2.03223,2.03223,0,0,0,.20935-.15344l.0791-.08362a.68875.68875,0,0,0,.20465-.55316.71415.71415,0,0,0-.4884-.61359c.01862-.01392.03253-.02319.03253-.04181a.64821.64821,0,0,0-.13025-.81342.40933.40933,0,0,0-.12561-.19989,10.51023,10.51023,0,0,0,.96759-.4881c1.28851-.80414,2.74451-1.55713,4.10278-2.4635.60938-.40906,1.12109-.88782,1.58624-1.16675a.73387.73387,0,0,0,.37213-.57635v-.06042c0-.12085-.01392-.21381-.01392-.265v-.06042a.51989.51989,0,0,1,.1814-.06506,5.11829,5.11829,0,0,1,.76752-.093,5.3786,5.3786,0,0,0,1.00012-.14874c2.11188-.61359,4.41449-.90179,6.75433-1.54785,4.14929-1.17139,8.67548-1.83606,13.00153-3.04462,2.01886-.56708,4.24707-.75763,6.3775-1.33868,2.05145-.55774,4.28894-.7251,6.46124-1.34332.34888-.093.77686-.15338,1.21411-.22308a3.55311,3.55311,0,0,0,1.18622-.4137.6751.6751,0,0,0,.521-.32538.74452.74452,0,0,0,.11627-.29285c.093-.06042.19073-.10229.307-.18591a1.33609,1.33609,0,0,0,.34424-.344c.12561-.18591.19073-.33.25586-.42761l.06976-.11157v-.00928a.65569.65569,0,0,0,.27911-.58569.70838.70838,0,0,0-.17676-.45551.682.682,0,0,0,.386-.47876.71251.71251,0,0,0-.32092-.75769,1.42732,1.42732,0,0,0-.2605-.11157,2.93889,2.93889,0,0,0-.535-.05109c-.521,0-1.22339.079-1.89789.15338-.3396.05109-.66058.079-.91638.11621-.26984.03717-.46521.07434-.61407.10687h-.1488c-.13495,0-.335-.01392-.58612-.03253a2.11719,2.11719,0,0,1,.49774-.2417,4.89336,4.89336,0,0,1,1.014-.20453,6.299,6.299,0,0,0,1.23273-.2417c.88379-.3114,1.66528-.78552,2.40027-1.05048.31165-.11621.735-.21387,1.1955-.34863a3.02979,3.02979,0,0,0,.70709-.29285,3.12213,3.12213,0,0,0,.46051-.34393.96052.96052,0,0,0,.19073-.13947.73205.73205,0,0,0,.19537-.49738v-.1441a.73981.73981,0,0,0-.28845-.581.80238.80238,0,0,0-.41864-.13019.4488.4488,0,0,0-.21863.04187,8.70667,8.70667,0,0,1-1.73047.33929c-.62329.08368-1.29315.13947-1.963.28821-.44189.02789-.87915.04645-1.30713.0697l-.12091.01862a8.72808,8.72808,0,0,1-1.22345.12549,8.87511,8.87511,0,0,0-1.5304.16736,28.61552,28.61552,0,0,1-4.17261.53455,29.473,29.473,0,0,0-4.25629.57635c-.65594.06506-1.31183.1441-1.96307.22314l-.079.01392c-1.38159.33-3.0097.33-4.6936.73444-3.91211.94824-8.18237,1.25964-12.12238,2.37524-.87451.14874-1.73511.28815-2.60962.423l-.06976.02325c-2.08862.595-4.52148.78088-6.945,1.334a3.9614,3.9614,0,0,1-1.07922.10229h-.53027a6.22254,6.22254,0,0,0-1.42346.11621,8.31055,8.31055,0,0,1-1.75366.16266,17.669,17.669,0,0,1-4.21448-.52521,34.93452,34.93452,0,0,1-8.95923-3.55591c-4.51678-2.75641-8.61963-6.29834-13.21088-9.19415-3.1864-1.99872-6.531-3.67212-9.66162-5.57324-1.66064-.98077-3.44226-1.61292-4.8006-2.57971a1.15747,1.15747,0,0,1-.16278-.25568,1.3701,1.3701,0,0,1-.12561-.21381.70346.70346,0,0,0,.45123-.65076v-.71582a.26272.26272,0,0,0,.09766-.079.65426.65426,0,0,0,.27911-.52985c0-.08368.00934-.17664.00934-.27893a.37825.37825,0,0,0,.079.00928h.08838a.7057.7057,0,0,0,.51636-.23236.6923.6923,0,0,0,.1814-.53455c-.02325-.27429-.04187-.54852-.05579-.81812l.03253-.02325h.03723a.53042.53042,0,0,0,.16748-.0976h.05579a.70427.70427,0,0,0,.72571-.85065,2.54159,2.54159,0,0,0-.08844-.409.68659.68659,0,0,0,.58612-.344.6997.6997,0,0,0,.03259-.68329,1.81934,1.81934,0,0,1-.1214-.2417l-.01349-.05579c.079-.0697.13489-.158.20929-.23706a2.6657,2.6657,0,0,0,.45123-.64142l.03723-.09766c.06512-.2417.13953-.4834.20465-.7251a17.585,17.585,0,0,1,.99548-1.4967,7.88534,7.88534,0,0,1,1.14435-1.269,3.46082,3.46082,0,0,1,1.21405-.502c.51172-.12085,1.0885-.23706,1.75372-.4137,1.10248-.3114,2.37238-.50665,3.647-.90637a8.06314,8.06314,0,0,1,2.20953-.48346h.04187a.95116.95116,0,0,0,.13489-.03253l5.19135,4.188-2.25146,7.87872,7.15436-4.65283,7.15436,4.65283-2.59564-7.87872,6.4519-4.92712h-7.95441l-3.05621-7.85547L169.31611,9.0268h-6.52173a.65764.65764,0,0,0-.093-.3114,3.87346,3.87346,0,0,0-1.59088-1.32007,11.36117,11.36117,0,0,0-3.38177-.9715,24.95343,24.95343,0,0,0-3.6377-.26031h-.03253c-1.03735.05579-2.05609.093-3.09338.13947a2.797,2.797,0,0,1-1.0141-.68329,11.50651,11.50651,0,0,0-1.33038-1.176A29.56479,29.56479,0,0,0,142.00587.79022a9.34463,9.34463,0,0,0-2.57239-.43231C138.559.30677,137.68909.27887,136.968.172A10.055,10.055,0,0,0,135.68415,0a2.20821,2.20821,0,0,0-.60937.08368,2.98137,2.98137,0,0,0-.32556.1394h-2.27472a.723.723,0,0,0-.4.13483.8851.8851,0,0,0-.228.24634,1.06882,1.06882,0,0,0-.107.2417l-.01392.02325a1.23746,1.23746,0,0,1-.35358.03253h-.51166a.65742.65742,0,0,0-.50708.20917l-.06976.06976a.74841.74841,0,0,0-.22791.54382,1.60336,1.60336,0,0,1-.14423.10223,12.73627,12.73627,0,0,1-1.37225.6601,11.59707,11.59707,0,0,0-1.40479.66467,4.63861,4.63861,0,0,0-1.02344.89709,3.423,3.423,0,0,1-.73956.65076.74322.74322,0,0,0-.3396.78088,1.53034,1.53034,0,0,1,.04651.34863l-.01862.11621v.00928l-.0744.13947a.94558.94558,0,0,1-.28839.19989,1.8019,1.8019,0,0,1-.50708.18591.761.761,0,0,0-.50238.54382,3.055,3.055,0,0,0-.01862.3858c-.01862.17664,0,.35327-.01862.49274l-.02325.16266v.02789H123.613a1.53748,1.53748,0,0,1-.33026.28357c-.17212.10687-.36749.20917-.36749.20917a.632.632,0,0,0-.45123.4137l-.00464.01392a.80823.80823,0,0,0-.12561.40442,1.67989,1.67989,0,0,0,.23724.84595,1.15634,1.15634,0,0,0,.21863.28357,5.20544,5.20544,0,0,1-.08374.68793,1.05928,1.05928,0,0,1-.27911.53918,6.064,6.064,0,0,0-.76752.9436,2.05391,2.05391,0,0,0-.31165.90173c-.028.12085-.03723.21844-.06049.27887l-.014.06506-.00928.02789a3.9464,3.9464,0,0,1-.64661.69263,7.42889,7.42889,0,0,0-.71173.68793.43391.43391,0,0,0-.1814.13013.68282.68282,0,0,0-.19073.49738v.07434a.65472.65472,0,0,0,.21863.516.71348.71348,0,0,0,.45123.18591s.06976,0,.10236-.00464c.093-.00464.16278-.03253.26514-.03717a.10485.10485,0,0,1-.03723.04181.74576.74576,0,0,0-.04187.74371,1.15787,1.15787,0,0,0,.26984.33466c-.07446.20453-.16748.437-.25586.70654l-.014.18591v.55316c-.04187.05579-.093.12549-.13953.19519a1.49049,1.49049,0,0,0-.14886.22778,1.044,1.044,0,0,0-.14886.37189.60325.60325,0,0,0-.02325.21381,1.01446,1.01446,0,0,0,.13489.46014,3.41143,3.41143,0,0,1-.17212.42767c-.08838.23706-.2.4834-.293.74371a11.94519,11.94519,0,0,0-.307,1.3526,2.51919,2.51919,0,0,1-.335.90643.76226.76226,0,0,0-.13025.409V24.761a.70738.70738,0,0,0,.42334.63678l.03253.00928-.01392.02325c-.01862.22314-.03723.44159-.06049.62286-.014.17664-.05585.32538-.05585.36255-.05115.20453-.24188.58569-.42328,1.0412a4.60715,4.60715,0,0,0-.35352,1.65479,2.9026,2.9026,0,0,0,.093.79486c.14886.47876.38611.95752.57678,1.47809a4.41116,4.41116,0,0,1,.35822,1.5014,1.94931,1.94931,0,0,1-.03723.37646,13.64664,13.64664,0,0,1-.78613,1.8407c-.36285.88782-.46985,1.66406-.74426,2.39386-.06512.13947-.19537.423-.31635.76227a2.948,2.948,0,0,0-.2605,1.13422c0,.0697,0,.158.0047.23706.75354,4.77368,2.46539,8.43646,4.06555,12.11786.77222,1.73376,1.1676,3.91382,2.27936,5.72662,1.0885,1.79419,2.41888,3.36066,3.6051,4.955a24.96987,24.96987,0,0,0,5.57275,5.04333c.46985.34393,1.042.70654,1.5769,1.097a7.48866,7.48866,0,0,1,1.23737,1.12018c.19537.251.3396.6275.6792,1.05518a2.6286,2.6286,0,0,0,.68842.581,2.25826,2.25826,0,0,1,.321.26959.66562.66562,0,0,0,.58148.3161h.06976a.75437.75437,0,0,0,.55353-.26031.81773.81773,0,0,0,.14886-.595.55983.55983,0,0,1-.02789-.05579,3.31155,3.31155,0,0,1,1.042.59033c.62329.47412,1.1908,1.097,1.88861,1.60828.32562.21387.65118.40442.9303.59967a2.717,2.717,0,0,1,.60938.5531.72771.72771,0,0,0,.5675.30212h.13959a1.95086,1.95086,0,0,0,.47449-.04181.5811.5811,0,0,1,.09766-.02789,1.95119,1.95119,0,0,1,.44659.2417,2.43087,2.43087,0,0,0,1.1955.56244.22086.22086,0,0,0,.0744.01392.71163.71163,0,0,0,.50238-.18127l.014-.02789a3.53785,3.53785,0,0,1,.92566.51135,4.692,4.692,0,0,1,1.11646,1.15741.71191.71191,0,0,0,.58612.316h.08368a.6765.6765,0,0,0,.49774-.20453.73009.73009,0,0,0,.20471-.502v-.19519a2.99044,2.99044,0,0,1,.34888-.014,1.06914,1.06914,0,0,1,.19067.00934c.06982.06042.12561.11621.19537.18127a.65684.65684,0,0,0,.4931.21381l.06512-.00464c.19537-.03253.36749-.03717.57684-.06042a1.02844,1.02844,0,0,0,.11627.07434,4.34012,4.34012,0,0,1,.94427,1.004.7156.7156,0,0,0,.59546.30212h.08838a.66539.66539,0,0,0,.53961-.251.47911.47911,0,0,1,.13025.11621.76239.76239,0,0,0,.57678.29749h.14886a.70293.70293,0,0,0,.60474-.344.82975.82975,0,0,0,.107-.33466,1.076,1.076,0,0,1,.37677.19055.63433.63433,0,0,0,.47449.19525h.079a.76328.76328,0,0,0,.24658-.04187,25.70228,25.70228,0,0,1-1.91187,2.0824c-.35352.32074-.70709.65076-1.042.97614l-.08374.079a20.87923,20.87923,0,0,1-1.93976,1.99872,19.36151,19.36151,0,0,1-1.93512,1.864l-.0744.0697c-.842.846-1.67,1.678-2.512,2.51007-.78149.60425-1.33966,1.2829-1.9444,1.72449a11.14294,11.14294,0,0,0-2.5166,2.31012,3.75441,3.75441,0,0,0-.53027,1.30151c-.05585.19525-.11163.37653-.16748.52527a.66233.66233,0,0,1-.11163-.00934c-.23724-.00928-.4931-.03253-.72565-.03253a2.4459,2.4459,0,0,0-.40472.02325,1.44923,1.44923,0,0,0-.24188.04651,2.42609,2.42609,0,0,0-.7536.12085.72359.72359,0,0,0-.47449.67859,4.67292,4.67292,0,0,0,.09772.767,1.19324,1.19324,0,0,0,.093.28357.61826.61826,0,0,0-.04187.05115c-.13489.12549-.32092.26489-.52563.46014a9.01747,9.01747,0,0,1-1.50714,1.38049,7.51833,7.51833,0,0,1-1.33038.55316,6.31145,6.31145,0,0,0-1.10248.502c-.03723-.04181-.08374-.08832-.121-.13483a1.62107,1.62107,0,0,0-.31628-.28815,1.156,1.156,0,0,0-.52563-.20453l-.16284-.01862a1.5333,1.5333,0,0,0-.80939.26959,8.80635,8.80635,0,0,0-.80939.65076,2.41729,2.41729,0,0,1-.29773.23706l-.09351.0697h-.01349a5.37292,5.37292,0,0,1-1.1908.22314,5.54,5.54,0,0,0-1.44672.30676,6.36211,6.36211,0,0,0-1.39087.88318c-.19537.15338-.4.3161-.58148.46014a1.98778,1.98778,0,0,0-.43256-.21844l-.121-.05579-.05627-.02325-.03674-.00928a.68451.68451,0,0,0-.7536.19525c-.75824.80414-1.34436,1.71985-1.98627,2.47284-.05585.02325-.14886.06042-.27448.10687a.83953.83953,0,0,0-.321.14874,1.11576,1.11576,0,0,0-.35352.39978,1.37739,1.37739,0,0,0-.15814.63214,1.73539,1.73539,0,0,1-.4931.172c-.38611.10223-.87451.18127-1.34436.28351a6.02468,6.02468,0,0,0-.70239.19061,2.15846,2.15846,0,0,0-.628.30212,1.81309,1.81309,0,0,0-.27911.21844l-.06976-.03717a.6314.6314,0,0,0-.44189-.15338h-.05585a2.09227,2.09227,0,0,1-.26978.02789,1.26031,1.26031,0,0,0-.37213.16266l-.15814.15344a1.46691,1.46691,0,0,0-.307.74835,2.15957,2.15957,0,0,1-.08374.38116c-.14423.33466-.2652.70184-.40936,1.03186a6.22891,6.22891,0,0,1-.40936.84131,1.49353,1.49353,0,0,1-.3396.28821,2.71712,2.71712,0,0,0-.34888.33,3.29657,3.29657,0,0,0-.28375.45087,1.95541,1.95541,0,0,0-.1535.74841,3.49442,3.49442,0,0,0,.09308.76691,4.04646,4.04646,0,0,1,.05115.5578.32859.32859,0,0,1-.01862.1441c-.1535.34863-.307.6972-.47913,1.04584l-.02789.079c-.26514.832-.30237,1.692-.45587,2.28693a2.03692,2.03692,0,0,0-.06512.46948,1.72546,1.72546,0,0,0,.05579.43689c.00934.08832.02325.14874.02325.19525l-.01392.08832C114.90027,117.19074,114.891,117.98554,114.73749,118.69672Zm40.29321-33.11847c1.88391-1.88721,3.94464-3.66748,5.92627-5.54535a5.96317,5.96317,0,0,1,.72565-.5531,14.1013,14.1013,0,0,0,1.456-1.14349,3.788,3.788,0,0,0,.628-.78552c.014-.04187.02789-.05115.03723-.08368.0744.03253.15814.07434.24188.10687a7.22688,7.22688,0,0,1-.57684.97614c-.35352.516-.73492,1.02264-1.07916,1.55719-1.11176,1.78491-2.24213,3.449-3.38647,5.1781-.52563.7948-.91638,1.55713-1.40015,2.17535A8.08894,8.08894,0,0,1,156.44947,88.66a7.39341,7.39341,0,0,0-1.10248,1.16669,3.80284,3.80284,0,0,0-1.32111.37189c-.43256.20453-.7489.39508-1.0885.54382a1.81155,1.81155,0,0,0-.17676.05579V90.7749a3.13433,3.13433,0,0,0-.16278-.85992,4.16126,4.16126,0,0,0-.64661-1.255C152.97,87.62812,154.00263,86.61945,155.03071,85.57825ZM12.341,183.05817,0,173.12494H16.10889l6.12634-15.81781,6.1449,15.81781H44.46583l-13.10394,9.93323,5.2937,15.93408-14.42035-9.42194L7.74512,198.99225ZM62.77228,163.082h15.346v43.09357h-15.346Zm-.95361-16.60339a8.58939,8.58939,0,1,1,8.60565,8.58527A8.66286,8.66286,0,0,1,61.81867,146.47858Zm49.6463,27.33759c-6.16815,0-7.94977,4.6203-7.94977,10.02618V206.177H88.19709V163.08344H103.5152v5.51746h.16278c3.51209-5.22,7.787-6.95374,13.82031-6.95374,11.55487,0,16.22516,7.30231,16.22516,17.89557V206.177H118.41932V185.15778C118.41932,181.04877,119.07056,173.81616,111.465,173.81616Zm80.12915,32.35938V136.4524h-15.3465v30.80835c-3.19061-3.76508-8.39124-5.61041-13.35974-5.61041-12.80615,0-21.63,10.57471-21.63,22.92963,0,12.33173,9.01038,23.05048,21.79327,23.05048,5.03784,0,10.30823-1.93829,13.01086-6.26111h.18561v4.80621Zm-24.636-11.84827c-6.284,0-9.84723-4.202-9.84723-9.67755,0-5.285,3.56323-9.71942,9.84723-9.71942a9.33906,9.33906,0,0,1,9.797,9.71942C176.75513,190.12531,173.15009,194.32727,166.95814,194.32727Zm50.428-47.84869a8.58719,8.58719,0,1,1-8.57312-8.548A8.59993,8.59993,0,0,1,217.38618,146.47858ZM201.161,163.082h15.2995v43.09357H201.161ZM223.35,184.64881c0,14.89752,10.67572,22.98077,24.97974,22.98077,9.89386,0,19.55121-4.64355,21.979-14.80457H255.614a7.79586,7.79586,0,0,1-7.34973,3.97424c-6.31238,0-9.59186-3.39789-9.59186-9.6311h32.21783V185.597c0-14.68835-8.67084-23.94757-23.62146-23.94757C233.21595,161.64948,223.35,170.26258,223.35,184.64881Zm24.68164-13.094a8.61207,8.61207,0,0,1,8.64331,6.81427H238.92365C239.84968,173.91144,243.52418,171.55481,248.03168,171.55481Zm49.59564,11.50336-12.36383-9.93323H301.372l6.09888-15.81781,6.1496,15.81781h16.13214l-13.10437,9.93323,5.29364,15.93408-14.471-9.42194-14.4436,9.42194ZM66.62751,263.278v23.1853H53.70972V269.11145c0-3.80688.15765-9.96576-5.32623-9.96576-5.98724,0-6.16351,5.63367-6.16351,9.96576v17.35181H29.32075V269.11145c0-4.05786,0-10.21674-5.79608-10.21674-5.75415,0-5.75415,6.15887-5.75415,10.21674v17.35181H4.87592V250.08167H17.77051v4.52271h.17676a13.40449,13.40449,0,0,1,11.45251-5.7312c5.30762,0,9.81512,2.12421,12.448,6.93976a13.94279,13.94279,0,0,1,12.3736-6.93976C63.44575,248.87317,66.62751,254.89722,66.62751,263.278Zm25.96735-14.40247c-11.88055,0-20.19318,7.28839-20.19318,19.45276,0,12.51764,9.03369,19.37842,21.09558,19.37842,8.27075,0,16.44385-3.8952,18.53247-12.513h-12.448a6.50484,6.50484,0,0,1-6.224,3.33276c-5.24719,0-8.08008-2.82611-8.08008-8.06927h27.22186v-1.348C112.49952,256.67053,105.201,248.87549,92.59485,248.87549Zm-7.06134,14.11194c.78149-3.74176,3.90277-5.694,7.6474-5.694a7.26069,7.26069,0,0,1,7.33582,5.694Zm94.66718.29053v23.1853H167.26423V269.11145c0-3.80688.09772-9.96576-5.34479-9.96576-5.97284,0-6.14447,5.63367-6.14447,9.96576v17.35181H142.8567V269.11145c0-4.05786,0-10.21674-5.777-10.21674-5.75421,0-5.75421,6.15887-5.75421,10.21674v17.35181h-12.9364V250.08167h12.9364v4.52271h.15814a13.481,13.481,0,0,1,11.47119-5.7312c5.26526,0,9.81512,2.12421,12.44751,6.93976a13.92061,13.92061,0,0,1,12.369-6.93976C177.00031,248.87317,180.20069,254.89722,180.20069,263.278Zm32.07452-14.40668c-4.25165,0-8.6615,1.71521-11.00128,5.34082h-.121v-4.13226H188.17933v54.57H201.153V283.02637c2.74915,3.20258,7.066,4.68073,11.23859,4.68073,10.82916,0,18.28125-8.80835,18.28125-19.31793C230.6728,257.95856,223.16492,248.87128,212.27521,248.87128Zm-3.27948,27.60577c-5.24713,0-8.30792-3.54663-8.30792-8.14832a8.31306,8.31306,0,0,1,16.62524,0C217.31306,272.93042,214.26618,276.47705,208.99573,276.47705Zm66.4787-12.23926v22.22314H262.5752V267.8216c0-4.22986-.66052-8.67358-5.83325-8.67358-5.14948,0-6.731,4.44373-6.731,8.67358v18.63934H237.05585V227.60059h12.95508v27.08051h.11627a13.43458,13.43458,0,0,1,11.64789-5.81024C271.02271,248.87085,275.47443,254.95532,275.47443,264.2378Zm8.51971-14.15985h12.93646v36.38153H283.99415Zm13.69934-13.954a7.24741,7.24741,0,1,1-7.2381-7.25586A7.2506,7.2506,0,0,1,297.69349,236.124Zm37.22772,38.01312c0,9.57532-8.7406,13.57275-17.22534,13.57275a27.86785,27.86785,0,0,1-14.653-4.2113l4.66107-9.00818c2.65613,1.85,7.06592,3.686,10.22449,3.686,1.66064,0,4.07953-.76233,4.07953-2.74713,0-2.84937-4.07953-2.98877-8.13586-4.02069-4.00049-1.09235-8.07538-3.08179-8.07538-9.6311,0-8.9292,8.07538-12.90344,16.03448-12.90344a29.39921,29.39921,0,0,1,12.00146,2.31946l-4.29358,8.24591a15.753,15.753,0,0,0-6.96826-1.75232c-1.52112,0-4.03772.6228-4.03772,2.45422,0,2.49609,4.03772,2.84473,5.77747,3.198C330.39509,264.54779,334.92121,267.39252,334.92121,274.13709Z" fill="#fff"/>
</svg>
