<svg xmlns="http://www.w3.org/2000/svg" viewBox="0 0 334.92 304.65">
  <title>indie-memphis-white</title>
  <path d="M114.74,118.7a5.36,5.36,0,0,0,.7,0c4.16,0,4.16-1.66,8.32-1.66s4.17,1.67,8.31,1.68,4.15-1.66,8.32-1.66,4.15,1.67,8.31,1.67,4.15-1.66,8.33-1.66,4.15,1.67,8.3,1.68,4.16-1.66,8.32-1.66,4.16,1.67,8.34,1.67a9.4,9.4,0,0,0,1.4-.09,12,12,0,0,0,.27-2.74l-.1-.07-.06,0a2.69,2.69,0,0,0,0-.29,1.93,1.93,0,0,0-.27-.84l-.1-.11c-.24-.26-.5-.51-.75-.77a7.17,7.17,0,0,1-.3-.69,2.1,2.1,0,0,0-.73-1.05v0l-.09-.07-.13-.05-.05,0h0a1,1,0,0,0-.25,0,.67.67,0,0,0-.47.19l-.18.13a2.31,2.31,0,0,0-.18-.35l-.23-.56a.72.72,0,0,0-.63-.37h-.14a1.89,1.89,0,0,0-.09-.52,4,4,0,0,0-.42-.92.72.72,0,0,0-.62-.35h0l-.26,0-.11,0a1.36,1.36,0,0,0-.29-.06h0a1.47,1.47,0,0,1-.15-.34,4.6,4.6,0,0,0-.35-.82,2.64,2.64,0,0,0-.43-.51,2.23,2.23,0,0,1-.26-.27c-.13-.2-.25-.41-.37-.62a2.65,2.65,0,0,0-.85-1,2.44,2.44,0,0,0-1-.36,3.55,3.55,0,0,0-.57-1.57,2.36,2.36,0,0,0-.88-.75,2.64,2.64,0,0,0-.83-.24l0,0-.06-.13,0,0a2.51,2.51,0,0,1,0-.61,4.38,4.38,0,0,0,0-.51,1.47,1.47,0,0,0-.14-.45,1.52,1.52,0,0,0-.35-.72,1.19,1.19,0,0,0-.47-.35,4.4,4.4,0,0,0-.46-.16l0,0c-.08-.29-.19-.59-.27-.87v-.09a8.81,8.81,0,0,0-.78-1.37,4.38,4.38,0,0,0-1.1-1.21,6.38,6.38,0,0,0-1.34-.77l-.13,0c-.2,0-.38-.09-.58-.12s-.2-.28-.36-.47a1.73,1.73,0,0,0-.42-.39,1.23,1.23,0,0,0-.67-.23h0a2.63,2.63,0,0,0-.39.06,2.64,2.64,0,0,1-.44.12l-.05,0h0a1.31,1.31,0,0,0-.32-.25,6.37,6.37,0,0,0-.94-.38,4,4,0,0,1-.47-.21s0-.08,0-.11a.89.89,0,0,0-.32-.44,4,4,0,0,0-.57-.32l-.15-.09a.65.65,0,0,0,0-.51,1.44,1.44,0,0,1-.08-.17.62.62,0,0,0,.15-.2.77.77,0,0,0,.07-.4,1.56,1.56,0,0,0,.3-.27,7.34,7.34,0,0,0,.67-1.15,6.65,6.65,0,0,0,.41-1.16,3.74,3.74,0,0,1,.33-.92c.25-.54.85-1.16,1.31-1.88.73-1.17,1.36-2.29,2.07-3.41.51-.82,1.19-1.62,1.84-2.49a3.09,3.09,0,0,1,.35-.38l.17-.21a9.34,9.34,0,0,1,1.37.5c.7.28,1.39.63,1.95.85,2.72,1.12,5.39,2,8.11,3a11.89,11.89,0,0,0,3.9.88,4.16,4.16,0,0,0,2.05-.48A5.18,5.18,0,0,0,187,82.19a6,6,0,0,0,.82-2.79,3.34,3.34,0,0,0-.46-1.74,4,4,0,0,0-.82-.88c-.51-.39-1.11-.79-1.68-1.16l-1.41-.9c-1.17-.83-2.29-1.85-3.5-2.79l-1.39-1.38c0-.21,0-.45,0-.71v0a114.2,114.2,0,0,1,14.49,7.4c1.48.92,2.94,1.79,4.38,2.67.36.23.75.39,1.06.56a3.59,3.59,0,0,1,.75.46.62.62,0,0,0,.49.2h.08a.69.69,0,0,0,.56-.28.93.93,0,0,0,.14-.36.7.7,0,0,0,.17-.24.68.68,0,0,0-.17-.76c-.3-.32-.62-.64-.94-1a.08.08,0,0,0,0,0,.72.72,0,0,0-.1-.86q-2.27-2.23-4.53-4.52l-.08-.06a8.1,8.1,0,0,1-1-1,8.85,8.85,0,0,0-1.16-1.13,4.74,4.74,0,0,1-.51-.37,1.64,1.64,0,0,1-.25-.21c-.09-.26-.16-.52-.27-.79l0-.06c-.29-.65-.59-1.26-.88-1.94a17.42,17.42,0,0,0-1-1.73,10,10,0,0,1-.89-1.51,10.57,10.57,0,0,1-.38-1.47,7.06,7.06,0,0,0-.28-.89,5.53,5.53,0,0,0,.66-.2c.51-.23,1-.52,1.36-.67l.21-.15.08-.09a.69.69,0,0,0,.2-.55.71.71,0,0,0-.49-.61s0,0,0,0a.67.67,0,0,0-.13-.82.46.46,0,0,0-.13-.2,9.8,9.8,0,0,0,1-.49c1.29-.8,2.74-1.55,4.1-2.46.61-.41,1.12-.89,1.59-1.17a.73.73,0,0,0,.37-.57v-.06c0-.12,0-.22,0-.27v-.06a.6.6,0,0,1,.19-.06,5,5,0,0,1,.76-.1,4.17,4.17,0,0,0,1-.15c2.12-.61,4.42-.9,6.76-1.54,4.15-1.17,8.67-1.84,13-3.05,2-.57,4.25-.76,6.38-1.34s4.29-.72,6.46-1.34c.35-.09.78-.15,1.21-.22a3.6,3.6,0,0,0,1.19-.42.69.69,0,0,0,.52-.32.79.79,0,0,0,.12-.3c.09-.06.19-.1.3-.18a1.41,1.41,0,0,0,.35-.34c.12-.19.19-.33.25-.43l.07-.11h0a.73.73,0,0,0,.11-1,.69.69,0,0,0,.38-.48.7.7,0,0,0-.32-.76,1.19,1.19,0,0,0-.26-.11,2.47,2.47,0,0,0-.54,0c-.52,0-1.22.08-1.89.15l-.92.12c-.27,0-.46.07-.61.1h-.15l-.59,0a2.3,2.3,0,0,1,.5-.24,5,5,0,0,1,1-.21,6.63,6.63,0,0,0,1.24-.24c.88-.31,1.66-.78,2.4-1,.31-.11.73-.21,1.19-.35a2.59,2.59,0,0,0,.71-.29,3.9,3.9,0,0,0,.46-.34,1.33,1.33,0,0,0,.19-.14.74.74,0,0,0,.2-.5v-.14a.79.79,0,0,0-.29-.59.9.9,0,0,0-.42-.13.42.42,0,0,0-.22.05,9.13,9.13,0,0,1-1.73.34c-.62.08-1.29.13-2,.28l-1.31.07-.12,0a10.05,10.05,0,0,1-1.23.13,8.83,8.83,0,0,0-1.53.16,27.82,27.82,0,0,1-4.17.54,29,29,0,0,0-4.25.58c-.66.06-1.32.14-2,.22h-.08c-1.38.33-3,.33-4.69.74-3.91,1-8.18,1.26-12.12,2.37l-2.61.43-.07,0c-2.09.59-4.52.78-6.95,1.33a3.54,3.54,0,0,1-1.08.1h-.53a6.81,6.81,0,0,0-1.42.12,7.92,7.92,0,0,1-1.75.16,17.67,17.67,0,0,1-4.22-.52,35,35,0,0,1-9-3.56c-4.51-2.75-8.62-6.3-13.21-9.19-3.18-2-6.53-3.67-9.66-5.57-1.66-1-3.44-1.62-4.8-2.58a1,1,0,0,1-.16-.26,2.39,2.39,0,0,1-.13-.21.71.71,0,0,0,.45-.65v-.72a.39.39,0,0,0,.1-.08.66.66,0,0,0,.28-.53c0-.08,0-.18,0-.28h.17a.71.71,0,0,0,.51-.23.68.68,0,0,0,.18-.54c0-.27,0-.54-.05-.81l0,0h0a.56.56,0,0,0,.17-.09h.05a.71.71,0,0,0,.74-.67,1.28,1.28,0,0,0,0-.19,2.88,2.88,0,0,0-.09-.4.7.7,0,0,0,.58-.35.69.69,0,0,0,0-.68,1.34,1.34,0,0,1-.12-.24l0-.06a2.41,2.41,0,0,0,.21-.24,2.64,2.64,0,0,0,.45-.64l0-.1c.06-.24.14-.48.2-.72a17,17,0,0,1,1-1.5,8.09,8.09,0,0,1,1.14-1.27,3.62,3.62,0,0,1,1.22-.5c.51-.12,1.09-.24,1.75-.41,1.1-.31,2.37-.51,3.65-.91a7.94,7.94,0,0,1,2.21-.48h0l.14,0L167.44,14l-2.25,7.88,7.15-4.65,7.15,4.65L176.9,14,183.35,9H175.4l-3.06-7.86-3,7.86h-6.53a.56.56,0,0,0-.09-.31,3.78,3.78,0,0,0-1.59-1.32,11.41,11.41,0,0,0-3.38-1,26.1,26.1,0,0,0-3.64-.26h0c-1,.06-2.06.1-3.09.14a2.73,2.73,0,0,1-1-.68,11.45,11.45,0,0,0-1.33-1.18A29.81,29.81,0,0,0,142,.79a9.42,9.42,0,0,0-2.58-.43c-.87,0-1.74-.08-2.46-.19A11.1,11.1,0,0,0,135.68,0a2.55,2.55,0,0,0-.61.08l-.32.14h-2.28a.74.74,0,0,0-.4.14.84.84,0,0,0-.22.24,1.12,1.12,0,0,0-.11.25v0a1.1,1.1,0,0,1-.36,0h-.51a.66.66,0,0,0-.51.21l-.07.07a.73.73,0,0,0-.22.54l-.15.11c-.44.24-.9.46-1.37.66a12.87,12.87,0,0,0-1.41.66,4.85,4.85,0,0,0-1,.9,3.29,3.29,0,0,1-.74.65.75.75,0,0,0-.34.78,1.34,1.34,0,0,1,0,.35l0,.12h0l-.07.14a.89.89,0,0,1-.29.2,1.84,1.84,0,0,1-.51.19.76.76,0,0,0-.5.54,2.55,2.55,0,0,0,0,.39c0,.18,0,.35,0,.49l0,.16v0h0a1.32,1.32,0,0,1-.33.29l-.36.21a.62.62,0,0,0-.46.41h0a.83.83,0,0,0-.13.41,1.74,1.74,0,0,0,.24.84,1.23,1.23,0,0,0,.22.29,5.05,5.05,0,0,1-.08.68,1,1,0,0,1-.28.54,5.82,5.82,0,0,0-.77,1,2.06,2.06,0,0,0-.31.9c0,.12,0,.22-.06.28l0,.06v0a3.5,3.5,0,0,1-.64.69,7.75,7.75,0,0,0-.71.69.43.43,0,0,0-.19.13.74.74,0,0,0-.19.5v.07a.71.71,0,0,0,.22.52.79.79,0,0,0,.45.19h.11c.09,0,.16,0,.26,0a.1.1,0,0,1,0,.05.75.75,0,0,0,0,.74,1.09,1.09,0,0,0,.27.33c-.07.21-.17.44-.25.71l0,.19v.55l-.14.19-.15.23a1.31,1.31,0,0,0-.15.37.82.82,0,0,0,0,.22,1,1,0,0,0,.14.46,3.93,3.93,0,0,1-.18.43c-.08.23-.2.48-.29.74a12.56,12.56,0,0,0-.31,1.35,2.49,2.49,0,0,1-.33.91.74.74,0,0,0-.13.41v.15a.7.7,0,0,0,.42.64h0v0c0,.22,0,.44-.06.62a3.45,3.45,0,0,1-.06.37c0,.2-.24.58-.42,1a4.43,4.43,0,0,0-.35,1.65,2.69,2.69,0,0,0,.09.8c.15.48.39.95.58,1.47a4.63,4.63,0,0,1,.36,1.51,2.33,2.33,0,0,1,0,.37,13.59,13.59,0,0,1-.79,1.84c-.36.89-.47,1.67-.74,2.4a7,7,0,0,0-.32.76,3,3,0,0,0-.26,1.13,2,2,0,0,0,0,.24c.75,4.77,2.46,8.44,4.06,12.12.77,1.73,1.17,3.91,2.28,5.73s2.42,3.36,3.61,5a25,25,0,0,0,5.57,5c.47.35,1,.71,1.58,1.1a7.68,7.68,0,0,1,1.23,1.12c.2.25.34.63.68,1.06a3,3,0,0,0,.69.58,2.08,2.08,0,0,1,.32.27.66.66,0,0,0,.58.31H138a.74.74,0,0,0,.56-.26.82.82,0,0,0,.14-.59s0,0,0-.06a3.26,3.26,0,0,1,1,.59c.62.48,1.19,1.1,1.89,1.61.32.21.65.4.93.6a2.9,2.9,0,0,1,.61.55.68.68,0,0,0,.56.3h.14a1.56,1.56,0,0,0,.48,0l.1,0a1.7,1.7,0,0,1,.44.24,2.46,2.46,0,0,0,1.2.56h.07a.68.68,0,0,0,.51-.18v0a3.88,3.88,0,0,1,.93.52,4.67,4.67,0,0,1,1.11,1.15.7.7,0,0,0,.59.32h.08a.67.67,0,0,0,.5-.21.7.7,0,0,0,.2-.5v-.19l.35,0h.19l.2.18a.66.66,0,0,0,.49.22h.07c.19,0,.36,0,.57-.06l.12.08a4.06,4.06,0,0,1,.94,1,.71.71,0,0,0,.6.3h.09a.64.64,0,0,0,.54-.25.49.49,0,0,1,.13.12.77.77,0,0,0,.57.3h.15a.71.71,0,0,0,.61-.35,1,1,0,0,0,.11-.33,1.09,1.09,0,0,1,.37.19.63.63,0,0,0,.48.19h.08a.67.67,0,0,0,.24,0,25,25,0,0,1-1.91,2.08c-.35.32-.71.65-1,1L154,81A20.32,20.32,0,0,1,152,83a18.84,18.84,0,0,1-1.93,1.86l-.07.07c-.85.85-1.67,1.68-2.52,2.51-.78.61-1.34,1.28-1.94,1.73a11.06,11.06,0,0,0-2.52,2.31,3.92,3.92,0,0,0-.53,1.3,4.54,4.54,0,0,1-.17.52h-.11l-.72,0a2.82,2.82,0,0,0-.41,0l-.24,0a2.36,2.36,0,0,0-.75.12.73.73,0,0,0-.48.68,5.07,5.07,0,0,0,.1.77,1.52,1.52,0,0,0,.09.28l0,.05c-.13.13-.32.27-.52.46A9,9,0,0,1,137.76,97a8.15,8.15,0,0,1-1.33.56,5.73,5.73,0,0,0-1.1.5l-.13-.14a1.72,1.72,0,0,0-.31-.29,1.15,1.15,0,0,0-.53-.2l-.16,0a1.57,1.57,0,0,0-.81.27,10,10,0,0,0-.81.65,1.76,1.76,0,0,1-.3.24l-.09.07h0a5.42,5.42,0,0,1-1.19.22,5.52,5.52,0,0,0-1.45.31,6.28,6.28,0,0,0-1.39.88l-.58.46a2.26,2.26,0,0,0-.44-.22l-.12,0-.05,0h0a.68.68,0,0,0-.75.2c-.76.8-1.35,1.72-2,2.47l-.27.11a1,1,0,0,0-.33.15,1.23,1.23,0,0,0-.35.4,1.37,1.37,0,0,0-.16.63,1.68,1.68,0,0,1-.49.17c-.39.1-.87.18-1.34.29a5.71,5.71,0,0,0-.71.19,1.87,1.87,0,0,0-.62.3,1.51,1.51,0,0,0-.28.22l-.07,0a.62.62,0,0,0-.45-.15h0l-.27,0a1.24,1.24,0,0,0-.37.17l-.16.15a1.51,1.51,0,0,0-.31.75,1.61,1.61,0,0,1-.08.38c-.15.33-.27.7-.41,1a6.52,6.52,0,0,1-.41.84,1.34,1.34,0,0,1-.34.29,2.73,2.73,0,0,0-.35.33,2.6,2.6,0,0,0-.28.45,1.94,1.94,0,0,0-.16.75,4,4,0,0,0,.1.77,5.07,5.07,0,0,1,0,.56.36.36,0,0,1,0,.14q-.22.52-.48,1l0,.07c-.26.84-.3,1.7-.45,2.29a1.84,1.84,0,0,0-.07.47,1.67,1.67,0,0,0,.06.44c0,.09,0,.15,0,.19v.09C114.9,117.19,114.89,118,114.74,118.7ZM155,85.58C156.91,83.69,159,81.91,161,80a6.51,6.51,0,0,1,.72-.55,14.67,14.67,0,0,0,1.46-1.14,4.37,4.37,0,0,0,.63-.79.69.69,0,0,1,0-.08l.25.1a7.42,7.42,0,0,1-.58,1c-.35.52-.74,1-1.08,1.56-1.11,1.78-2.24,3.45-3.39,5.18-.52.79-.91,1.55-1.4,2.17a8.16,8.16,0,0,1-1.15,1.2,7.16,7.16,0,0,0-1.1,1.17,3.77,3.77,0,0,0-1.32.37c-.44.2-.75.39-1.09.54l-.18.06v0a3.18,3.18,0,0,0-.16-.86,4,4,0,0,0-.65-1.25c1-1,2.05-2,3.08-3.08ZM12.34,183.06,0,173.12H16.11l6.13-15.81,6.14,15.81H44.47l-13.11,9.94L36.66,199l-14.42-9.42L7.75,199Zm50.43-20H78.12v43.1H62.77Zm-1-16.6a8.59,8.59,0,1,1,8.6,8.58,8.58,8.58,0,0,1-8.6-8.58Zm49.64,27.34c-6.16,0-7.94,4.62-7.94,10v22.34H88.2v-43.1h15.32v5.52h.16c3.51-5.22,7.78-6.95,13.82-6.95,11.55,0,16.22,7.3,16.22,17.89v26.64h-15.3v-21c0-4.11.65-11.34-7-11.34Zm80.13,32.36V136.45H176.25v30.81c-3.19-3.76-8.39-5.61-13.36-5.61-12.81,0-21.63,10.58-21.63,22.93s9,23,21.79,23c5,0,10.31-1.94,13-6.26h.19v4.81ZM167,194.33c-6.29,0-9.85-4.2-9.85-9.68,0-5.29,3.56-9.72,9.85-9.72a9.34,9.34,0,0,1,9.79,8.86,8.23,8.23,0,0,1,0,.86c0,5.48-3.61,9.68-9.8,9.68Zm50.43-47.85a8.59,8.59,0,1,1-8.63-8.55h.05a8.61,8.61,0,0,1,8.58,8.55Zm-16.23,16.6h15.3v43.1h-15.3Zm22.19,21.57c0,14.9,10.68,23,25,23,9.89,0,19.55-4.64,22-14.8h-14.7a7.8,7.8,0,0,1-7.35,4c-6.31,0-9.59-3.4-9.59-9.63h32.22V185.6c0-14.69-8.67-23.95-23.62-23.95C233.22,161.65,223.35,170.26,223.35,184.65ZM248,171.55a8.61,8.61,0,0,1,8.64,6.82H238.92c.93-4.46,4.6-6.82,9.11-6.82Zm49.6,11.51-12.37-9.94h16.11l6.1-15.81,6.15,15.81h16.13l-13.1,9.94L321.94,199l-14.47-9.42L293,199Zm-231,80.22v23.18H53.71V269.11c0-3.81.16-10-5.33-10-6,0-6.16,5.63-6.16,10v17.35H29.32V269.11c0-4.06,0-10.22-5.8-10.22s-5.75,6.16-5.75,10.22v17.35H4.88V250.08H17.77v4.52H18a13.43,13.43,0,0,1,11.45-5.73c5.31,0,9.81,2.13,12.45,6.94a14,14,0,0,1,12.37-6.94C63.45,248.87,66.63,254.9,66.63,263.28Zm26-14.4c-11.88,0-20.19,7.28-20.19,19.45,0,12.52,9,19.38,21.1,19.38,8.27,0,16.44-3.9,18.53-12.52H99.58a6.5,6.5,0,0,1-6.22,3.34c-5.25,0-8.08-2.83-8.08-8.07H112.5v-1.35c0-12.44-7.3-20.23-19.91-20.23ZM85.53,263c.79-3.74,3.91-5.7,7.65-5.7a7.28,7.28,0,0,1,7.34,5.7Zm94.67.29v23.18H167.26V269.11c0-3.81.1-10-5.34-10-6,0-6.15,5.63-6.15,10v17.35H142.86V269.11c0-4.06,0-10.22-5.78-10.22s-5.75,6.16-5.75,10.22v17.35H118.39V250.08h12.94v4.52h.15A13.52,13.52,0,0,1,143,248.87c5.27,0,9.82,2.13,12.45,6.94a14,14,0,0,1,12.37-6.94c9.23,0,12.43,6,12.43,14.41Zm32.08-14.41c-4.26,0-8.67,1.72-11,5.34h-.12v-4.13h-13v54.57h13V283c2.75,3.2,7.07,4.68,11.24,4.68,10.83,0,18.28-8.81,18.28-19.32s-7.51-19.52-18.39-19.52ZM209,276.48c-5.25,0-8.31-3.55-8.31-8.15a8.31,8.31,0,0,1,16.62,0c0,4.6-3,8.15-8.31,8.15Zm66.47-12.24v22.22H262.58V267.82c0-4.23-.67-8.67-5.84-8.67s-6.73,4.44-6.73,8.67v18.64H237.06V227.6H250v27.08h.12a13.44,13.44,0,0,1,11.65-5.81c9.24,0,13.69,6.09,13.69,15.37ZM284,250.08h12.94v36.38H284Zm13.7-14a7.25,7.25,0,1,1-7.24-7.25h0a7.24,7.24,0,0,1,7.23,7.25Zm37.23,38c0,9.57-8.74,13.57-17.22,13.57A27.84,27.84,0,0,1,303,283.5l4.66-9c2.66,1.85,7.07,3.69,10.23,3.69,1.66,0,4.08-.77,4.08-2.75,0-2.85-4.08-3-8.14-4s-8.07-3.08-8.07-9.63c0-8.93,8.07-12.91,16-12.91a29.57,29.57,0,0,1,12,2.32l-4.29,8.25a15.81,15.81,0,0,0-7-1.75c-1.52,0-4,.62-4,2.45,0,2.5,4,2.85,5.78,3.2,6.09,1.21,10.61,4.05,10.61,10.8Z" fill="#fff"/>
</svg>
