<svg xmlns="http://www.w3.org/2000/svg" viewBox="0 0 227.28 49.61">
  <title>steeltek-logo-color</title>
  <g>
    <path d="M66,21.23c-5.2-.47-7.06-1.14-7.06-3.76,0-2.24,2.87-3.92,6.34-3.92a9.2,9.2,0,0,1,8.5,4.73h4.65v-9H74.08v2.45s-2.22-2.94-8.94-2.94c-7.62,0-12.59,4.35-12.59,9.3,0,6.17,4.84,8.68,12.42,9.44,4.52.45,8.2.77,8.2,4.46,0,2.65-2.54,4.31-6.59,4.31A10.08,10.08,0,0,1,57,30.57H52.12v10h4.63V38s3,3.11,10.8,3.11c6.89,0,12.24-4.27,12.24-9.9C79.79,24.34,73.54,21.92,66,21.23Z" fill="#2d5369"/>
    <path d="M87.43,33.9V21.49h5.3V16.84h-5.3V9.31H81.36V36.48c0,3.93,2.66,4.63,7.55,4.63a27.73,27.73,0,0,0,3.82-.28V36.38H90.88C88.56,36.38,87.43,35.78,87.43,33.9Z" fill="#2d5369"/>
    <polygon points="151.21 7.86 142.52 7.86 142.52 12.01 145.14 12.01 145.14 36.43 142.52 36.43 142.52 40.58 153.84 40.58 153.84 36.43 151.21 36.43 151.21 7.86" fill="#2d5369"/>
    <path d="M136.11,33.19c-1,2.35-2.92,3.38-5.68,3.38-2.35,0-5.71-1.13-6.27-5.84h19c-.1-2.42-.28-6.45-2.61-9.64a12.51,12.51,0,0,0-10.18-4.8c-7.2,0-12.5,4.86-12.87,11.66A14.27,14.27,0,0,0,115,21.09a12.51,12.51,0,0,0-10.18-4.8C97.39,16.29,92,21.52,92,28.73s5.4,12.39,12.84,12.39c6.33,0,11-3,12.32-7.93h-6.49c-1,2.35-2.91,3.38-5.67,3.38-2.36,0-5.72-1.13-6.28-5.84h18.89c.91,6.13,6,10.39,12.7,10.39,6.33,0,11-3,12.32-7.93ZM98.45,26.07a6.17,6.17,0,0,1,6.26-5.27,5.77,5.77,0,0,1,6.17,5.27Zm31.73-5.27a5.77,5.77,0,0,1,6.17,5.27H123.92A6.17,6.17,0,0,1,130.18,20.8Z" fill="#2d5369"/>
    <polygon points="170.87 12.65 176.05 12.65 176.05 16.79 181.41 16.79 181.41 7.86 153.55 7.86 153.55 16.79 158.91 16.79 158.91 12.65 164.09 12.65 164.09 36.43 160.86 36.43 160.86 40.58 174.15 40.58 174.15 36.43 170.87 36.43 170.87 12.65" fill="#9aca3c"/>
    <polygon points="224.02 36.43 223.94 36.31 216.37 25.33 221.78 20.98 224.19 20.98 224.19 16.84 218.71 16.84 208.15 25.53 208.15 7.86 199.46 7.86 199.46 12.01 202.08 12.01 202.08 36.43 199.46 36.43 199.46 40.58 210.78 40.58 210.78 36.43 208.15 36.43 208.15 31.93 211.73 29.06 219.52 40.58 226.11 40.58 226.11 36.43 224.02 36.43" fill="#9aca3c"/>
    <path d="M193.05,33.19c-1,2.35-2.92,3.38-5.68,3.38-2.35,0-5.71-1.13-6.27-5.84h19c-.1-2.42-.28-6.45-2.61-9.64a12.51,12.51,0,0,0-10.18-4.8c-7.47,0-12.9,5.23-12.9,12.44s5.41,12.39,12.85,12.39c6.33,0,11-3,12.32-7.93ZM187.12,20.8a5.77,5.77,0,0,1,6.17,5.27H180.86A6.17,6.17,0,0,1,187.12,20.8Z" fill="#9aca3c"/>
    <polygon points="19.95 7.22 19.95 19.36 23.5 21.41 23.5 7.22 21.73 6.19 19.95 7.22" fill="#9aca3c"/>
    <polygon points="23.5 42.4 23.5 30.25 19.95 28.2 19.95 42.4 21.73 43.42 23.5 42.4" fill="#9aca3c"/>
    <polygon points="16.12 25.99 3.83 33.09 7.38 35.14 19.67 28.04 16.12 25.99" fill="#9aca3c"/>
    <polygon points="27.33 23.62 39.62 16.52 36.07 14.47 23.78 21.57 27.33 23.62" fill="#9aca3c"/>
    <path d="M39.91,16.68V30.89l3.55,2V16.66a3.73,3.73,0,0,1-3.55,0Z" fill="#9aca3c"/>
    <path d="M3.55,32.94V18.73L0,16.68V33a3.76,3.76,0,0,1,1.78-.45A3.86,3.86,0,0,1,3.55,32.94Z" fill="#9aca3c"/>
    <path d="M43.4,36s0-.06,0-.09,0,0,0,0a1.46,1.46,0,0,0-.07-.19,1,1,0,0,0-.07-.15l0-.05a.91.91,0,0,0-.11-.16l0-.06L42.88,35,42.79,35l-.16-.11a.18.18,0,0,0-.07-.05L5.33,13.29,21.72,3.82l19.06,11a1.79,1.79,0,0,0,2.43-.65,1.8,1.8,0,0,0-.65-2.43L22.62.24l-.11,0h0A1.78,1.78,0,0,0,21.73,0h0a1.75,1.75,0,0,0-.78.18h0l-.11,0L.89,11.75l-.13.1-.09.06-.16.15-.09.1a1,1,0,0,0-.12.16l-.06.08s0,0,0,0a1,1,0,0,0-.07.15,1.07,1.07,0,0,0-.07.19s0,0,0,0,0,.06,0,.09a1.52,1.52,0,0,0,0,.21.86.86,0,0,0,0,.16,1,1,0,0,0,0,.17,1.62,1.62,0,0,0,0,.2s0,.06,0,.09v0A1.07,1.07,0,0,0,.15,14a1,1,0,0,0,.07.15s0,0,0,0l.06.08a1,1,0,0,0,.12.16l.09.1.16.15.09.06.13.1L38.12,36.32l-16.4,9.47-19-11a1.8,1.8,0,0,0-.89-.24,1.78,1.78,0,0,0-.89,3.32L20.83,49.38l.08,0,.11.06.21.07.13,0,.2,0h.33a.58.58,0,0,0,.19,0l.14,0,.2-.07.12-.06.08,0L42.56,37.87l.12-.09.1-.07.16-.15.09-.1a.88.88,0,0,0,.12-.17l.06-.08s0,0,0-.05l.08-.16.06-.16,0-.17a.86.86,0,0,0,0-.17,1.09,1.09,0,0,0,0-.18.76.76,0,0,0,0-.15A1.52,1.52,0,0,0,43.4,36Z" fill="#9aca3c"/>
    <path d="M157.6,22.67a3.58,3.58,0,1,0,3.61,3.55A3.57,3.57,0,0,0,157.6,22.67Z" fill="#9aca3c"/>
    <path d="M222.48,24.78h-1.15v3.75h-.6V24.78h-1.16v-.57h2.91Zm4.8,3.75h-.61V24.92h0l-1.2,3.61h-.39l-1.2-3.61h0v3.61h-.61V24.21h.94l1.1,3.28,1.08-3.28h.93Z" fill="#9aca3c"/>
  </g>
</svg>
