<svg xmlns="http://www.w3.org/2000/svg" viewBox="0 0 175.16 88.71">
  <title>steeltek-logo-white</title>
  <path d="M129.29,55.46v8.93h-5.36V60.25h-5.18V84H122v4.14H108.74V84H112V60.25h-5.18v4.14h-5.36V55.46Zm42.53,28.45-7.57-11,5.41-4.35h2.41V64.43h-5.48L156,73.13V55.46h-8.69V59.6H150V84h-2.62v4.14h11.31V84H156v-4.5l3.58-2.88,7.79,11.52H174V84H171.9ZM13.91,68.83c-5.2-.48-7.06-1.14-7.06-3.77,0-2.23,2.87-3.92,6.34-3.92a9.22,9.22,0,0,1,8.5,4.73h4.65v-9H22v2.44S19.74,56.41,13,56.41C5.4,56.41.43,60.77.43,65.71c0,6.17,4.84,8.68,12.42,9.44,4.52.45,8.2.78,8.2,4.46,0,2.65-2.54,4.32-6.59,4.32a10.09,10.09,0,0,1-9.54-5.76H0v10H4.63V85.6s3,3.11,10.8,3.11c6.89,0,12.24-4.27,12.24-9.91C27.67,71.93,21.42,69.52,13.91,68.83Zm21.4-11.92H29.24V84.07c0,3.94,2.66,4.64,7.55,4.64a28.75,28.75,0,0,0,3.82-.28V84H38.76c-2.32,0-3.45-.6-3.45-2.48V69.08h5.3V64.43h-5.3Zm63.78-1.45H90.4V59.6H93V84H90.4v4.14h11.31V84H99.09ZM84,80.79h6.49c-1.31,4.9-6,7.92-12.32,7.92-6.73,0-11.79-4.26-12.7-10.38H46.57c.56,4.71,3.92,5.83,6.28,5.83,2.76,0,4.67-1,5.67-3.37H65c-1.31,4.9-6,7.92-12.32,7.92-7.44,0-12.84-5.21-12.84-12.38s5.42-12.44,12.89-12.44a12.46,12.46,0,0,1,10.18,4.8,14.2,14.2,0,0,1,2.41,6.86c.38-6.8,5.68-11.66,12.88-11.66a12.47,12.47,0,0,1,10.18,4.8c2.33,3.19,2.5,7.22,2.61,9.64H72C72.6,83,76,84.16,78.31,84.16,81.07,84.16,83,83.14,84,80.79ZM58.76,73.67a5.78,5.78,0,0,0-6.17-5.27,6.16,6.16,0,0,0-6.26,5.27Zm13,0H84.22a5.76,5.76,0,0,0-6.16-5.27A6.16,6.16,0,0,0,71.8,73.67ZM129,78.33c.56,4.71,3.92,5.83,6.27,5.83,2.76,0,4.67-1,5.68-3.38h6.49c-1.31,4.91-6,7.93-12.32,7.93-7.44,0-12.85-5.21-12.85-12.39s5.43-12.43,12.9-12.43a12.47,12.47,0,0,1,10.18,4.8c2.33,3.19,2.51,7.22,2.61,9.64Zm12.19-4.66A5.78,5.78,0,0,0,135,68.4a6.16,6.16,0,0,0-6.26,5.27ZM88.09,7.22l-1.77-1-1.78,1V19.36l3.55,2.05ZM84.54,42.4l1.78,1,1.77-1V30.25L84.54,28.2ZM80.71,26l-12.29,7.1,3.55,2L84.26,28Zm20-11.51L88.37,21.57l3.55,2.05,12.29-7.1Zm3.84,2.2V30.89l3.55,2V16.66a3.75,3.75,0,0,1-3.55,0M68.14,32.94V18.73l-3.55-2.05V33a3.75,3.75,0,0,1,3.55,0m39.66,4.27a.08.08,0,0,0,0-.05l.08-.16.06-.16c0-.06,0-.11,0-.17a.88.88,0,0,0,0-.16,1.28,1.28,0,0,0,0-.19v-.15a1.55,1.55,0,0,0,0-.21s0-.06,0-.09l0,0a1.46,1.46,0,0,0-.07-.19,1,1,0,0,0-.07-.15s0,0,0-.05a.91.91,0,0,0-.11-.16l0-.06a1.62,1.62,0,0,0-.18-.19l-.09-.08a.91.91,0,0,0-.16-.11.18.18,0,0,0-.07-.05L69.92,13.29l16.4-9.47,19.06,11a1.78,1.78,0,0,0,1.77-3.08h0L87.21.24l-.11,0h0A1.74,1.74,0,0,0,86.33,0h0a1.64,1.64,0,0,0-.78.19h0l-.1,0-20,11.51-.13.1-.09.06-.16.15-.09.1-.12.16-.06.08s0,0,0,0l-.07.15-.07.19s0,0,0,0,0,.06,0,.09l0,.21a1.82,1.82,0,0,0,0,.33l0,.2s0,.06,0,.09v0c0,.07,0,.13.07.19l.07.15s0,0,0,0l.06.08.12.16.09.1.16.15.09.06.13.1,37.23,21.5L86.32,45.79l-19.06-11a1.78,1.78,0,1,0-1.78,3.08l20,11.51.07,0,.12,0,.21.07.12,0,.2,0h.33a.69.69,0,0,0,.2,0,.61.61,0,0,0,.13,0l.2-.07.12-.06.08,0,19.94-11.51.12-.09.1-.07.16-.15.09-.1.13-.17s0,0,0-.08m-5.87,36.6a3.58,3.58,0,1,0,3.61-3.54h-.06a3.59,3.59,0,0,0-3.55,3.54Zm68.43-2h-2.91v.58h1.16v3.75h.6V72.38h1.15Zm4.8,0h-.93l-1.08,3.29-1.1-3.29h-.94v4.33h.61V72.52h0l1.2,3.61h.39l1.2-3.61h0v3.61h.61Z" fill="#fff"/>
</svg>
