<svg xmlns="http://www.w3.org/2000/svg" viewBox="0 0 432 256">
  <title>tech901-logo-white</title>
  <path d="M19.87,254.38V199.12H0v-5.49H45.75v5.49H25.89v55.26Zm86.77-5.5H74.89V225.46h28.73V220H74.89V199.13h30.75v-5.49H68.86v60.73h37.78Zm28.13-2a29.14,29.14,0,0,0,9.8,6.64A31.65,31.65,0,0,0,157,255.93a28.09,28.09,0,0,0,7.41-.93,26.15,26.15,0,0,0,6.2-2.47,23,23,0,0,0,4.95-3.64,25.44,25.44,0,0,0,3.64-4.38l-4.69-3.07a18.63,18.63,0,0,1-7.71,6.85,22.68,22.68,0,0,1-9.72,2.16,23.92,23.92,0,0,1-10.27-2.15,23.2,23.2,0,0,1-7.75-5.78,26,26,0,0,1-4.9-8.41,30.85,30.85,0,0,1,0-20.2A25.22,25.22,0,0,1,139,205.5a23.36,23.36,0,0,1,7.75-5.79,24.28,24.28,0,0,1,10.35-2.13,20,20,0,0,1,5.33.69,23.51,23.51,0,0,1,4.56,1.8,16.53,16.53,0,0,1,3.64,2.57,14.94,14.94,0,0,1,2.47,2.92l5-3.78a17.68,17.68,0,0,0-3.77-4,25.19,25.19,0,0,0-5-3A29.83,29.83,0,0,0,157,192.09a31.19,31.19,0,0,0-12.28,2.4,30,30,0,0,0-9.81,6.65,30.55,30.55,0,0,0-6.49,10.08A34.1,34.1,0,0,0,126,224a34.48,34.48,0,0,0,2.32,12.78,30.16,30.16,0,0,0,6.41,10.09M238.7,220H206.36V193.64h-6v60.74h6V225.64H238.7v28.74h6V193.64h-6Zm60.18.5a9.49,9.49,0,0,0,2.6-6.94,10.16,10.16,0,0,0-2.48-6.82,8.49,8.49,0,0,0-6.78-2.88,9.09,9.09,0,0,0-6.86,2.7,9.9,9.9,0,0,0-2.57,7.09,9.63,9.63,0,0,0,2.53,6.82,8.72,8.72,0,0,0,6.72,2.69,9.11,9.11,0,0,0,6.84-2.66m9.78-22.65a21,21,0,0,1,5,6.87,21.47,21.47,0,0,1,1.83,9,25.22,25.22,0,0,1-1.83,9.82,58.52,58.52,0,0,1-4.78,9l-14.32,21.87h-17l14.75-20.93.18-.26a11.31,11.31,0,0,1-2.06.52,15,15,0,0,1-2.12.16,19.84,19.84,0,0,1-7.46-1.4,19,19,0,0,1-6.19-4.05,19.59,19.59,0,0,1-4.26-6.26,20.13,20.13,0,0,1-1.59-8.11,22.39,22.39,0,0,1,1.85-9.27,20.31,20.31,0,0,1,5-6.95,22.33,22.33,0,0,1,7.44-4.33,28.2,28.2,0,0,1,18.15,0,21.77,21.77,0,0,1,7.41,4.33M366,230.21q.33-3.47.33-6.38t-.33-6.26a32.29,32.29,0,0,0-1.27-6.39,13.89,13.89,0,0,0-2.63-5,5.65,5.65,0,0,0-4.48-2,5.78,5.78,0,0,0-4.53,2,14,14,0,0,0-2.72,5,28.87,28.87,0,0,0-1.29,6.39q-.35,3.42-.34,6.26c0,1.95.11,4.07.34,6.38a28.85,28.85,0,0,0,1.29,6.44,14,14,0,0,0,2.72,5,5.78,5.78,0,0,0,4.53,2,5.62,5.62,0,0,0,4.48-2,13.89,13.89,0,0,0,2.63-5,32.06,32.06,0,0,0,1.27-6.44m9.47-28.73a30.89,30.89,0,0,1,4,10.12,57.77,57.77,0,0,1,1.26,12.23,58.74,58.74,0,0,1-1.26,12.27,31.8,31.8,0,0,1-4,10.25,21.18,21.18,0,0,1-7.17,7A20.56,20.56,0,0,1,357.58,256a20.81,20.81,0,0,1-10.73-2.61,21.51,21.51,0,0,1-7.25-7,31.37,31.37,0,0,1-4.06-10.25,60.18,60.18,0,0,1,0-24.5,30.39,30.39,0,0,1,4.06-10.12,20.23,20.23,0,0,1,18-9.48,20,20,0,0,1,17.85,9.48M432,254.38V193.63H419.17l-19.52,14.68,7.29,10.2L418,209.76v44.62ZM198.91,47.92V30A39.53,39.53,0,0,0,174,66.54C174,88.3,191.94,106,214,106s40-17.7,40-39.46A39.51,39.51,0,0,0,229.09,30V47.92a23.71,23.71,0,0,1,9.11,18.62,24.2,24.2,0,0,1-48.39,0,23.71,23.71,0,0,1,9.1-18.62m4.39,83.78,10.59-14.86A50.45,50.45,0,1,1,254.5,96.31L197.71,176H217l50.2-70.45A65.94,65.94,0,1,0,203.3,131.7M222,29H206V81h16Z" fill="#fff"/>
</svg>
